{"glyphs":{"0":{"ha":942,"x_min":56,"x_max":886,"o":"m 56 394 q 180 697 56 589 q 471 804 304 804 q 762 700 638 804 q 886 397 886 596 q 762 92 886 203 q 469 -19 638 -19 q 184 88 313 -19 q 56 394 56 196 m 317 399 q 361 243 317 300 q 471 186 406 186 q 580 242 535 186 q 625 393 625 297 q 579 544 625 490 q 469 599 533 599 q 363 545 408 599 q 317 399 317 492 z "},"1":{"ha":685,"x_min":42,"x_max":657,"o":"m 94 0 l 72 199 l 260 199 l 260 472 l 151 422 l 42 638 l 344 786 l 513 786 l 513 199 l 633 199 l 657 0 l 94 0 z "},"2":{"ha":726,"x_min":42,"x_max":671,"o":"m 347 804 q 578 728 517 804 q 639 567 639 653 q 599 398 639 476 q 463 236 558 319 l 419 199 l 647 199 l 671 0 l 61 0 l 61 167 l 297 375 q 386 472 360 431 q 414 543 413 514 q 393 583 414 568 q 336 599 372 599 q 238 571 288 599 q 149 517 188 543 l 42 683 q 169 763 89 722 q 347 804 249 804 z "},"3":{"ha":785,"x_min":19,"x_max":729,"o":"m 374 804 q 620 736 526 804 q 714 558 714 668 q 681 453 714 508 q 610 378 647 397 q 694 289 658 349 q 729 168 729 229 q 627 -31 729 46 q 357 -108 525 -108 q 190 -81 281 -108 q 19 -3 99 -54 l 154 165 q 262 112 214 128 q 358 96 310 96 q 437 117 406 96 q 468 175 468 139 q 441 238 468 215 q 372 260 414 260 l 229 260 l 208 458 l 322 458 q 417 480 382 458 q 453 536 453 501 q 428 581 453 563 q 349 599 403 599 q 264 581 310 599 q 169 531 218 564 l 49 701 q 207 782 122 760 q 374 804 292 804 z "},"4":{"ha":871,"x_min":28,"x_max":835,"o":"m 822 75 l 696 75 l 696 -87 l 443 -87 l 443 75 l 57 75 l 28 260 l 507 793 l 696 793 l 696 274 l 835 274 l 822 75 m 325 274 l 443 274 l 443 413 l 325 274 z "},"5":{"ha":740,"x_min":14,"x_max":699,"o":"m 85 250 l 111 786 l 658 786 l 633 588 l 324 588 l 324 497 q 360 513 340 507 q 410 519 381 519 q 624 428 550 519 q 699 214 699 336 q 604 -19 699 72 q 346 -110 510 -110 q 177 -81 271 -110 q 14 -4 83 -53 l 140 175 q 251 123 203 140 q 350 106 299 106 q 436 135 401 106 q 471 214 471 164 q 446 284 471 258 q 382 310 421 310 q 328 290 350 310 q 297 250 306 271 l 85 250 z "},"6":{"ha":857,"x_min":56,"x_max":815,"o":"m 532 882 l 651 707 q 513 651 594 693 q 376 544 432 610 q 434 567 406 558 q 482 575 463 575 q 719 495 624 575 q 815 296 815 415 q 721 78 815 174 q 469 -18 626 -18 q 175 79 294 -18 q 56 371 56 176 q 191 685 56 536 q 532 882 326 833 m 554 290 q 527 367 554 336 q 444 399 500 399 q 377 378 411 399 q 321 333 343 358 q 371 222 332 258 q 460 186 410 186 q 531 220 507 186 q 554 290 554 254 z "},"7":{"ha":729,"x_min":35,"x_max":715,"o":"m 35 -42 l 383 588 l 61 588 l 38 786 l 668 786 l 715 686 l 286 -107 l 35 -42 z "},"8":{"ha":850,"x_min":56,"x_max":794,"o":"m 794 274 q 697 63 794 144 q 426 -18 600 -18 q 157 59 258 -18 q 56 274 56 136 q 90 387 56 333 q 171 474 124 440 q 112 545 138 503 q 86 635 86 588 q 186 823 86 753 q 426 893 286 893 q 664 823 564 893 q 764 635 764 753 q 740 544 764 588 q 681 472 715 501 q 761 386 728 439 q 794 274 794 333 m 424 686 q 367 663 385 686 q 349 619 349 639 q 368 570 349 594 q 426 540 388 546 q 482 570 463 546 q 501 621 501 594 q 483 663 501 640 q 424 686 465 686 m 317 285 q 350 217 317 247 q 425 188 383 188 q 500 217 465 188 q 535 285 535 247 q 506 349 535 315 q 426 393 478 383 q 344 349 371 383 q 317 285 317 315 z "},"9":{"ha":857,"x_min":42,"x_max":801,"o":"m 325 -96 l 206 79 q 342 133 261 92 q 479 242 424 175 q 422 219 450 228 q 375 211 394 211 q 138 291 233 211 q 42 490 42 371 q 136 708 42 613 q 388 804 231 804 q 682 707 563 804 q 801 415 801 610 q 666 101 801 250 q 325 -96 531 -47 m 303 496 q 330 419 303 450 q 413 388 357 388 q 479 408 446 388 q 536 453 513 428 q 485 564 524 528 q 397 600 447 600 q 326 566 350 600 q 303 496 303 532 z "},"\u0000":{"ha":0,"x_min":0,"x_max":0,"o":""},"\r":{"ha":0,"x_min":0,"x_max":0,"o":""}," ":{"ha":306,"x_min":0,"x_max":0,"o":""}," ":{"ha":306,"x_min":0,"x_max":0,"o":""},"‌":{"ha":0,"x_min":-42,"x_max":42,"o":"m -42 1718 l 42 1718 l 42 -94 l -42 -94 l -42 1718 z "},"‍":{"ha":0,"x_min":-157,"x_max":158,"o":"m 103 1833 l 158 1778 l 56 1675 l 158 1572 l 104 1518 l 42 1579 l 42 -94 l -42 -94 l -42 1578 l -103 1518 l -157 1572 l -54 1675 l -157 1778 l -101 1833 l 0 1731 l 103 1833 z "},"◌":{"ha":933,"x_min":69,"x_max":864,"o":"m 465 708 q 433 721 446 708 q 421 753 421 733 q 433 785 421 772 q 465 799 446 799 q 498 785 485 799 q 511 753 511 772 q 498 721 511 733 q 465 708 485 708 m 604 685 q 572 697 585 685 q 560 729 560 710 q 572 762 560 749 q 604 775 585 775 q 637 762 624 775 q 650 729 650 749 q 637 697 650 710 q 604 685 624 685 m 329 775 q 361 762 349 775 q 374 729 374 749 q 361 697 374 710 q 329 685 349 685 q 297 697 310 685 q 283 729 283 710 q 297 762 283 749 q 329 775 310 775 m 722 607 q 690 619 703 607 q 678 651 678 632 q 690 684 678 671 q 722 697 703 697 q 755 684 742 697 q 768 651 768 671 q 755 619 768 632 q 722 607 742 607 m 211 697 q 243 684 231 697 q 256 651 256 671 q 243 619 256 632 q 211 607 231 607 q 178 619 192 607 q 165 651 165 632 q 178 684 165 671 q 211 697 192 697 m 796 485 q 764 497 776 485 q 751 529 751 510 q 764 562 751 549 q 796 575 776 575 q 828 562 815 575 q 842 529 842 549 q 828 497 842 510 q 796 485 815 485 m 138 575 q 169 562 157 575 q 182 529 182 549 q 169 497 182 510 q 138 485 157 485 q 105 497 118 485 q 92 529 92 510 q 105 562 92 549 q 138 575 118 575 m 818 353 q 786 365 799 353 q 774 397 774 378 q 786 430 774 417 q 818 443 799 443 q 851 430 838 443 q 864 397 864 417 q 851 365 864 378 q 818 353 838 353 m 115 443 q 147 430 135 443 q 160 397 160 417 q 147 365 160 378 q 115 353 135 353 q 83 365 96 353 q 69 397 69 378 q 83 430 69 417 q 115 443 96 443 m 796 224 q 764 236 776 224 q 751 268 751 249 q 764 301 751 288 q 796 314 776 314 q 828 301 815 314 q 842 268 842 288 q 828 236 842 249 q 796 224 815 224 m 138 314 q 169 301 157 314 q 182 268 182 288 q 169 236 182 249 q 138 224 157 224 q 105 236 118 224 q 92 268 92 249 q 105 301 92 288 q 138 314 118 314 m 724 100 q 692 113 704 100 q 679 144 679 125 q 692 177 679 164 q 724 190 704 190 q 756 177 743 190 q 769 144 769 164 q 756 113 769 125 q 724 100 743 100 m 210 190 q 242 177 229 190 q 254 144 254 164 q 242 113 254 125 q 210 100 229 100 q 177 113 190 100 q 164 144 164 125 q 177 177 164 164 q 210 190 190 190 m 329 114 q 361 101 349 114 q 374 68 374 88 q 361 36 374 49 q 329 24 349 24 q 297 36 310 24 q 283 68 283 49 q 297 101 283 88 q 329 114 310 114 m 604 24 q 572 36 585 24 q 560 68 560 49 q 572 101 560 88 q 604 114 585 114 q 637 101 624 114 q 650 68 650 88 q 637 36 650 49 q 604 24 624 24 m 465 0 q 433 13 446 0 q 421 44 421 25 q 433 77 421 64 q 465 90 446 90 q 498 77 485 90 q 511 44 511 64 q 498 13 511 25 q 465 0 485 0 z "},"A":{"ha":988,"x_min":14,"x_max":974,"o":"m 490 642 l 400 385 l 585 385 l 490 642 m 621 944 l 974 25 l 725 0 l 657 186 l 331 186 l 265 0 l 14 0 l 368 944 l 621 944 z "},"B":{"ha":896,"x_min":97,"x_max":854,"o":"m 97 0 l 97 944 l 413 944 q 685 881 568 944 q 801 672 801 817 l 801 665 q 780 574 800 615 q 728 501 760 533 q 819 406 783 463 q 854 282 854 350 q 731 60 854 119 q 454 0 607 0 l 97 0 m 404 746 l 350 746 l 350 586 l 407 586 q 503 604 465 586 q 540 660 540 622 q 504 724 540 703 q 404 746 468 746 m 457 388 l 350 388 l 350 199 l 460 199 q 556 221 518 199 q 593 288 593 243 q 557 361 593 335 q 457 388 521 388 z "},"C":{"ha":842,"x_min":56,"x_max":800,"o":"m 715 714 q 601 748 640 740 q 515 756 563 756 q 374 677 431 756 q 317 469 317 599 q 376 263 317 336 q 525 189 436 189 q 622 203 576 189 q 704 240 668 218 l 800 51 q 667 0 744 18 q 518 -18 590 -18 q 172 118 288 -18 q 56 468 56 254 q 179 824 56 686 q 513 963 303 963 q 659 942 583 963 q 790 885 735 922 l 715 714 z "},"D":{"ha":999,"x_min":97,"x_max":957,"o":"m 97 0 l 97 944 l 511 944 q 843 812 729 944 q 957 478 957 679 q 831 128 957 257 q 506 0 704 0 l 97 0 m 499 746 l 350 746 l 350 199 l 489 199 q 636 268 576 199 q 696 478 696 338 q 645 670 696 594 q 499 746 594 746 z "},"E":{"ha":817,"x_min":97,"x_max":789,"o":"m 97 0 l 97 944 l 724 944 l 747 746 l 350 746 l 350 574 l 640 574 l 664 375 l 350 375 l 350 199 l 765 199 l 789 0 l 97 0 z "},"F":{"ha":747,"x_min":97,"x_max":733,"o":"m 664 357 l 350 357 l 350 0 l 97 0 l 97 943 l 710 943 l 733 744 l 350 744 l 350 556 l 640 556 l 664 357 z "},"G":{"ha":939,"x_min":56,"x_max":856,"o":"m 856 544 l 856 51 q 702 0 800 18 q 532 -18 604 -18 q 178 110 301 -18 q 56 468 56 238 q 193 831 56 700 q 540 963 331 963 q 701 942 611 963 q 846 885 790 922 l 771 714 q 643 748 696 740 q 543 756 590 756 q 388 685 458 756 q 317 469 317 614 q 383 253 317 317 q 539 189 450 189 q 581 191 558 189 q 628 197 604 193 l 628 360 l 465 360 l 443 544 l 856 544 z "},"H":{"ha":1044,"x_min":97,"x_max":947,"o":"m 694 0 l 694 369 l 350 369 l 350 0 l 97 0 l 97 944 l 350 953 l 350 568 l 694 568 l 694 944 l 947 944 l 947 0 l 694 0 z "},"I":{"ha":447,"x_min":97,"x_max":350,"o":"m 97 0 l 97 944 l 350 944 l 350 0 l 97 0 z "},"J":{"ha":451,"x_min":0,"x_max":368,"o":"m 115 301 l 115 944 l 368 944 l 368 228 q 309 67 368 122 q 103 -36 250 11 l 0 164 q 96 229 76 194 q 115 301 115 264 z "},"K":{"ha":986,"x_min":97,"x_max":986,"o":"m 97 0 l 97 944 l 350 944 l 350 617 l 729 965 l 925 824 l 604 524 l 986 0 l 665 0 l 424 353 l 350 283 l 350 0 l 97 0 z "},"L":{"ha":789,"x_min":97,"x_max":775,"o":"m 775 0 l 97 0 l 97 944 l 350 944 l 350 199 l 751 199 l 775 0 z "},"M":{"ha":1082,"x_min":97,"x_max":985,"o":"m 732 0 l 732 457 l 604 285 l 503 271 l 350 457 l 350 0 l 97 0 l 97 944 l 271 944 l 556 585 l 817 944 l 985 944 l 985 0 l 732 0 z "},"N":{"ha":1046,"x_min":97,"x_max":949,"o":"m 97 0 l 97 944 l 332 944 l 696 432 l 696 944 l 949 944 l 949 0 l 713 0 l 350 497 l 350 0 l 97 0 z "},"O":{"ha":1032,"x_min":56,"x_max":976,"o":"m 56 468 q 179 825 56 686 q 515 964 303 964 q 861 822 746 964 q 976 478 976 681 q 854 119 976 258 q 515 -19 732 -19 q 172 123 289 -19 q 56 468 56 265 m 315 469 q 361 271 315 350 q 514 192 407 192 q 664 263 611 192 q 717 478 717 335 q 670 674 717 596 q 518 753 624 753 q 369 675 424 753 q 315 469 315 597 z "},"P":{"ha":925,"x_min":97,"x_max":883,"o":"m 97 0 l 97 944 l 494 944 q 767 860 651 944 q 883 604 883 775 q 760 355 883 435 q 483 275 636 275 l 350 275 l 350 0 l 97 0 m 486 746 l 350 746 l 350 474 l 489 474 q 585 511 547 474 q 622 604 622 549 q 586 706 622 667 q 486 746 550 746 z "},"Q":{"ha":1032,"x_min":56,"x_max":976,"o":"m 56 468 q 179 825 56 686 q 515 964 303 964 q 861 822 746 964 q 976 478 976 681 q 952 300 976 382 q 883 154 928 218 l 968 63 l 813 -72 l 722 22 q 626 -8 678 3 q 515 -19 574 -19 q 172 123 289 -19 q 56 468 56 265 m 315 469 q 361 271 315 350 q 514 192 407 192 q 535 192 524 192 q 556 194 546 193 l 439 318 l 606 460 l 703 351 q 713 410 710 378 q 717 478 717 442 q 670 674 717 596 q 518 753 624 753 q 369 675 424 753 q 315 469 315 597 z "},"R":{"ha":978,"x_min":97,"x_max":964,"o":"m 486 746 l 350 746 l 350 496 l 489 496 q 585 531 547 496 q 622 622 622 567 q 586 715 622 685 q 486 746 550 746 m 97 0 l 97 944 l 494 944 q 767 869 651 944 q 883 622 883 793 q 848 474 883 536 q 756 372 813 411 l 964 0 l 671 0 l 518 297 l 350 297 l 350 0 l 97 0 z "},"S":{"ha":783,"x_min":57,"x_max":747,"o":"m 340 372 q 151 495 246 419 q 57 692 57 571 q 153 885 58 808 q 408 963 247 963 q 555 942 479 963 q 686 885 631 922 l 611 714 q 497 748 536 740 q 411 756 458 756 q 343 735 368 756 q 318 689 318 715 q 360 635 318 658 q 461 582 403 613 q 654 453 561 531 q 747 260 747 375 q 647 61 747 140 q 371 -18 546 -18 q 208 3 299 -18 q 61 58 117 25 l 144 249 q 247 208 181 226 q 364 189 313 189 q 455 213 424 189 q 486 263 486 236 q 440 317 486 288 q 340 372 394 346 z "},"T":{"ha":860,"x_min":14,"x_max":846,"o":"m 292 0 l 292 746 l 14 746 l 14 944 l 822 944 l 846 746 l 544 746 l 544 0 l 292 0 z "},"U":{"ha":1014,"x_min":83,"x_max":931,"o":"m 678 374 l 678 944 l 931 944 l 931 361 q 813 78 931 176 q 507 -19 696 -19 q 201 78 318 -19 q 83 361 83 176 l 83 944 l 336 944 l 336 374 q 384 238 336 285 q 507 192 432 192 q 630 238 582 192 q 678 374 678 285 z "},"V":{"ha":988,"x_min":14,"x_max":974,"o":"m 367 0 l 14 919 l 263 944 l 496 301 l 722 944 l 974 944 l 619 0 l 367 0 z "},"W":{"ha":1588,"x_min":14,"x_max":1574,"o":"m 994 0 l 790 576 l 592 0 l 339 0 l 14 919 l 263 944 l 468 308 l 667 944 l 918 944 l 1124 308 l 1322 944 l 1574 944 l 1247 0 l 994 0 z "},"X":{"ha":1038,"x_min":14,"x_max":1024,"o":"m 700 0 l 506 258 l 296 -17 l 15 21 l 346 469 l 14 911 l 314 949 l 506 692 l 708 944 l 1022 944 l 665 479 l 1024 0 l 700 0 z "},"Y":{"ha":929,"x_min":14,"x_max":915,"o":"m 335 0 l 335 372 l 14 919 l 276 944 l 460 604 l 656 944 l 915 944 l 588 369 l 588 0 l 335 0 z "},"Z":{"ha":839,"x_min":28,"x_max":811,"o":"m 811 765 l 329 206 l 319 199 l 783 199 l 807 0 l 56 0 l 28 178 l 499 738 l 510 746 l 92 746 l 68 944 l 785 944 l 811 765 z "},"a":{"ha":710,"x_min":42,"x_max":640,"o":"m 253 226 q 267 199 253 210 q 299 188 281 188 q 343 197 321 188 q 388 225 365 207 l 388 275 l 310 275 q 269 262 285 275 q 253 226 253 249 m 64 633 q 197 677 117 657 q 361 697 278 697 q 569 621 499 697 q 640 417 640 544 l 640 0 l 528 0 l 482 51 q 401 3 451 21 q 294 -15 351 -15 q 104 49 167 -15 q 42 217 42 113 q 115 377 42 326 q 306 428 189 428 l 386 428 q 357 475 381 458 q 299 492 333 492 q 217 480 264 492 q 131 451 169 468 l 64 633 z "},"b":{"ha":849,"x_min":83,"x_max":807,"o":"m 83 0 l 83 965 l 336 981 l 336 661 q 402 686 363 675 q 483 697 442 697 q 726 597 646 697 q 807 347 807 497 q 727 90 807 196 q 469 -15 647 -15 q 355 8 413 -15 q 253 65 297 32 l 211 0 l 83 0 m 546 342 q 513 447 546 401 q 419 492 481 492 q 379 486 404 492 q 336 472 354 481 l 336 232 q 385 202 356 214 q 440 190 414 190 q 522 241 497 190 q 546 342 546 292 z "},"c":{"ha":676,"x_min":42,"x_max":640,"o":"m 569 456 q 500 484 529 476 q 435 492 471 492 q 343 450 383 492 q 303 336 303 408 q 343 228 303 265 q 435 190 383 190 q 499 198 468 190 q 569 226 529 206 l 640 53 q 517 -4 582 7 q 410 -15 451 -15 q 144 76 246 -15 q 42 336 42 167 q 144 601 42 506 q 410 697 246 697 q 517 686 451 697 q 640 629 582 675 l 569 456 z "},"d":{"ha":849,"x_min":42,"x_max":765,"o":"m 303 340 q 335 235 303 281 q 429 190 368 190 q 469 196 444 190 q 513 210 494 201 l 513 449 q 463 479 493 467 q 408 492 433 492 q 327 441 351 492 q 303 340 303 390 m 765 981 l 765 0 l 638 0 l 593 69 q 508 13 563 42 q 365 -15 453 -15 q 122 85 203 -15 q 42 335 42 185 q 122 592 42 486 q 379 697 201 697 q 447 688 413 697 q 513 665 481 679 l 513 965 l 765 981 z "},"e":{"ha":768,"x_min":42,"x_max":726,"o":"m 42 336 q 147 601 42 506 q 404 697 251 697 q 646 593 565 697 q 726 347 726 489 l 726 260 l 317 260 q 367 204 333 221 q 449 188 401 188 q 540 196 493 188 q 625 224 586 204 l 696 53 q 551 -3 638 10 q 424 -15 465 -15 q 151 69 260 -15 q 42 336 42 153 m 485 413 q 464 465 483 435 q 397 494 444 494 q 341 473 363 494 q 310 413 319 451 l 485 413 z "},"f":{"ha":654,"x_min":28,"x_max":654,"o":"m 601 428 l 392 428 l 392 0 l 139 0 l 139 428 l 28 428 l 28 626 l 139 626 l 139 708 q 239 910 139 843 q 468 976 339 976 q 573 958 517 976 q 654 917 629 939 l 582 744 q 531 765 558 758 q 485 771 503 771 q 416 747 440 771 q 392 681 392 722 l 392 626 l 578 626 l 601 428 z "},"g":{"ha":849,"x_min":42,"x_max":765,"o":"m 513 210 l 513 449 q 463 479 493 467 q 408 492 433 492 q 327 441 351 492 q 303 340 303 390 q 335 235 303 281 q 429 190 368 190 q 469 196 444 190 q 513 210 494 201 m 765 672 l 765 -7 q 669 -228 765 -153 q 394 -304 572 -304 q 265 -287 351 -304 q 114 -226 179 -269 l 190 -49 q 303 -91 258 -82 q 390 -100 349 -100 q 473 -83 433 -100 q 513 -35 513 -67 l 513 14 q 447 -7 483 1 q 365 -15 411 -15 q 122 85 203 -15 q 42 335 42 185 q 122 592 42 486 q 379 697 201 697 q 494 673 436 697 q 596 617 551 649 l 639 672 l 765 672 z "},"h":{"ha":867,"x_min":83,"x_max":797,"o":"m 83 0 l 83 965 l 336 981 l 336 653 q 431 684 378 671 q 532 697 483 697 q 736 617 675 697 q 797 417 797 538 l 797 0 l 544 0 l 544 411 q 521 471 544 450 q 463 492 497 492 q 403 479 439 492 q 336 453 367 467 l 336 0 l 83 0 z "},"i":{"ha":419,"x_min":72,"x_max":347,"o":"m 208 765 q 113 806 153 765 q 72 901 72 846 q 113 999 72 958 q 208 1040 153 1040 q 306 999 265 1040 q 347 901 347 958 q 306 806 347 846 q 208 765 265 765 m 83 0 l 83 674 l 336 674 l 336 0 l 83 0 z "},"j":{"ha":419,"x_min":-50,"x_max":347,"o":"m 208 765 q 113 806 153 765 q 72 901 72 846 q 113 999 72 958 q 208 1040 153 1040 q 306 999 265 1040 q 347 901 347 958 q 306 806 347 846 q 208 765 265 765 m 336 674 l 336 3 q 267 -164 336 -106 q 50 -269 197 -222 l -50 -87 q 54 -31 25 -61 q 83 40 83 0 l 83 674 l 336 674 z "},"k":{"ha":788,"x_min":83,"x_max":788,"o":"m 336 217 l 336 0 l 83 0 l 83 965 l 336 981 l 336 481 l 588 693 l 739 519 l 553 379 l 788 0 l 515 0 l 378 247 l 336 217 z "},"l":{"ha":419,"x_min":83,"x_max":336,"o":"m 83 0 l 83 965 l 336 981 l 336 0 l 83 0 z "},"m":{"ha":1272,"x_min":83,"x_max":1203,"o":"m 707 621 q 810 671 749 644 q 951 697 872 697 q 1143 617 1083 697 q 1203 417 1203 538 l 1203 0 l 950 0 l 950 411 q 931 471 950 450 q 882 492 911 492 q 828 478 858 492 q 768 451 797 465 q 769 434 768 443 q 769 417 769 425 l 769 0 l 517 0 l 517 411 q 497 471 517 450 q 449 492 478 492 q 397 479 428 492 q 336 453 365 467 l 336 0 l 83 0 l 83 672 l 210 672 l 263 614 q 369 668 304 639 q 518 697 433 697 q 629 676 582 697 q 707 621 676 656 z "},"n":{"ha":867,"x_min":83,"x_max":797,"o":"m 263 614 q 376 668 306 639 q 532 697 447 697 q 736 617 675 697 q 797 417 797 538 l 797 0 l 544 0 l 544 411 q 521 471 544 450 q 463 492 497 492 q 403 479 439 492 q 336 453 367 467 l 336 0 l 83 0 l 83 672 l 210 672 l 263 614 z "},"o":{"ha":847,"x_min":42,"x_max":806,"o":"m 42 340 q 153 603 42 510 q 424 697 265 697 q 698 606 590 697 q 806 333 806 514 q 693 74 806 164 q 418 -15 581 -15 q 149 72 256 -15 q 42 340 42 160 m 303 340 q 333 231 303 272 q 421 190 364 190 q 513 226 481 190 q 544 333 544 263 q 514 447 544 401 q 426 492 483 492 q 335 451 367 492 q 303 340 303 411 z "},"p":{"ha":849,"x_min":83,"x_max":807,"o":"m 546 342 q 513 447 546 401 q 419 492 481 492 q 372 485 393 492 q 336 469 351 478 l 336 232 q 385 202 356 214 q 440 190 414 190 q 522 241 497 190 q 546 342 546 292 m 83 -304 l 83 672 l 210 672 l 253 614 q 362 676 304 654 q 483 697 419 697 q 726 597 646 697 q 807 347 807 497 q 727 90 807 196 q 469 -15 647 -15 q 401 -6 436 -15 q 336 17 367 3 l 336 -290 l 83 -304 z "},"q":{"ha":849,"x_min":42,"x_max":765,"o":"m 765 672 l 765 -289 l 513 -304 l 513 14 q 447 -7 483 1 q 365 -15 411 -15 q 122 85 203 -15 q 42 335 42 185 q 122 592 42 486 q 379 697 201 697 q 494 673 436 697 q 596 617 551 649 l 639 672 l 765 672 m 303 340 q 335 235 303 281 q 429 190 368 190 q 469 196 444 190 q 513 210 494 201 l 513 449 q 463 479 493 467 q 408 492 433 492 q 327 441 351 492 q 303 340 303 390 z "},"r":{"ha":549,"x_min":83,"x_max":535,"o":"m 83 0 l 83 672 l 210 672 l 271 604 q 369 653 313 632 q 483 674 426 674 l 535 471 q 432 457 485 471 q 336 410 379 443 l 336 0 l 83 0 z "},"s":{"ha":657,"x_min":50,"x_max":618,"o":"m 325 468 q 335 452 325 458 q 382 433 346 446 q 542 353 465 404 q 618 210 618 303 q 548 44 618 104 q 338 -15 478 -15 q 202 8 296 -15 q 50 78 108 32 l 121 251 q 219 210 161 231 q 313 190 276 190 q 346 199 335 190 q 357 214 357 207 q 346 231 357 224 q 304 249 335 239 q 142 328 221 278 q 64 472 64 379 q 143 638 64 578 q 363 697 222 697 q 481 677 404 697 q 617 611 558 657 l 546 438 q 461 475 506 458 q 381 492 417 492 q 338 483 350 492 q 325 468 325 475 z "},"t":{"ha":647,"x_min":14,"x_max":633,"o":"m 633 44 q 552 3 608 22 q 447 -15 496 -15 q 218 51 318 -15 q 118 253 118 118 l 118 447 l 14 447 l 14 646 l 118 646 l 118 828 l 371 863 l 371 646 l 533 646 l 557 447 l 371 447 l 371 281 q 395 215 371 239 q 464 190 419 190 q 510 197 482 190 q 561 217 538 203 l 633 44 z "},"u":{"ha":853,"x_min":69,"x_max":769,"o":"m 590 57 q 480 4 547 33 q 328 -25 413 -25 q 127 55 185 -25 q 69 256 69 135 l 69 672 l 322 672 l 322 261 q 342 201 322 222 q 397 181 363 181 q 453 193 419 181 q 517 219 486 206 l 517 672 l 769 672 l 769 0 l 643 0 l 590 57 z "},"v":{"ha":790,"x_min":14,"x_max":776,"o":"m 272 0 l 14 649 l 261 674 l 396 293 l 525 674 l 776 674 l 511 0 l 272 0 z "},"w":{"ha":1194,"x_min":14,"x_max":1181,"o":"m 713 0 l 593 349 l 475 0 l 244 0 l 14 649 l 261 674 l 369 292 l 476 674 l 714 674 l 828 292 l 929 674 l 1181 674 l 943 0 l 713 0 z "},"x":{"ha":829,"x_min":14,"x_max":815,"o":"m 532 0 l 414 144 l 299 0 l 14 0 l 261 335 l 14 642 l 275 676 l 406 511 l 536 674 l 815 674 l 558 321 l 815 0 l 532 0 z "},"y":{"ha":790,"x_min":14,"x_max":776,"o":"m 261 -3 l 267 13 l 14 649 l 261 674 l 396 293 l 525 674 l 776 674 l 481 -79 q 361 -222 449 -161 q 174 -304 274 -282 l 89 -108 q 194 -60 139 -87 q 261 -3 250 -33 z "},"z":{"ha":669,"x_min":28,"x_max":633,"o":"m 58 674 l 596 674 l 608 533 l 350 199 l 610 199 l 633 0 l 58 0 l 28 131 l 278 467 l 290 475 l 82 475 l 58 674 z "},"ﬁ":{"ha":1074,"x_min":28,"x_max":1001,"o":"m 601 428 l 392 428 l 392 0 l 139 0 l 139 428 l 28 428 l 28 626 l 139 626 l 139 708 q 239 910 139 843 q 468 976 339 976 q 573 958 517 976 q 654 917 629 939 l 582 744 q 531 765 558 758 q 485 771 503 771 q 416 747 440 771 q 392 681 392 722 l 392 626 l 578 626 l 601 428 m 863 765 q 767 806 807 765 q 726 901 726 846 q 767 999 726 958 q 863 1040 807 1040 q 960 999 919 1040 q 1001 901 1001 958 q 960 806 1001 846 q 863 765 919 765 m 738 0 l 738 674 l 990 674 l 990 0 l 738 0 z "},"ﬂ":{"ha":1074,"x_min":28,"x_max":990,"o":"m 601 428 l 392 428 l 392 0 l 139 0 l 139 428 l 28 428 l 28 626 l 139 626 l 139 708 q 239 910 139 843 q 468 976 339 976 q 573 958 517 976 q 654 917 629 939 l 582 744 q 531 765 558 758 q 485 771 503 771 q 416 747 440 771 q 392 681 392 722 l 392 626 l 578 626 l 601 428 m 738 0 l 738 965 l 990 981 l 990 0 l 738 0 z "},"`":{"ha":381,"x_min":14,"x_max":367,"o":"m 14 1093 l 264 1093 l 367 817 l 172 817 l 14 1093 z "},"¨":{"ha":553,"x_min":14,"x_max":539,"o":"m 129 1068 q 213 1034 179 1068 q 246 953 246 1000 q 213 871 246 904 q 129 838 179 838 q 49 871 83 838 q 14 953 14 904 q 49 1034 14 1000 q 129 1068 83 1068 m 422 1068 q 506 1034 472 1068 q 539 953 539 1000 q 506 871 539 904 q 422 838 472 838 q 342 871 376 838 q 307 953 307 904 q 342 1034 307 1000 q 422 1068 376 1068 z "},"¯":{"ha":431,"x_min":14,"x_max":417,"o":"m 14 1050 l 417 1050 l 417 851 l 14 851 l 14 1050 z "},"´":{"ha":381,"x_min":14,"x_max":367,"o":"m 117 1093 l 367 1093 l 208 817 l 14 817 l 117 1093 z "},"ˆ":{"ha":660,"x_min":14,"x_max":646,"o":"m 260 817 l 14 817 l 256 1093 l 404 1093 l 646 817 l 406 817 l 333 903 l 260 817 z "},"ˇ":{"ha":660,"x_min":14,"x_max":646,"o":"m 14 1093 l 260 1093 l 333 1007 l 406 1093 l 646 1093 l 404 817 l 256 817 l 14 1093 z "},"˘":{"ha":528,"x_min":14,"x_max":514,"o":"m 514 1079 q 446 889 514 960 q 264 817 378 818 q 82 889 150 818 q 14 1079 14 960 l 193 1079 q 212 1023 193 1044 q 264 1001 231 1001 q 316 1023 297 1001 q 335 1079 335 1044 l 514 1079 z "},"˙":{"ha":281,"x_min":14,"x_max":267,"o":"m 142 1081 q 232 1043 197 1081 q 267 953 267 1006 q 232 861 267 897 q 142 825 197 825 q 51 861 89 825 q 14 953 14 897 q 51 1043 14 1006 q 142 1081 89 1081 z "},"˚":{"ha":342,"x_min":0,"x_max":342,"o":"m 171 1147 q 290 1100 239 1147 q 342 985 342 1053 q 290 869 342 914 q 171 825 239 825 q 51 869 101 825 q 0 985 0 914 q 51 1100 0 1053 q 171 1147 101 1147 m 174 943 q 201 956 190 943 q 213 985 213 968 q 201 1013 213 1001 q 174 1024 190 1024 q 144 1013 157 1024 q 132 985 132 1001 q 144 956 132 968 q 174 943 157 943 z "},"˜":{"ha":543,"x_min":14,"x_max":529,"o":"m 189 833 l 14 833 q 70 1007 14 958 q 190 1056 126 1056 q 266 1032 233 1056 q 329 1008 299 1008 q 350 1022 340 1008 q 360 1049 360 1036 l 529 1049 q 476 875 529 924 q 358 826 422 826 q 283 850 315 826 q 219 874 250 874 q 199 860 208 874 q 189 833 189 846 z "},"˝":{"ha":671,"x_min":14,"x_max":657,"o":"m 421 1093 l 657 1093 l 499 817 l 318 817 l 421 1093 m 117 1093 l 353 1093 l 194 817 l 14 817 l 117 1093 z "},"˛":{"ha":404,"x_min":14,"x_max":390,"o":"m 49 7 l 249 7 q 219 -47 235 -11 q 204 -110 204 -83 q 215 -140 204 -126 q 244 -154 226 -154 q 272 -149 258 -154 q 306 -126 286 -144 l 390 -268 q 321 -315 367 -296 q 219 -333 275 -333 q 66 -270 118 -333 q 14 -129 14 -207 q 24 -61 14 -103 q 49 7 35 -19 z "},"¸":{"ha":385,"x_min":14,"x_max":371,"o":"m 129 18 l 304 18 l 276 -54 q 349 -116 328 -71 q 371 -197 371 -161 q 310 -320 371 -276 q 175 -364 250 -364 q 92 -349 135 -364 q 14 -307 49 -333 l 67 -187 q 103 -201 81 -193 q 144 -208 125 -208 q 175 -202 163 -208 q 188 -183 188 -196 q 157 -151 188 -164 q 69 -131 126 -137 l 129 18 z "},"":{"ha":296,"x_min":14,"x_max":282,"o":"m 154 -29 q 244 -70 207 -29 q 282 -178 282 -111 q 219 -336 282 -260 q 64 -447 156 -412 l 14 -336 q 57 -304 33 -325 q 86 -265 81 -283 q 44 -221 61 -250 q 26 -157 26 -192 q 63 -69 26 -110 q 154 -29 100 -29 z "},"Þ":{"ha":925,"x_min":97,"x_max":883,"o":"m 97 0 l 97 944 l 350 944 l 350 808 l 494 808 q 767 724 651 808 q 883 468 883 639 q 760 219 883 299 q 483 139 636 139 l 350 139 l 350 0 l 97 0 m 486 610 l 350 610 l 350 338 l 489 338 q 585 375 547 338 q 622 468 622 413 q 586 570 622 531 q 486 610 550 610 z "},"Ð":{"ha":1010,"x_min":0,"x_max":968,"o":"m 0 574 l 108 574 l 108 944 l 522 944 q 854 812 740 944 q 968 478 968 679 q 842 128 968 257 q 517 0 715 0 l 108 0 l 108 375 l 24 375 l 0 574 m 510 746 l 361 746 l 361 574 l 513 574 l 536 375 l 361 375 l 361 199 l 500 199 q 647 268 588 199 q 707 478 707 338 q 656 670 707 594 q 510 746 606 746 z "},"Æ":{"ha":1371,"x_min":14,"x_max":1343,"o":"m 651 554 l 525 376 l 651 376 l 651 554 m 1343 0 l 651 0 l 651 178 l 385 178 l 257 -4 l 14 32 l 651 944 l 1278 944 l 1301 746 l 904 746 l 904 574 l 1194 574 l 1218 375 l 904 375 l 904 199 l 1319 199 l 1343 0 z "},"Đ":{"ha":1010,"x_min":0,"x_max":968,"o":"m 0 574 l 108 574 l 108 944 l 522 944 q 854 812 740 944 q 968 478 968 679 q 842 128 968 257 q 517 0 715 0 l 108 0 l 108 375 l 24 375 l 0 574 m 510 746 l 361 746 l 361 574 l 513 574 l 536 375 l 361 375 l 361 199 l 500 199 q 647 268 588 199 q 707 478 707 338 q 656 670 707 594 q 510 746 606 746 z "},"Ł":{"ha":849,"x_min":0,"x_max":835,"o":"m 157 0 l 157 275 l 99 240 l 0 425 l 157 521 l 157 944 l 410 944 l 410 675 l 547 760 l 649 575 l 410 429 l 410 199 l 811 199 l 835 0 l 157 0 z "},"Œ":{"ha":1435,"x_min":56,"x_max":1407,"o":"m 715 713 q 635 743 676 731 q 535 756 594 756 q 386 681 456 756 q 317 469 317 607 q 376 263 317 336 q 525 189 436 189 q 624 203 572 189 q 715 243 675 217 l 715 713 m 715 0 l 715 13 q 617 -10 668 -1 q 518 -18 565 -18 q 172 118 288 -18 q 56 468 56 254 q 179 824 56 686 q 513 963 303 963 q 615 952 561 963 q 715 924 668 942 l 715 944 l 1342 944 l 1365 746 l 968 746 l 968 574 l 1258 574 l 1282 375 l 968 375 l 968 199 l 1383 199 l 1407 0 l 715 0 z "},"Ø":{"ha":1032,"x_min":56,"x_max":976,"o":"m 56 468 q 179 825 56 686 q 515 964 303 964 q 861 822 746 964 q 976 478 976 681 q 854 119 976 258 q 515 -19 732 -19 q 172 123 289 -19 q 56 468 56 265 m 518 753 q 369 675 424 753 q 315 469 315 597 q 324 370 315 417 q 350 289 332 324 l 543 751 q 531 752 538 751 q 518 753 524 753 m 500 192 l 514 192 q 664 263 611 192 q 717 478 717 335 q 710 564 717 524 q 689 638 703 604 l 500 192 z "},"ß":{"ha":911,"x_min":83,"x_max":875,"o":"m 83 656 q 183 886 83 797 q 449 975 282 975 q 703 905 593 975 q 814 699 814 835 q 795 597 814 653 q 735 506 776 540 q 835 416 794 482 q 875 278 875 350 q 782 75 875 150 q 539 0 689 0 l 410 0 l 410 207 l 515 207 q 588 231 557 207 q 618 297 618 254 q 590 372 618 346 q 526 397 563 397 l 417 397 l 417 578 l 454 578 q 532 609 503 578 q 561 674 561 640 q 536 735 561 708 q 457 763 511 763 q 376 731 417 763 q 336 635 336 699 l 336 0 l 83 0 l 83 656 z "},"ð":{"ha":857,"x_min":42,"x_max":801,"o":"m 624 849 l 574 810 q 739 600 676 718 q 801 371 801 482 q 682 79 801 176 q 388 -18 563 -18 q 136 78 231 -18 q 42 296 42 174 q 138 495 42 415 q 375 575 233 575 q 428 565 397 575 q 493 538 460 554 q 442 603 471 571 q 382 661 414 635 l 279 582 l 153 703 l 228 761 q 184 781 206 772 q 147 793 163 789 l 267 968 q 347 945 307 960 q 424 913 386 931 l 504 975 l 624 849 m 303 290 q 326 220 303 254 q 397 186 350 186 q 485 222 447 186 q 536 333 524 258 q 479 378 513 358 q 413 399 446 399 q 330 367 357 399 q 303 290 303 336 z "},"þ":{"ha":849,"x_min":83,"x_max":807,"o":"m 546 342 q 513 447 546 401 q 419 492 481 492 q 372 485 393 492 q 336 469 351 478 l 336 232 q 385 202 356 214 q 440 190 414 190 q 522 241 497 190 q 546 342 546 292 m 83 -304 l 83 944 l 336 953 l 336 665 q 408 689 371 681 q 483 697 444 697 q 726 597 646 697 q 807 347 807 497 q 727 90 807 196 q 469 -15 647 -15 q 401 -6 436 -15 q 336 17 367 3 l 336 -290 l 83 -304 z "},"ƒ":{"ha":654,"x_min":-124,"x_max":654,"o":"m 392 97 q 292 -104 392 -37 q 63 -171 192 -171 q -42 -152 14 -171 q -124 -111 -99 -133 l -51 61 q 0 41 -28 47 q 46 35 28 35 q 115 59 90 35 q 139 125 139 83 l 139 428 l 28 428 l 28 626 l 139 626 l 139 708 q 239 910 139 843 q 468 976 339 976 q 573 958 517 976 q 654 917 629 939 l 582 744 q 531 765 558 758 q 485 771 503 771 q 416 747 440 771 q 392 681 392 722 l 392 626 l 578 626 l 601 428 l 392 428 l 392 97 z "},"æ":{"ha":1126,"x_min":42,"x_max":1085,"o":"m 550 638 q 649 682 594 667 q 763 697 703 697 q 1004 593 924 697 q 1085 347 1085 489 l 1085 260 l 675 260 q 726 204 692 221 q 807 188 760 188 q 898 196 851 188 q 983 224 944 204 l 1054 53 q 910 -3 996 10 q 782 -15 824 -15 q 627 6 699 -15 q 504 71 556 26 q 422 11 474 38 q 294 -15 369 -15 q 104 49 167 -15 q 42 217 42 113 q 115 377 42 326 q 306 428 189 428 l 386 428 q 357 475 381 458 q 299 492 333 492 q 217 480 264 492 q 131 451 169 468 l 64 633 q 197 677 117 657 q 361 697 278 697 q 468 682 421 697 q 550 638 515 667 m 843 413 q 822 465 842 435 q 756 494 803 494 q 699 473 721 494 q 668 413 678 451 l 843 413 m 299 188 q 365 205 338 188 q 410 240 392 222 q 406 257 408 249 q 403 275 404 265 l 310 275 q 269 262 285 275 q 253 226 253 249 q 267 199 253 210 q 299 188 281 188 z "},"đ":{"ha":849,"x_min":42,"x_max":860,"o":"m 303 340 q 335 235 303 281 q 429 190 368 190 q 469 196 444 190 q 513 210 494 201 l 513 449 q 463 479 493 467 q 408 492 433 492 q 327 441 351 492 q 303 340 303 390 m 371 893 l 513 893 l 513 965 l 765 981 l 765 893 l 836 893 l 860 736 l 765 736 l 765 0 l 638 0 l 593 69 q 508 13 563 42 q 365 -15 453 -15 q 122 85 203 -15 q 42 335 42 185 q 122 592 42 486 q 379 697 201 697 q 447 688 413 697 q 513 665 481 679 l 513 736 l 394 736 l 371 893 z "},"œ":{"ha":1253,"x_min":42,"x_max":1211,"o":"m 656 622 q 762 678 703 658 q 889 697 821 697 q 1131 593 1050 697 q 1211 347 1211 489 l 1211 260 l 801 260 q 852 204 818 221 q 933 188 886 188 q 1024 196 978 188 q 1110 224 1071 204 l 1181 53 q 1036 -3 1122 10 q 908 -15 950 -15 q 767 2 833 -15 q 651 56 701 19 q 546 3 601 21 q 410 -15 490 -15 q 144 76 246 -15 q 42 336 42 167 q 144 601 42 506 q 410 697 246 697 q 553 677 497 697 q 656 622 608 657 m 969 413 q 949 465 968 435 q 882 494 929 494 q 826 473 847 494 q 794 413 804 451 l 969 413 m 546 467 q 490 486 515 481 q 435 492 465 492 q 343 450 383 492 q 303 336 303 408 q 343 228 303 265 q 435 190 383 190 q 487 194 461 190 q 543 213 513 199 q 531 270 535 239 q 526 336 526 301 q 531 404 526 371 q 546 467 536 438 z "},"ĺ":{"ha":419,"x_min":83,"x_max":456,"o":"m 213 1294 l 456 1294 l 301 1025 l 113 1025 l 213 1294 m 83 0 l 83 965 l 336 981 l 336 0 l 83 0 z "},"ł":{"ha":536,"x_min":0,"x_max":536,"o":"m 136 0 l 136 272 l 56 217 l 0 439 l 136 533 l 136 965 l 389 981 l 389 708 l 479 771 l 536 549 l 389 447 l 389 0 l 136 0 z "},"ı":{"ha":419,"x_min":83,"x_max":336,"o":"m 83 0 l 83 674 l 336 674 l 336 0 l 83 0 z "},"ø":{"ha":847,"x_min":42,"x_max":806,"o":"m 42 340 q 153 603 42 510 q 424 697 265 697 q 698 606 590 697 q 806 333 806 514 q 693 74 806 164 q 418 -15 581 -15 q 149 72 256 -15 q 42 340 42 160 m 426 500 q 329 456 367 500 q 292 340 292 411 q 294 306 292 322 q 301 276 296 290 l 426 500 m 424 183 q 519 224 482 185 q 556 333 556 264 q 553 365 556 349 q 546 394 550 381 l 424 183 z "},"ģ":{"ha":849,"x_min":42,"x_max":765,"o":"m 418 751 q 328 792 365 751 q 290 900 290 833 q 353 1058 290 982 q 508 1169 417 1135 l 558 1058 q 515 1026 539 1047 q 486 988 492 1006 q 528 943 511 972 q 546 879 546 914 q 509 792 546 832 q 418 751 472 751 m 513 210 l 513 449 q 463 479 493 467 q 408 492 433 492 q 327 441 351 492 q 303 340 303 390 q 335 235 303 281 q 429 190 368 190 q 469 196 444 190 q 513 210 494 201 m 765 672 l 765 -7 q 669 -228 765 -153 q 394 -304 572 -304 q 265 -287 351 -304 q 114 -226 179 -269 l 190 -49 q 303 -91 258 -82 q 390 -100 349 -100 q 473 -83 433 -100 q 513 -35 513 -67 l 513 14 q 447 -7 483 1 q 365 -15 411 -15 q 122 85 203 -15 q 42 335 42 185 q 122 592 42 486 q 379 697 201 697 q 494 673 436 697 q 596 617 551 649 l 639 672 l 765 672 z "},"À":{"ha":988,"x_min":14,"x_max":974,"o":"m 247 1294 l 490 1294 l 590 1025 l 401 1025 l 247 1294 m 490 642 l 400 385 l 585 385 l 490 642 m 621 944 l 974 25 l 725 0 l 657 186 l 331 186 l 265 0 l 14 0 l 368 944 l 621 944 z "},"Á":{"ha":988,"x_min":14,"x_max":974,"o":"m 483 1294 l 726 1294 l 572 1025 l 383 1025 l 483 1294 m 490 642 l 400 385 l 585 385 l 490 642 m 621 944 l 974 25 l 725 0 l 657 186 l 331 186 l 265 0 l 14 0 l 368 944 l 621 944 z "},"Â":{"ha":988,"x_min":14,"x_max":974,"o":"m 408 1026 l 163 1026 l 404 1303 l 553 1303 l 794 1026 l 554 1026 l 482 1113 l 408 1026 m 490 642 l 400 385 l 585 385 l 490 642 m 621 944 l 974 25 l 725 0 l 657 186 l 331 186 l 265 0 l 14 0 l 368 944 l 621 944 z "},"Ã":{"ha":988,"x_min":14,"x_max":974,"o":"m 406 1042 l 231 1042 q 287 1215 231 1167 q 407 1264 343 1264 q 483 1240 450 1264 q 546 1217 515 1217 q 567 1231 557 1217 q 576 1257 576 1244 l 746 1257 q 692 1083 746 1132 q 575 1035 639 1035 q 499 1058 532 1035 q 436 1082 467 1082 q 415 1068 425 1082 q 406 1042 406 1054 m 490 642 l 400 385 l 585 385 l 490 642 m 621 944 l 974 25 l 725 0 l 657 186 l 331 186 l 265 0 l 14 0 l 368 944 l 621 944 z "},"Ä":{"ha":988,"x_min":14,"x_max":974,"o":"m 342 1276 q 425 1242 392 1276 q 458 1161 458 1208 q 425 1079 458 1113 q 342 1046 392 1046 q 261 1079 296 1046 q 226 1161 226 1113 q 261 1242 226 1208 q 342 1276 296 1276 m 635 1276 q 718 1242 685 1276 q 751 1161 751 1208 q 718 1079 751 1113 q 635 1046 685 1046 q 554 1079 589 1046 q 519 1161 519 1113 q 554 1242 519 1208 q 635 1276 589 1276 m 490 642 l 400 385 l 585 385 l 490 642 m 621 944 l 974 25 l 725 0 l 657 186 l 331 186 l 265 0 l 14 0 l 368 944 l 621 944 z "},"Å":{"ha":988,"x_min":14,"x_max":974,"o":"m 490 1356 q 610 1308 558 1356 q 661 1193 661 1261 q 610 1078 661 1122 q 490 1033 558 1033 q 370 1078 421 1033 q 319 1193 319 1122 q 370 1308 319 1261 q 490 1356 421 1356 m 493 1151 q 521 1164 510 1151 q 532 1193 532 1176 q 521 1221 532 1210 q 493 1232 510 1232 q 464 1221 476 1232 q 451 1193 451 1210 q 464 1164 451 1176 q 493 1151 476 1151 m 490 642 l 400 385 l 585 385 l 490 642 m 621 944 l 974 25 l 725 0 l 657 186 l 331 186 l 265 0 l 14 0 l 368 944 l 621 944 z "},"Ă":{"ha":988,"x_min":14,"x_max":974,"o":"m 740 1289 q 672 1099 740 1169 q 490 1026 604 1028 q 308 1099 376 1028 q 240 1289 240 1169 l 419 1289 q 438 1233 419 1254 q 490 1211 457 1211 q 542 1233 524 1211 q 561 1289 561 1254 l 740 1289 m 490 642 l 400 385 l 585 385 l 490 642 m 621 944 l 974 25 l 725 0 l 657 186 l 331 186 l 265 0 l 14 0 l 368 944 l 621 944 z "},"Ą":{"ha":988,"x_min":14,"x_max":1061,"o":"m 621 944 l 974 25 q 910 -37 946 10 q 875 -110 875 -83 q 886 -140 875 -126 q 915 -154 897 -154 q 943 -149 929 -154 q 976 -126 957 -144 l 1061 -268 q 992 -315 1038 -296 q 890 -333 946 -333 q 737 -270 789 -333 q 685 -129 685 -207 q 697 -61 685 -103 q 725 0 708 -19 l 657 186 l 331 186 l 265 0 l 14 0 l 368 944 l 621 944 m 490 642 l 400 385 l 585 385 l 490 642 z "},"Ā":{"ha":988,"x_min":14,"x_max":974,"o":"m 288 1258 l 690 1258 l 690 1060 l 288 1060 l 288 1258 m 490 642 l 400 385 l 585 385 l 490 642 m 621 944 l 974 25 l 725 0 l 657 186 l 331 186 l 265 0 l 14 0 l 368 944 l 621 944 z "},"Ç":{"ha":842,"x_min":56,"x_max":800,"o":"m 715 714 q 601 748 640 740 q 515 756 563 756 q 374 677 431 756 q 317 469 317 599 q 376 263 317 336 q 525 189 436 189 q 622 203 576 189 q 704 240 668 218 l 800 51 q 708 11 761 28 q 601 -12 656 -6 l 586 -54 q 659 -116 638 -71 q 681 -197 681 -161 q 620 -320 681 -276 q 485 -364 560 -364 q 401 -349 444 -364 q 324 -307 358 -333 l 376 -187 q 413 -201 390 -193 q 454 -208 435 -208 q 485 -202 472 -208 q 497 -183 497 -196 q 467 -151 497 -164 q 379 -131 436 -137 l 426 -11 q 149 145 242 15 q 56 468 56 275 q 179 824 56 686 q 513 963 303 963 q 659 942 583 963 q 790 885 735 922 l 715 714 z "},"Ć":{"ha":842,"x_min":56,"x_max":800,"o":"m 440 1294 l 683 1294 l 529 1025 l 340 1025 l 440 1294 m 715 714 q 601 748 640 740 q 515 756 563 756 q 374 677 431 756 q 317 469 317 599 q 376 263 317 336 q 525 189 436 189 q 622 203 576 189 q 704 240 668 218 l 800 51 q 667 0 744 18 q 518 -18 590 -18 q 172 118 288 -18 q 56 468 56 254 q 179 824 56 686 q 513 963 303 963 q 659 942 583 963 q 790 885 735 922 l 715 714 z "},"Č":{"ha":842,"x_min":56,"x_max":828,"o":"m 196 1303 l 442 1303 l 515 1217 l 588 1303 l 828 1303 l 586 1026 l 438 1026 l 196 1303 m 715 714 q 601 748 640 740 q 515 756 563 756 q 374 677 431 756 q 317 469 317 599 q 376 263 317 336 q 525 189 436 189 q 622 203 576 189 q 704 240 668 218 l 800 51 q 667 0 744 18 q 518 -18 590 -18 q 172 118 288 -18 q 56 468 56 254 q 179 824 56 686 q 513 963 303 963 q 659 942 583 963 q 790 885 735 922 l 715 714 z "},"Ď":{"ha":999,"x_min":97,"x_max":957,"o":"m 146 1303 l 392 1303 l 465 1217 l 538 1303 l 778 1303 l 536 1026 l 388 1026 l 146 1303 m 97 0 l 97 944 l 511 944 q 843 812 729 944 q 957 478 957 679 q 831 128 957 257 q 506 0 704 0 l 97 0 m 499 746 l 350 746 l 350 199 l 489 199 q 636 268 576 199 q 696 478 696 338 q 645 670 696 594 q 499 746 594 746 z "},"È":{"ha":817,"x_min":97,"x_max":789,"o":"m 226 1294 l 469 1294 l 569 1025 l 381 1025 l 226 1294 m 97 0 l 97 944 l 724 944 l 747 746 l 350 746 l 350 574 l 640 574 l 664 375 l 350 375 l 350 199 l 765 199 l 789 0 l 97 0 z "},"É":{"ha":817,"x_min":97,"x_max":789,"o":"m 426 1294 l 669 1294 l 515 1025 l 326 1025 l 426 1294 m 97 0 l 97 944 l 724 944 l 747 746 l 350 746 l 350 574 l 640 574 l 664 375 l 350 375 l 350 199 l 765 199 l 789 0 l 97 0 z "},"Ê":{"ha":817,"x_min":97,"x_max":789,"o":"m 347 1026 l 101 1026 l 343 1303 l 492 1303 l 733 1026 l 493 1026 l 421 1113 l 347 1026 m 97 0 l 97 944 l 724 944 l 747 746 l 350 746 l 350 574 l 640 574 l 664 375 l 350 375 l 350 199 l 765 199 l 789 0 l 97 0 z "},"Ë":{"ha":817,"x_min":97,"x_max":789,"o":"m 276 1276 q 360 1242 326 1276 q 393 1161 393 1208 q 360 1079 393 1113 q 276 1046 326 1046 q 196 1079 231 1046 q 161 1161 161 1113 q 196 1242 161 1208 q 276 1276 231 1276 m 569 1276 q 653 1242 619 1276 q 686 1161 686 1208 q 653 1079 686 1113 q 569 1046 619 1046 q 489 1079 524 1046 q 454 1161 454 1113 q 489 1242 454 1208 q 569 1276 524 1276 m 789 0 l 97 0 l 97 944 l 724 944 l 747 746 l 350 746 l 350 574 l 640 574 l 664 375 l 350 375 l 350 199 l 765 199 l 789 0 z "},"Ē":{"ha":817,"x_min":97,"x_max":789,"o":"m 214 1258 l 617 1258 l 617 1060 l 214 1060 l 214 1258 m 789 0 l 97 0 l 97 944 l 724 944 l 747 746 l 350 746 l 350 574 l 640 574 l 664 375 l 350 375 l 350 199 l 765 199 l 789 0 z "},"Ė":{"ha":817,"x_min":97,"x_max":789,"o":"m 426 1289 q 517 1251 482 1289 q 551 1161 551 1214 q 517 1069 551 1106 q 426 1033 482 1033 q 336 1069 374 1033 q 299 1161 299 1106 q 336 1251 299 1214 q 426 1289 374 1289 m 97 0 l 97 944 l 724 944 l 747 746 l 350 746 l 350 574 l 640 574 l 664 375 l 350 375 l 350 199 l 765 199 l 789 0 l 97 0 z "},"Ę":{"ha":817,"x_min":97,"x_max":810,"o":"m 97 0 l 97 944 l 724 944 l 747 746 l 350 746 l 350 574 l 640 574 l 664 375 l 350 375 l 350 199 l 765 199 l 789 0 l 663 0 q 636 -52 649 -19 q 624 -110 624 -85 q 635 -140 624 -126 q 664 -154 646 -154 q 692 -149 678 -154 q 725 -126 706 -144 l 810 -268 q 740 -315 786 -296 q 639 -333 694 -333 q 485 -270 538 -333 q 433 -129 433 -207 q 442 -65 433 -104 q 464 0 451 -26 l 97 0 z "},"Ě":{"ha":817,"x_min":96,"x_max":789,"o":"m 96 1303 l 342 1303 l 415 1217 l 488 1303 l 728 1303 l 486 1026 l 338 1026 l 96 1303 m 97 0 l 97 944 l 724 944 l 747 746 l 350 746 l 350 574 l 640 574 l 664 375 l 350 375 l 350 199 l 765 199 l 789 0 l 97 0 z "},"Ğ":{"ha":939,"x_min":56,"x_max":856,"o":"m 804 1289 q 736 1099 804 1169 q 554 1026 668 1028 q 372 1099 440 1028 q 304 1289 304 1169 l 483 1289 q 502 1233 483 1254 q 554 1211 521 1211 q 606 1233 588 1211 q 625 1289 625 1254 l 804 1289 m 771 714 q 643 748 696 740 q 543 756 590 756 q 388 685 458 756 q 317 469 317 614 q 383 253 317 317 q 539 189 450 189 q 581 191 558 189 q 628 197 604 193 l 628 360 l 465 360 l 443 544 l 856 544 l 856 51 q 702 0 800 18 q 532 -18 604 -18 q 178 110 301 -18 q 56 468 56 238 q 193 831 56 700 q 540 963 331 963 q 701 942 611 963 q 846 885 790 922 l 771 714 z "},"Ì":{"ha":447,"x_min":0,"x_max":350,"o":"m 0 1294 l 243 1294 l 343 1025 l 154 1025 l 0 1294 m 97 0 l 97 944 l 350 944 l 350 0 l 97 0 z "},"Í":{"ha":447,"x_min":97,"x_max":444,"o":"m 201 1294 l 444 1294 l 290 1025 l 101 1025 l 201 1294 m 97 0 l 97 944 l 350 944 l 350 0 l 97 0 z "},"Î":{"ha":447,"x_min":-87,"x_max":544,"o":"m 158 1026 l -87 1026 l 154 1303 l 303 1303 l 544 1026 l 304 1026 l 232 1113 l 158 1026 m 97 0 l 97 944 l 350 944 l 350 0 l 97 0 z "},"Ï":{"ha":447,"x_min":-46,"x_max":479,"o":"m 69 1276 q 153 1242 119 1276 q 186 1161 186 1208 q 153 1079 186 1113 q 69 1046 119 1046 q -11 1079 24 1046 q -46 1161 -46 1113 q -11 1242 -46 1208 q 69 1276 24 1276 m 363 1276 q 446 1242 413 1276 q 479 1161 479 1208 q 446 1079 479 1113 q 363 1046 413 1046 q 282 1079 317 1046 q 247 1161 247 1113 q 282 1242 247 1208 q 363 1276 317 1276 m 97 0 l 97 944 l 350 944 l 350 0 l 97 0 z "},"Ī":{"ha":447,"x_min":24,"x_max":426,"o":"m 24 1258 l 426 1258 l 426 1060 l 24 1060 l 24 1258 m 97 0 l 97 944 l 350 944 l 350 0 l 97 0 z "},"Į":{"ha":447,"x_min":65,"x_max":442,"o":"m 97 0 l 97 944 l 350 944 l 350 0 q 290 -50 324 -17 q 256 -110 256 -83 q 267 -140 256 -126 q 296 -154 278 -154 q 324 -149 310 -154 q 357 -126 338 -144 l 442 -268 q 372 -315 418 -296 q 271 -333 326 -333 q 117 -270 169 -333 q 65 -129 65 -207 q 74 -65 65 -103 q 97 0 83 -26 z "},"İ":{"ha":447,"x_min":79,"x_max":350,"o":"m 207 1289 q 297 1251 263 1289 q 332 1161 332 1214 q 297 1069 332 1106 q 207 1033 263 1033 q 117 1069 154 1033 q 79 1161 79 1106 q 117 1251 79 1214 q 207 1289 154 1289 m 97 0 l 97 944 l 350 944 l 350 0 l 97 0 z "},"Ĺ":{"ha":789,"x_min":97,"x_max":775,"o":"m 219 1294 l 463 1294 l 308 1025 l 119 1025 l 219 1294 m 97 0 l 97 944 l 350 944 l 350 199 l 751 199 l 775 0 l 97 0 z "},"Ľ":{"ha":789,"x_min":97,"x_max":775,"o":"m 617 1032 q 707 991 669 1032 q 744 883 744 950 q 681 725 744 801 q 526 614 618 649 l 476 725 q 519 757 496 736 q 549 796 543 778 q 506 840 524 811 q 489 904 489 869 q 526 992 489 951 q 617 1032 563 1032 m 775 0 l 97 0 l 97 944 l 350 944 l 350 199 l 751 199 l 775 0 z "},"Ñ":{"ha":1046,"x_min":97,"x_max":949,"o":"m 432 1042 l 257 1042 q 313 1215 257 1167 q 433 1264 369 1264 q 509 1240 476 1264 q 572 1217 542 1217 q 593 1231 583 1217 q 603 1257 603 1244 l 772 1257 q 719 1083 772 1132 q 601 1035 665 1035 q 526 1058 558 1035 q 463 1082 493 1082 q 442 1068 451 1082 q 432 1042 432 1054 m 97 0 l 97 944 l 332 944 l 696 432 l 696 944 l 949 944 l 949 0 l 713 0 l 350 497 l 350 0 l 97 0 z "},"Ń":{"ha":1046,"x_min":97,"x_max":949,"o":"m 500 1294 l 743 1294 l 589 1025 l 400 1025 l 500 1294 m 97 0 l 97 944 l 332 944 l 696 432 l 696 944 l 949 944 l 949 0 l 713 0 l 350 497 l 350 0 l 97 0 z "},"Ň":{"ha":1046,"x_min":97,"x_max":949,"o":"m 204 1303 l 450 1303 l 524 1217 l 596 1303 l 836 1303 l 594 1026 l 446 1026 l 204 1303 m 97 0 l 97 944 l 332 944 l 696 432 l 696 944 l 949 944 l 949 0 l 713 0 l 350 497 l 350 0 l 97 0 z "},"Ò":{"ha":1032,"x_min":56,"x_max":976,"o":"m 285 1294 l 528 1294 l 628 1025 l 439 1025 l 285 1294 m 56 468 q 179 825 56 686 q 515 964 303 964 q 861 822 746 964 q 976 478 976 681 q 854 119 976 258 q 515 -19 732 -19 q 172 123 289 -19 q 56 468 56 265 m 315 469 q 361 271 315 350 q 514 192 407 192 q 664 263 611 192 q 717 478 717 335 q 670 674 717 596 q 518 753 624 753 q 369 675 424 753 q 315 469 315 597 z "},"Ó":{"ha":1032,"x_min":56,"x_max":976,"o":"m 507 1294 l 750 1294 l 596 1025 l 407 1025 l 507 1294 m 56 468 q 179 825 56 686 q 515 964 303 964 q 861 822 746 964 q 976 478 976 681 q 854 119 976 258 q 515 -19 732 -19 q 172 123 289 -19 q 56 468 56 265 m 315 469 q 361 271 315 350 q 514 192 407 192 q 664 263 611 192 q 717 478 717 335 q 670 674 717 596 q 518 753 624 753 q 369 675 424 753 q 315 469 315 597 z "},"Ô":{"ha":1032,"x_min":56,"x_max":976,"o":"m 443 1026 l 197 1026 l 439 1303 l 588 1303 l 829 1026 l 589 1026 l 517 1113 l 443 1026 m 56 468 q 179 825 56 686 q 515 964 303 964 q 861 822 746 964 q 976 478 976 681 q 854 119 976 258 q 515 -19 732 -19 q 172 123 289 -19 q 56 468 56 265 m 315 469 q 361 271 315 350 q 514 192 407 192 q 664 263 611 192 q 717 478 717 335 q 670 674 717 596 q 518 753 624 753 q 369 675 424 753 q 315 469 315 597 z "},"Õ":{"ha":1032,"x_min":56,"x_max":976,"o":"m 433 1042 l 258 1042 q 315 1215 258 1167 q 435 1264 371 1264 q 510 1240 478 1264 q 574 1217 543 1217 q 594 1231 585 1217 q 604 1257 604 1244 l 774 1257 q 720 1083 774 1132 q 603 1035 667 1035 q 527 1058 560 1035 q 464 1082 494 1082 q 443 1068 453 1082 q 433 1042 433 1054 m 56 468 q 179 825 56 686 q 515 964 303 964 q 861 822 746 964 q 976 478 976 681 q 854 119 976 258 q 515 -19 732 -19 q 172 123 289 -19 q 56 468 56 265 m 315 469 q 361 271 315 350 q 514 192 407 192 q 664 263 611 192 q 717 478 717 335 q 670 674 717 596 q 518 753 624 753 q 369 675 424 753 q 315 469 315 597 z "},"Ö":{"ha":1032,"x_min":56,"x_max":976,"o":"m 368 1276 q 451 1242 418 1276 q 485 1161 485 1208 q 451 1079 485 1113 q 368 1046 418 1046 q 288 1079 322 1046 q 253 1161 253 1113 q 288 1242 253 1208 q 368 1276 322 1276 m 661 1276 q 744 1242 711 1276 q 778 1161 778 1208 q 744 1079 778 1113 q 661 1046 711 1046 q 581 1079 615 1046 q 546 1161 546 1113 q 581 1242 546 1208 q 661 1276 615 1276 m 56 468 q 179 825 56 686 q 515 964 303 964 q 861 822 746 964 q 976 478 976 681 q 854 119 976 258 q 515 -19 732 -19 q 172 123 289 -19 q 56 468 56 265 m 315 469 q 361 271 315 350 q 514 192 407 192 q 664 263 611 192 q 717 478 717 335 q 670 674 717 596 q 518 753 624 753 q 369 675 424 753 q 315 469 315 597 z "},"Ō":{"ha":1032,"x_min":56,"x_max":976,"o":"m 308 1258 l 711 1258 l 711 1060 l 308 1060 l 308 1258 m 56 468 q 179 825 56 686 q 515 964 303 964 q 861 822 746 964 q 976 478 976 681 q 854 119 976 258 q 515 -19 732 -19 q 172 123 289 -19 q 56 468 56 265 m 315 469 q 361 271 315 350 q 514 192 407 192 q 664 263 611 192 q 717 478 717 335 q 670 674 717 596 q 518 753 624 753 q 369 675 424 753 q 315 469 315 597 z "},"Ő":{"ha":1032,"x_min":56,"x_max":976,"o":"m 649 1294 l 878 1294 l 724 1025 l 549 1025 l 649 1294 m 354 1294 l 583 1294 l 429 1025 l 254 1025 l 354 1294 m 56 468 q 179 825 56 686 q 515 964 303 964 q 861 822 746 964 q 976 478 976 681 q 854 119 976 258 q 515 -19 732 -19 q 172 123 289 -19 q 56 468 56 265 m 315 469 q 361 271 315 350 q 514 192 407 192 q 664 263 611 192 q 717 478 717 335 q 670 674 717 596 q 518 753 624 753 q 369 675 424 753 q 315 469 315 597 z "},"Ŕ":{"ha":978,"x_min":97,"x_max":964,"o":"m 396 1294 l 639 1294 l 485 1025 l 296 1025 l 396 1294 m 486 746 l 350 746 l 350 496 l 489 496 q 585 531 547 496 q 622 622 622 567 q 586 715 622 685 q 486 746 550 746 m 97 0 l 97 944 l 494 944 q 767 869 651 944 q 883 622 883 793 q 848 474 883 536 q 756 372 813 411 l 964 0 l 671 0 l 518 297 l 350 297 l 350 0 l 97 0 z "},"Ř":{"ha":978,"x_min":97,"x_max":964,"o":"m 132 1303 l 378 1303 l 451 1217 l 524 1303 l 764 1303 l 522 1026 l 374 1026 l 132 1303 m 486 746 l 350 746 l 350 496 l 489 496 q 585 531 547 496 q 622 622 622 567 q 586 715 622 685 q 486 746 550 746 m 97 0 l 97 944 l 494 944 q 767 869 651 944 q 883 622 883 793 q 848 474 883 536 q 756 372 813 411 l 964 0 l 671 0 l 518 297 l 350 297 l 350 0 l 97 0 z "},"Ś":{"ha":783,"x_min":57,"x_max":747,"o":"m 376 1294 l 619 1294 l 465 1025 l 276 1025 l 376 1294 m 340 372 q 151 495 246 419 q 57 692 57 571 q 152 885 57 808 q 408 963 247 963 q 555 942 479 963 q 686 885 631 922 l 611 714 q 497 748 536 740 q 411 756 458 756 q 343 735 368 756 q 318 689 318 715 q 360 635 318 658 q 461 582 403 613 q 654 453 561 531 q 747 260 747 375 q 647 61 747 140 q 371 -18 546 -18 q 208 3 299 -18 q 61 58 117 25 l 144 249 q 247 208 181 226 q 364 189 313 189 q 455 213 424 189 q 486 263 486 236 q 440 317 486 288 q 340 372 394 346 z "},"Š":{"ha":783,"x_min":57,"x_max":747,"o":"m 90 1303 l 336 1303 l 410 1217 l 482 1303 l 722 1303 l 481 1026 l 332 1026 l 90 1303 m 340 372 q 151 495 246 419 q 57 692 57 571 q 152 885 57 808 q 408 963 247 963 q 555 942 479 963 q 686 885 631 922 l 611 714 q 497 748 536 740 q 411 756 458 756 q 343 735 368 756 q 318 689 318 715 q 360 635 318 658 q 461 582 403 613 q 654 453 561 531 q 747 260 747 375 q 647 61 747 140 q 371 -18 546 -18 q 208 3 299 -18 q 61 58 117 25 l 144 249 q 247 208 181 226 q 364 189 313 189 q 455 213 424 189 q 486 263 486 236 q 440 317 486 288 q 340 372 394 346 z "},"Ť":{"ha":860,"x_min":14,"x_max":846,"o":"m 96 1303 l 342 1303 l 415 1217 l 488 1303 l 728 1303 l 486 1026 l 338 1026 l 96 1303 m 292 0 l 292 746 l 14 746 l 14 944 l 822 944 l 846 746 l 544 746 l 544 0 l 292 0 z "},"Ù":{"ha":1014,"x_min":83,"x_max":931,"o":"m 281 1294 l 524 1294 l 624 1025 l 435 1025 l 281 1294 m 678 374 l 678 944 l 931 944 l 931 361 q 813 78 931 176 q 507 -19 696 -19 q 201 78 318 -19 q 83 361 83 176 l 83 944 l 336 944 l 336 374 q 384 238 336 285 q 507 192 432 192 q 630 238 582 192 q 678 374 678 285 z "},"Ú":{"ha":1014,"x_min":83,"x_max":931,"o":"m 481 1294 l 724 1294 l 569 1025 l 381 1025 l 481 1294 m 678 374 l 678 944 l 931 944 l 931 361 q 813 78 931 176 q 507 -19 696 -19 q 201 78 318 -19 q 83 361 83 176 l 83 944 l 336 944 l 336 374 q 384 238 336 285 q 507 192 432 192 q 630 238 582 192 q 678 374 678 285 z "},"Û":{"ha":1014,"x_min":83,"x_max":931,"o":"m 428 1026 l 182 1026 l 424 1303 l 572 1303 l 814 1026 l 574 1026 l 501 1113 l 428 1026 m 678 374 l 678 944 l 931 944 l 931 361 q 813 78 931 176 q 507 -19 696 -19 q 201 78 318 -19 q 83 361 83 176 l 83 944 l 336 944 l 336 374 q 384 238 336 285 q 507 192 432 192 q 630 238 582 192 q 678 374 678 285 z "},"Ü":{"ha":1014,"x_min":83,"x_max":931,"o":"m 358 1276 q 442 1242 408 1276 q 475 1161 475 1208 q 442 1079 475 1113 q 358 1046 408 1046 q 278 1079 313 1046 q 243 1161 243 1113 q 278 1242 243 1208 q 358 1276 313 1276 m 651 1276 q 735 1242 701 1276 q 768 1161 768 1208 q 735 1079 768 1113 q 651 1046 701 1046 q 571 1079 606 1046 q 536 1161 536 1113 q 571 1242 536 1208 q 651 1276 606 1276 m 678 374 l 678 944 l 931 944 l 931 361 q 813 78 931 176 q 507 -19 696 -19 q 201 78 318 -19 q 83 361 83 176 l 83 944 l 336 944 l 336 374 q 384 238 336 285 q 507 192 432 192 q 630 238 582 192 q 678 374 678 285 z "},"Ū":{"ha":1014,"x_min":83,"x_max":931,"o":"m 307 1258 l 710 1258 l 710 1060 l 307 1060 l 307 1258 m 678 374 l 678 944 l 931 944 l 931 361 q 813 78 931 176 q 507 -19 696 -19 q 201 78 318 -19 q 83 361 83 176 l 83 944 l 336 944 l 336 374 q 384 238 336 285 q 507 192 432 192 q 630 238 582 192 q 678 374 678 285 z "},"Ů":{"ha":1014,"x_min":83,"x_max":931,"o":"m 490 1356 q 610 1308 558 1356 q 661 1193 661 1261 q 610 1078 661 1122 q 490 1033 558 1033 q 370 1078 421 1033 q 319 1193 319 1122 q 370 1308 319 1261 q 490 1356 421 1356 m 493 1151 q 521 1164 510 1151 q 532 1193 532 1176 q 521 1221 532 1210 q 493 1232 510 1232 q 464 1221 476 1232 q 451 1193 451 1210 q 464 1164 451 1176 q 493 1151 476 1151 m 678 374 l 678 944 l 931 944 l 931 361 q 813 78 931 176 q 507 -19 696 -19 q 201 78 318 -19 q 83 361 83 176 l 83 944 l 336 944 l 336 374 q 384 238 336 285 q 507 192 432 192 q 630 238 582 192 q 678 374 678 285 z "},"Ű":{"ha":1014,"x_min":83,"x_max":931,"o":"m 636 1294 l 865 1294 l 711 1025 l 536 1025 l 636 1294 m 342 1294 l 571 1294 l 417 1025 l 242 1025 l 342 1294 m 678 374 l 678 944 l 931 944 l 931 361 q 813 78 931 176 q 507 -19 696 -19 q 201 78 318 -19 q 83 361 83 176 l 83 944 l 336 944 l 336 374 q 384 238 336 285 q 507 192 432 192 q 630 238 582 192 q 678 374 678 285 z "},"Ų":{"ha":1014,"x_min":83,"x_max":931,"o":"m 678 374 l 678 944 l 931 944 l 931 361 q 860 129 931 221 q 672 3 790 38 q 644 -49 658 -15 q 631 -110 631 -83 q 642 -140 631 -126 q 671 -154 653 -154 q 699 -149 685 -154 q 732 -126 713 -144 l 817 -268 q 747 -315 793 -296 q 646 -333 701 -333 q 492 -270 544 -333 q 440 -129 440 -207 q 447 -76 440 -108 q 464 -18 454 -44 q 188 90 293 -7 q 83 361 83 188 l 83 944 l 336 944 l 336 374 q 384 238 336 285 q 507 192 432 192 q 630 238 582 192 q 678 374 678 285 z "},"Ý":{"ha":929,"x_min":14,"x_max":915,"o":"m 419 1294 l 663 1294 l 508 1025 l 319 1025 l 419 1294 m 335 0 l 335 372 l 14 919 l 276 944 l 460 604 l 656 944 l 915 944 l 588 369 l 588 0 l 335 0 z "},"Ÿ":{"ha":929,"x_min":14,"x_max":915,"o":"m 603 1276 q 686 1242 653 1276 q 719 1161 719 1208 q 686 1079 719 1113 q 603 1046 653 1046 q 522 1079 557 1046 q 488 1161 488 1113 q 522 1242 488 1208 q 603 1276 557 1276 m 310 1276 q 393 1242 360 1276 q 426 1161 426 1208 q 393 1079 426 1113 q 310 1046 360 1046 q 229 1079 264 1046 q 194 1161 194 1113 q 229 1242 194 1208 q 310 1276 264 1276 m 335 0 l 335 372 l 14 919 l 276 944 l 460 604 l 656 944 l 915 944 l 588 369 l 588 0 l 335 0 z "},"Ź":{"ha":839,"x_min":28,"x_max":811,"o":"m 393 1294 l 636 1294 l 482 1025 l 293 1025 l 393 1294 m 811 765 l 329 206 l 319 199 l 783 199 l 807 0 l 56 0 l 28 178 l 499 738 l 510 746 l 92 746 l 68 944 l 785 944 l 811 765 z "},"Ż":{"ha":839,"x_min":28,"x_max":811,"o":"m 431 1289 q 521 1251 486 1289 q 556 1161 556 1214 q 521 1069 556 1106 q 431 1033 486 1033 q 340 1069 378 1033 q 303 1161 303 1106 q 340 1251 303 1214 q 431 1289 378 1289 m 68 944 l 785 944 l 811 765 l 329 206 l 319 199 l 783 199 l 807 0 l 56 0 l 28 178 l 499 738 l 510 746 l 92 746 l 68 944 z "},"Ž":{"ha":839,"x_min":28,"x_max":811,"o":"m 129 1303 l 375 1303 l 449 1217 l 521 1303 l 761 1303 l 519 1026 l 371 1026 l 129 1303 m 68 944 l 785 944 l 811 765 l 329 206 l 319 199 l 783 199 l 807 0 l 56 0 l 28 178 l 499 738 l 510 746 l 92 746 l 68 944 z "},"Ş":{"ha":783,"x_min":57,"x_max":747,"o":"m 340 371 q 151 494 244 418 q 57 692 57 571 q 153 885 58 808 q 408 963 247 963 q 555 942 479 963 q 686 885 631 922 l 611 714 q 497 748 536 740 q 411 756 458 756 q 343 735 368 756 q 318 689 318 715 q 360 635 318 658 q 461 582 403 613 q 654 453 561 531 q 747 260 747 375 q 676 87 747 160 q 478 -8 604 14 l 461 -54 q 534 -116 513 -71 q 556 -197 556 -161 q 495 -320 556 -276 q 360 -364 435 -364 q 276 -349 319 -364 q 199 -307 233 -333 l 251 -187 q 288 -201 265 -193 q 329 -208 310 -208 q 360 -202 347 -208 q 372 -183 372 -196 q 342 -151 372 -164 q 254 -131 311 -137 l 301 -14 q 171 13 238 -6 q 61 58 104 32 l 144 249 q 247 208 181 226 q 364 189 313 189 q 455 213 424 189 q 486 263 486 236 q 440 316 486 288 q 340 371 394 344 z "},"Ģ":{"ha":939,"x_min":56,"x_max":856,"o":"m 771 714 q 643 748 696 740 q 543 756 590 756 q 388 685 458 756 q 317 469 317 614 q 383 253 317 317 q 539 189 450 189 q 581 191 558 189 q 628 197 604 193 l 628 360 l 465 360 l 443 544 l 856 544 l 856 51 q 758 13 818 29 q 638 -10 697 -3 l 621 -54 q 694 -116 672 -71 q 715 -197 715 -161 q 655 -320 715 -276 q 519 -364 594 -364 q 436 -349 479 -364 q 358 -307 393 -333 l 411 -187 q 447 -201 425 -193 q 489 -208 469 -208 q 519 -202 507 -208 q 532 -183 532 -196 q 501 -151 532 -164 q 414 -131 471 -137 l 460 -14 q 160 131 264 4 q 56 468 56 257 q 193 831 56 700 q 540 963 331 963 q 701 942 611 963 q 846 885 790 922 l 771 714 z "},"Ķ":{"ha":986,"x_min":97,"x_max":986,"o":"m 97 0 l 97 944 l 350 944 l 350 617 l 729 965 l 925 824 l 604 524 l 986 0 l 665 0 l 424 353 l 350 283 l 350 0 l 97 0 m 497 -29 q 588 -70 550 -29 q 625 -178 625 -111 q 562 -336 625 -260 q 407 -447 499 -412 l 357 -336 q 400 -304 376 -325 q 429 -265 424 -283 q 387 -221 404 -250 q 369 -157 369 -192 q 406 -69 369 -110 q 497 -29 443 -29 z "},"Ļ":{"ha":789,"x_min":97,"x_max":775,"o":"m 97 0 l 97 944 l 350 944 l 350 199 l 751 199 l 775 0 l 97 0 m 456 -29 q 546 -70 508 -29 q 583 -178 583 -111 q 520 -336 583 -260 q 365 -447 457 -412 l 315 -336 q 358 -304 335 -325 q 388 -265 382 -283 q 345 -221 363 -250 q 328 -157 328 -192 q 365 -69 328 -110 q 456 -29 401 -29 z "},"Ņ":{"ha":1046,"x_min":97,"x_max":949,"o":"m 97 0 l 97 944 l 332 944 l 696 432 l 696 944 l 949 944 l 949 0 l 713 0 l 350 497 l 350 0 l 97 0 m 526 -29 q 617 -70 579 -29 q 654 -178 654 -111 q 591 -336 654 -260 q 436 -447 528 -412 l 386 -336 q 429 -304 406 -325 q 458 -265 453 -283 q 416 -221 433 -250 q 399 -157 399 -192 q 435 -69 399 -110 q 526 -29 472 -29 z "},"Ŗ":{"ha":978,"x_min":97,"x_max":964,"o":"m 486 746 l 350 746 l 350 496 l 489 496 q 585 531 547 496 q 622 622 622 567 q 586 715 622 685 q 486 746 550 746 m 97 0 l 97 944 l 494 944 q 767 869 651 944 q 883 622 883 793 q 848 474 883 536 q 756 372 813 411 l 964 0 l 671 0 l 518 297 l 350 297 l 350 0 l 97 0 m 497 -29 q 588 -70 550 -29 q 625 -178 625 -111 q 562 -336 625 -260 q 407 -447 499 -412 l 357 -336 q 400 -304 376 -325 q 429 -265 424 -283 q 387 -221 404 -250 q 369 -157 369 -192 q 406 -69 369 -110 q 497 -29 443 -29 z "},"Ţ":{"ha":860,"x_min":14,"x_max":846,"o":"m 292 0 l 292 746 l 14 746 l 14 944 l 822 944 l 846 746 l 544 746 l 544 0 l 501 0 l 481 -54 q 553 -116 532 -71 q 575 -197 575 -161 q 515 -320 575 -276 q 379 -364 454 -364 q 296 -349 339 -364 q 218 -307 253 -333 l 271 -187 q 307 -201 285 -193 q 349 -208 329 -208 q 379 -202 367 -208 q 392 -183 392 -196 q 361 -151 392 -164 q 274 -131 331 -137 l 326 0 l 292 0 z "},"Ș":{"ha":783,"x_min":57,"x_max":747,"o":"m 340 372 q 151 495 246 419 q 57 692 57 571 q 152 885 57 808 q 408 963 247 963 q 555 942 479 963 q 686 885 631 922 l 611 714 q 497 748 536 740 q 411 756 458 756 q 343 735 368 756 q 318 689 318 715 q 360 635 318 658 q 461 582 403 613 q 654 453 561 531 q 747 260 747 375 q 647 61 747 140 q 371 -18 546 -18 q 208 3 299 -18 q 61 58 117 25 l 144 249 q 247 208 181 226 q 364 189 313 189 q 455 213 424 189 q 486 263 486 236 q 440 317 486 288 q 340 372 394 346 m 385 -29 q 475 -70 438 -29 q 513 -178 513 -111 q 449 -336 513 -260 q 294 -447 386 -412 l 244 -336 q 288 -304 264 -325 q 317 -265 311 -283 q 274 -221 292 -250 q 257 -157 257 -192 q 294 -69 257 -110 q 385 -29 331 -29 z "},"Ț":{"ha":860,"x_min":14,"x_max":846,"o":"m 292 0 l 292 746 l 14 746 l 14 944 l 822 944 l 846 746 l 544 746 l 544 0 l 292 0 m 414 -29 q 504 -70 467 -29 q 542 -178 542 -111 q 478 -336 542 -260 q 324 -447 415 -412 l 274 -336 q 317 -304 293 -325 q 346 -265 340 -283 q 303 -221 321 -250 q 286 -157 286 -192 q 323 -69 286 -110 q 414 -29 360 -29 z "},"à":{"ha":710,"x_min":42,"x_max":640,"o":"m 135 1093 l 385 1093 l 488 817 l 293 817 l 135 1093 m 253 226 q 267 199 253 210 q 299 188 281 188 q 343 197 321 188 q 388 225 365 207 l 388 275 l 310 275 q 269 262 285 275 q 253 226 253 249 m 64 633 q 197 677 117 657 q 361 697 278 697 q 569 621 499 697 q 640 417 640 544 l 640 0 l 528 0 l 482 51 q 401 3 451 21 q 294 -15 351 -15 q 104 49 167 -15 q 42 217 42 113 q 115 377 42 326 q 306 428 189 428 l 386 428 q 357 475 381 458 q 299 492 333 492 q 217 480 264 492 q 131 451 169 468 l 64 633 z "},"á":{"ha":710,"x_min":42,"x_max":640,"o":"m 332 1093 l 582 1093 l 424 817 l 229 817 l 332 1093 m 253 226 q 267 199 253 210 q 299 188 281 188 q 343 197 321 188 q 388 225 365 207 l 388 275 l 310 275 q 269 262 285 275 q 253 226 253 249 m 64 633 q 197 677 117 657 q 361 697 278 697 q 569 621 499 697 q 640 417 640 544 l 640 0 l 528 0 l 482 51 q 401 3 451 21 q 294 -15 351 -15 q 104 49 167 -15 q 42 217 42 113 q 115 377 42 326 q 306 428 189 428 l 386 428 q 357 475 381 458 q 299 492 333 492 q 217 480 264 492 q 131 451 169 468 l 64 633 z "},"â":{"ha":710,"x_min":42,"x_max":675,"o":"m 289 817 l 43 817 l 285 1093 l 433 1093 l 675 817 l 435 817 l 363 903 l 289 817 m 253 226 q 267 199 253 210 q 299 188 281 188 q 343 197 321 188 q 388 225 365 207 l 388 275 l 310 275 q 269 262 285 275 q 253 226 253 249 m 64 633 q 197 677 117 657 q 361 697 278 697 q 569 621 499 697 q 640 417 640 544 l 640 0 l 528 0 l 482 51 q 401 3 451 21 q 294 -15 351 -15 q 104 49 167 -15 q 42 217 42 113 q 115 377 42 326 q 306 428 189 428 l 386 428 q 357 475 381 458 q 299 492 333 492 q 217 480 264 492 q 131 451 169 468 l 64 633 z "},"ã":{"ha":710,"x_min":42,"x_max":640,"o":"m 274 833 l 99 833 q 155 1007 99 958 q 275 1056 211 1056 q 351 1032 318 1056 q 414 1008 383 1008 q 435 1022 425 1008 q 444 1049 444 1036 l 614 1049 q 560 875 614 924 q 443 826 507 826 q 367 850 400 826 q 304 874 335 874 q 283 860 293 874 q 274 833 274 846 m 253 226 q 267 199 253 210 q 299 188 281 188 q 343 197 321 188 q 388 225 365 207 l 388 275 l 310 275 q 269 262 285 275 q 253 226 253 249 m 64 633 q 197 677 117 657 q 361 697 278 697 q 569 621 499 697 q 640 417 640 544 l 640 0 l 528 0 l 482 51 q 401 3 451 21 q 294 -15 351 -15 q 104 49 167 -15 q 42 217 42 113 q 115 377 42 326 q 306 428 189 428 l 386 428 q 357 475 381 458 q 299 492 333 492 q 217 480 264 492 q 131 451 169 468 l 64 633 z "},"ä":{"ha":710,"x_min":42,"x_max":640,"o":"m 214 1068 q 297 1034 264 1068 q 331 953 331 1000 q 297 871 331 904 q 214 838 264 838 q 133 871 168 838 q 99 953 99 904 q 133 1034 99 1000 q 214 1068 168 1068 m 507 1068 q 590 1034 557 1068 q 624 953 624 1000 q 590 871 624 904 q 507 838 557 838 q 426 871 461 838 q 392 953 392 904 q 426 1034 392 1000 q 507 1068 461 1068 m 253 226 q 267 199 253 210 q 299 188 281 188 q 343 197 321 188 q 388 225 365 207 l 388 275 l 310 275 q 269 262 285 275 q 253 226 253 249 m 64 633 q 197 677 117 657 q 361 697 278 697 q 569 621 499 697 q 640 417 640 544 l 640 0 l 528 0 l 482 51 q 401 3 451 21 q 294 -15 351 -15 q 104 49 167 -15 q 42 217 42 113 q 115 377 42 326 q 306 428 189 428 l 386 428 q 357 475 381 458 q 299 492 333 492 q 217 480 264 492 q 131 451 169 468 l 64 633 z "},"å":{"ha":710,"x_min":42,"x_max":640,"o":"m 357 1147 q 476 1100 425 1147 q 528 985 528 1053 q 476 869 528 914 q 357 825 425 825 q 237 869 288 825 q 186 985 186 914 q 237 1100 186 1053 q 357 1147 288 1147 m 360 943 q 388 956 376 943 q 399 985 399 968 q 388 1013 399 1001 q 360 1024 376 1024 q 331 1013 343 1024 q 318 985 318 1001 q 331 956 318 968 q 360 943 343 943 m 253 226 q 267 199 253 210 q 299 188 281 188 q 343 197 321 188 q 388 225 365 207 l 388 275 l 310 275 q 269 262 285 275 q 253 226 253 249 m 64 633 q 197 677 117 657 q 361 697 278 697 q 569 621 499 697 q 640 417 640 544 l 640 0 l 528 0 l 482 51 q 401 3 451 21 q 294 -15 351 -15 q 104 49 167 -15 q 42 217 42 113 q 115 377 42 326 q 306 428 189 428 l 386 428 q 357 475 381 458 q 299 492 333 492 q 217 480 264 492 q 131 451 169 468 l 64 633 z "},"ā":{"ha":710,"x_min":42,"x_max":640,"o":"m 157 1050 l 560 1050 l 560 851 l 157 851 l 157 1050 m 253 226 q 267 199 253 210 q 299 188 281 188 q 343 197 321 188 q 388 225 365 207 l 388 275 l 310 275 q 269 262 285 275 q 253 226 253 249 m 64 633 q 197 677 117 657 q 361 697 278 697 q 569 621 499 697 q 640 417 640 544 l 640 0 l 528 0 l 482 51 q 401 3 451 21 q 294 -15 351 -15 q 104 49 167 -15 q 42 217 42 113 q 115 377 42 326 q 306 428 189 428 l 386 428 q 357 475 381 458 q 299 492 333 492 q 217 480 264 492 q 131 451 169 468 l 64 633 z "},"ă":{"ha":710,"x_min":42,"x_max":640,"o":"m 608 1079 q 540 889 608 960 q 358 817 472 818 q 176 889 244 818 q 108 1079 108 960 l 288 1079 q 306 1023 288 1044 q 358 1001 325 1001 q 410 1023 392 1001 q 429 1079 429 1044 l 608 1079 m 253 226 q 267 199 253 210 q 299 188 281 188 q 343 197 321 188 q 388 225 365 207 l 388 275 l 310 275 q 269 262 285 275 q 253 226 253 249 m 64 633 q 197 677 117 657 q 361 697 278 697 q 569 621 499 697 q 640 417 640 544 l 640 0 l 528 0 l 482 51 q 401 3 451 21 q 294 -15 351 -15 q 104 49 167 -15 q 42 217 42 113 q 115 377 42 326 q 306 428 189 428 l 386 428 q 357 475 381 458 q 299 492 333 492 q 217 480 264 492 q 131 451 169 468 l 64 633 z "},"ą":{"ha":710,"x_min":42,"x_max":788,"o":"m 64 633 q 197 677 117 657 q 361 697 278 697 q 569 621 499 697 q 640 417 640 544 l 640 0 q 614 -53 626 -21 q 601 -110 601 -86 q 613 -140 601 -126 q 642 -154 624 -154 q 669 -149 656 -154 q 703 -126 683 -144 l 788 -268 q 718 -315 764 -296 q 617 -333 672 -333 q 463 -270 515 -333 q 411 -129 411 -207 q 434 -31 411 -74 q 488 46 457 13 l 482 51 q 401 3 451 21 q 294 -15 351 -15 q 104 49 167 -15 q 42 217 42 113 q 115 377 42 326 q 306 428 189 428 l 386 428 q 357 475 381 458 q 299 492 333 492 q 217 480 264 492 q 131 451 169 468 l 64 633 m 253 226 q 267 199 253 210 q 299 188 281 188 q 343 197 321 188 q 388 225 365 207 l 388 275 l 310 275 q 269 262 285 275 q 253 226 253 249 z "},"ç":{"ha":676,"x_min":42,"x_max":640,"o":"m 569 456 q 500 484 529 476 q 435 492 471 492 q 343 450 383 492 q 303 336 303 408 q 343 228 303 265 q 435 190 383 190 q 499 198 468 190 q 569 226 529 206 l 640 53 q 559 9 601 22 q 479 -10 517 -4 l 463 -54 q 535 -116 514 -71 q 557 -197 557 -161 q 497 -320 557 -276 q 361 -364 436 -364 q 278 -349 321 -364 q 200 -307 235 -333 l 253 -187 q 289 -201 267 -193 q 331 -208 311 -208 q 361 -202 349 -208 q 374 -183 374 -196 q 343 -151 374 -164 q 256 -131 313 -137 l 306 -4 q 113 108 185 21 q 42 336 42 196 q 144 601 42 506 q 410 697 246 697 q 517 686 451 697 q 640 629 582 675 l 569 456 z "},"ć":{"ha":676,"x_min":42,"x_max":640,"o":"m 368 1093 l 618 1093 l 460 817 l 265 817 l 368 1093 m 569 456 q 500 484 529 476 q 435 492 471 492 q 343 450 383 492 q 303 336 303 408 q 343 228 303 265 q 435 190 383 190 q 499 198 468 190 q 569 226 529 206 l 640 53 q 517 -4 582 7 q 410 -15 451 -15 q 144 76 246 -15 q 42 336 42 167 q 144 601 42 506 q 410 697 246 697 q 517 686 451 697 q 640 629 582 675 l 569 456 z "},"č":{"ha":676,"x_min":24,"x_max":656,"o":"m 24 1093 l 269 1093 l 343 1007 l 415 1093 l 656 1093 l 414 817 l 265 817 l 24 1093 m 569 456 q 500 484 529 476 q 435 492 471 492 q 343 450 383 492 q 303 336 303 408 q 343 228 303 265 q 435 190 383 190 q 499 198 468 190 q 569 226 529 206 l 640 53 q 517 -4 582 7 q 410 -15 451 -15 q 144 76 246 -15 q 42 336 42 167 q 144 601 42 506 q 410 697 246 697 q 517 686 451 697 q 640 629 582 675 l 569 456 z "},"ď":{"ha":1144,"x_min":42,"x_max":1131,"o":"m 1003 1031 q 1093 990 1056 1031 q 1131 882 1131 949 q 1067 724 1131 800 q 913 613 1004 647 l 863 724 q 906 756 882 735 q 935 794 929 776 q 892 839 910 810 q 875 903 875 868 q 912 990 875 950 q 1003 1031 949 1031 m 303 340 q 335 235 303 281 q 429 190 368 190 q 469 196 444 190 q 513 210 494 201 l 513 449 q 463 479 493 467 q 408 492 433 492 q 327 441 351 492 q 303 340 303 390 m 765 981 l 765 0 l 638 0 l 593 69 q 508 13 563 42 q 365 -15 453 -15 q 122 85 203 -15 q 42 335 42 185 q 122 592 42 486 q 379 697 201 697 q 447 688 413 697 q 513 665 481 679 l 513 965 l 765 981 z "},"è":{"ha":768,"x_min":42,"x_max":726,"o":"m 164 1093 l 414 1093 l 517 817 l 322 817 l 164 1093 m 42 336 q 147 601 42 506 q 404 697 251 697 q 646 593 565 697 q 726 347 726 489 l 726 260 l 317 260 q 367 204 333 221 q 449 188 401 188 q 540 196 493 188 q 625 224 586 204 l 696 53 q 551 -3 638 10 q 424 -15 465 -15 q 151 69 260 -15 q 42 336 42 153 m 485 413 q 464 465 483 435 q 397 494 444 494 q 341 473 363 494 q 310 413 319 451 l 485 413 z "},"é":{"ha":768,"x_min":42,"x_max":726,"o":"m 378 1093 l 628 1093 l 469 817 l 275 817 l 378 1093 m 42 336 q 147 601 42 506 q 404 697 251 697 q 646 593 565 697 q 726 347 726 489 l 726 260 l 317 260 q 367 204 333 221 q 449 188 401 188 q 540 196 493 188 q 625 224 586 204 l 696 53 q 551 -3 638 10 q 424 -15 465 -15 q 151 69 260 -15 q 42 336 42 153 m 485 413 q 464 465 483 435 q 397 494 444 494 q 341 473 363 494 q 310 413 319 451 l 485 413 z "},"ê":{"ha":768,"x_min":42,"x_max":726,"o":"m 335 817 l 89 817 l 331 1093 l 479 1093 l 721 817 l 481 817 l 408 903 l 335 817 m 42 336 q 147 601 42 506 q 404 697 251 697 q 646 593 565 697 q 726 347 726 489 l 726 260 l 317 260 q 367 204 333 221 q 449 188 401 188 q 540 196 493 188 q 625 224 586 204 l 696 53 q 551 -3 638 10 q 424 -15 465 -15 q 151 69 260 -15 q 42 336 42 153 m 485 413 q 464 465 483 435 q 397 494 444 494 q 341 473 363 494 q 310 413 319 451 l 485 413 z "},"ë":{"ha":768,"x_min":42,"x_max":726,"o":"m 549 1068 q 632 1034 599 1068 q 665 953 665 1000 q 632 871 665 904 q 549 838 599 838 q 468 871 503 838 q 433 953 433 904 q 468 1034 433 1000 q 549 1068 503 1068 m 256 1068 q 339 1034 306 1068 q 372 953 372 1000 q 339 871 372 904 q 256 838 306 838 q 175 871 210 838 q 140 953 140 904 q 175 1034 140 1000 q 256 1068 210 1068 m 42 336 q 147 601 42 506 q 404 697 251 697 q 646 593 565 697 q 726 347 726 489 l 726 260 l 317 260 q 367 204 333 221 q 449 188 401 188 q 540 196 493 188 q 625 224 586 204 l 696 53 q 551 -3 638 10 q 424 -15 465 -15 q 151 69 260 -15 q 42 336 42 153 m 485 413 q 464 465 483 435 q 397 494 444 494 q 341 473 363 494 q 310 413 319 451 l 485 413 z "},"ē":{"ha":768,"x_min":42,"x_max":726,"o":"m 190 1050 l 593 1050 l 593 851 l 190 851 l 190 1050 m 42 336 q 147 601 42 506 q 404 697 251 697 q 646 593 565 697 q 726 347 726 489 l 726 260 l 317 260 q 367 204 333 221 q 449 188 401 188 q 540 196 493 188 q 625 224 586 204 l 696 53 q 551 -3 638 10 q 424 -15 465 -15 q 151 69 260 -15 q 42 336 42 153 m 485 413 q 464 465 483 435 q 397 494 444 494 q 341 473 363 494 q 310 413 319 451 l 485 413 z "},"ė":{"ha":768,"x_min":42,"x_max":726,"o":"m 397 1081 q 488 1043 453 1081 q 522 953 522 1006 q 488 861 522 897 q 397 825 453 825 q 307 861 344 825 q 269 953 269 897 q 307 1043 269 1006 q 397 1081 344 1081 m 42 336 q 147 601 42 506 q 404 697 251 697 q 646 593 565 697 q 726 347 726 489 l 726 260 l 317 260 q 367 204 333 221 q 449 188 401 188 q 540 196 493 188 q 625 224 586 204 l 696 53 q 551 -3 638 10 q 424 -15 465 -15 q 151 69 260 -15 q 42 336 42 153 m 485 413 q 464 465 483 435 q 397 494 444 494 q 341 473 363 494 q 310 413 319 451 l 485 413 z "},"ę":{"ha":768,"x_min":42,"x_max":726,"o":"m 42 336 q 147 601 42 506 q 404 697 251 697 q 646 593 565 697 q 726 347 726 489 l 726 260 l 317 260 q 367 204 333 221 q 449 188 401 188 q 540 196 493 188 q 625 224 586 204 l 696 53 q 642 23 672 35 q 582 4 613 11 q 554 -49 568 -15 q 540 -110 540 -83 q 551 -140 540 -126 q 581 -154 563 -154 q 608 -149 594 -154 q 642 -126 622 -144 l 726 -268 q 657 -315 703 -296 q 556 -333 611 -333 q 402 -270 454 -333 q 350 -129 350 -207 q 358 -74 350 -107 q 375 -12 365 -40 q 136 82 231 -3 q 42 336 42 167 m 485 413 q 464 465 483 435 q 397 494 444 494 q 341 473 363 494 q 310 413 319 451 l 485 413 z "},"ě":{"ha":768,"x_min":42,"x_max":726,"o":"m 74 1093 l 319 1093 l 393 1007 l 465 1093 l 706 1093 l 464 817 l 315 817 l 74 1093 m 42 336 q 147 601 42 506 q 404 697 251 697 q 646 593 565 697 q 726 347 726 489 l 726 260 l 317 260 q 367 204 333 221 q 449 188 401 188 q 540 196 493 188 q 625 224 586 204 l 696 53 q 551 -3 638 10 q 424 -15 465 -15 q 151 69 260 -15 q 42 336 42 153 m 485 413 q 464 465 483 435 q 397 494 444 494 q 341 473 363 494 q 310 413 319 451 l 485 413 z "},"ğ":{"ha":849,"x_min":42,"x_max":765,"o":"m 663 1079 q 594 889 663 960 q 413 817 526 818 q 231 889 299 818 q 163 1079 163 960 l 342 1079 q 360 1023 342 1044 q 413 1001 379 1001 q 465 1023 446 1001 q 483 1079 483 1044 l 663 1079 m 513 210 l 513 449 q 463 479 493 467 q 408 492 433 492 q 327 441 351 492 q 303 340 303 390 q 335 235 303 281 q 429 190 368 190 q 469 196 444 190 q 513 210 494 201 m 765 672 l 765 -7 q 669 -228 765 -153 q 394 -304 572 -304 q 265 -287 351 -304 q 114 -226 179 -269 l 190 -49 q 303 -91 258 -82 q 390 -100 349 -100 q 473 -83 433 -100 q 513 -35 513 -67 l 513 14 q 447 -7 483 1 q 365 -15 411 -15 q 122 85 203 -15 q 42 335 42 185 q 122 592 42 486 q 379 697 201 697 q 494 673 436 697 q 596 617 551 649 l 639 672 l 765 672 z "},"ì":{"ha":419,"x_min":-3,"x_max":350,"o":"m -3 1093 l 247 1093 l 350 817 l 156 817 l -3 1093 m 83 0 l 83 674 l 336 674 l 336 0 l 83 0 z "},"í":{"ha":419,"x_min":69,"x_max":422,"o":"m 172 1093 l 422 1093 l 264 817 l 69 817 l 172 1093 m 83 0 l 83 674 l 336 674 l 336 0 l 83 0 z "},"î":{"ha":419,"x_min":-106,"x_max":526,"o":"m 140 817 l -106 817 l 136 1093 l 285 1093 l 526 817 l 286 817 l 214 903 l 140 817 m 83 0 l 83 674 l 336 674 l 336 0 l 83 0 z "},"ï":{"ha":419,"x_min":-53,"x_max":472,"o":"m 63 1068 q 146 1034 113 1068 q 179 953 179 1000 q 146 871 179 904 q 63 838 113 838 q -18 871 17 838 q -53 953 -53 904 q -18 1034 -53 1000 q 63 1068 17 1068 m 356 1068 q 439 1034 406 1068 q 472 953 472 1000 q 439 871 472 904 q 356 838 406 838 q 275 871 310 838 q 240 953 240 904 q 275 1034 240 1000 q 356 1068 310 1068 m 83 0 l 83 674 l 336 674 l 336 0 l 83 0 z "},"ī":{"ha":419,"x_min":8,"x_max":411,"o":"m 8 1050 l 411 1050 l 411 851 l 8 851 l 8 1050 m 83 0 l 83 674 l 336 674 l 336 0 l 83 0 z "},"į":{"ha":419,"x_min":72,"x_max":454,"o":"m 208 765 q 113 806 153 765 q 72 901 72 846 q 113 999 72 958 q 208 1040 153 1040 q 306 999 265 1040 q 347 901 347 958 q 306 806 347 846 q 208 765 265 765 m 83 0 l 83 674 l 336 674 l 336 0 l 307 0 q 281 -52 293 -19 q 268 -110 268 -85 q 279 -140 268 -126 q 308 -154 290 -154 q 336 -149 322 -154 q 369 -126 350 -144 l 454 -268 q 385 -315 431 -296 q 283 -333 339 -333 q 130 -270 182 -333 q 78 -129 78 -207 q 87 -65 78 -104 q 108 0 96 -26 l 83 0 z "},"ľ":{"ha":715,"x_min":83,"x_max":701,"o":"m 574 1031 q 664 990 626 1031 q 701 882 701 949 q 638 724 701 800 q 483 613 575 647 l 433 724 q 476 756 453 735 q 506 794 500 776 q 463 839 481 810 q 446 903 446 868 q 483 990 446 950 q 574 1031 519 1031 m 83 0 l 83 965 l 336 981 l 336 0 l 83 0 z "},"ñ":{"ha":867,"x_min":83,"x_max":797,"o":"m 340 833 l 165 833 q 222 1007 165 958 q 342 1056 278 1056 q 417 1032 385 1056 q 481 1008 450 1008 q 501 1022 492 1008 q 511 1049 511 1036 l 681 1049 q 627 875 681 924 q 510 826 574 826 q 434 850 467 826 q 371 874 401 874 q 350 860 360 874 q 340 833 340 846 m 263 614 q 376 668 306 639 q 532 697 447 697 q 736 617 675 697 q 797 417 797 538 l 797 0 l 544 0 l 544 411 q 521 471 544 450 q 463 492 497 492 q 403 479 439 492 q 336 453 367 467 l 336 0 l 83 0 l 83 672 l 210 672 l 263 614 z "},"ń":{"ha":867,"x_min":83,"x_max":797,"o":"m 386 1093 l 636 1093 l 478 817 l 283 817 l 386 1093 m 263 614 q 376 668 306 639 q 532 697 447 697 q 736 617 675 697 q 797 417 797 538 l 797 0 l 544 0 l 544 411 q 521 471 544 450 q 463 492 497 492 q 403 479 439 492 q 336 453 367 467 l 336 0 l 83 0 l 83 672 l 210 672 l 263 614 z "},"ň":{"ha":867,"x_min":83,"x_max":797,"o":"m 139 1093 l 385 1093 l 458 1007 l 531 1093 l 771 1093 l 529 817 l 381 817 l 139 1093 m 263 614 q 376 668 306 639 q 532 697 447 697 q 736 617 675 697 q 797 417 797 538 l 797 0 l 544 0 l 544 411 q 521 471 544 450 q 463 492 497 492 q 403 479 439 492 q 336 453 367 467 l 336 0 l 83 0 l 83 672 l 210 672 l 263 614 z "},"ò":{"ha":847,"x_min":42,"x_max":806,"o":"m 204 1093 l 454 1093 l 557 817 l 363 817 l 204 1093 m 42 340 q 153 603 42 510 q 424 697 265 697 q 698 606 590 697 q 806 333 806 514 q 693 74 806 164 q 418 -15 581 -15 q 149 72 256 -15 q 42 340 42 160 m 303 340 q 333 231 303 272 q 421 190 364 190 q 513 226 481 190 q 544 333 544 263 q 514 447 544 401 q 426 492 483 492 q 335 451 367 492 q 303 340 303 411 z "},"ó":{"ha":847,"x_min":42,"x_max":806,"o":"m 382 1093 l 632 1093 l 474 817 l 279 817 l 382 1093 m 42 340 q 153 603 42 510 q 424 697 265 697 q 698 606 590 697 q 806 333 806 514 q 693 74 806 164 q 418 -15 581 -15 q 149 72 256 -15 q 42 340 42 160 m 303 340 q 333 231 303 272 q 421 190 364 190 q 513 226 481 190 q 544 333 544 263 q 514 447 544 401 q 426 492 483 492 q 335 451 367 492 q 303 340 303 411 z "},"ô":{"ha":847,"x_min":42,"x_max":806,"o":"m 354 817 l 108 817 l 350 1093 l 499 1093 l 740 817 l 500 817 l 428 903 l 354 817 m 42 340 q 153 603 42 510 q 424 697 265 697 q 698 606 590 697 q 806 333 806 514 q 693 74 806 164 q 418 -15 581 -15 q 149 72 256 -15 q 42 340 42 160 m 303 340 q 333 231 303 272 q 421 190 364 190 q 513 226 481 190 q 544 333 544 263 q 514 447 544 401 q 426 492 483 492 q 335 451 367 492 q 303 340 303 411 z "},"õ":{"ha":847,"x_min":42,"x_max":806,"o":"m 339 833 l 164 833 q 220 1007 164 958 q 340 1056 276 1056 q 416 1032 383 1056 q 479 1008 449 1008 q 500 1022 490 1008 q 510 1049 510 1036 l 679 1049 q 626 875 679 924 q 508 826 572 826 q 433 850 465 826 q 369 874 400 874 q 349 860 358 874 q 339 833 339 846 m 42 340 q 153 603 42 510 q 424 697 265 697 q 698 606 590 697 q 806 333 806 514 q 693 74 806 164 q 418 -15 581 -15 q 149 72 256 -15 q 42 340 42 160 m 303 340 q 333 231 303 272 q 421 190 364 190 q 513 226 481 190 q 544 333 544 263 q 514 447 544 401 q 426 492 483 492 q 335 451 367 492 q 303 340 303 411 z "},"ö":{"ha":847,"x_min":42,"x_max":806,"o":"m 272 1068 q 356 1034 322 1068 q 389 953 389 1000 q 356 871 389 904 q 272 838 322 838 q 192 871 226 838 q 157 953 157 904 q 192 1034 157 1000 q 272 1068 226 1068 m 565 1068 q 649 1034 615 1068 q 682 953 682 1000 q 649 871 682 904 q 565 838 615 838 q 485 871 519 838 q 450 953 450 904 q 485 1034 450 1000 q 565 1068 519 1068 m 42 340 q 153 603 42 510 q 424 697 265 697 q 698 606 590 697 q 806 333 806 514 q 693 74 806 164 q 418 -15 581 -15 q 149 72 256 -15 q 42 340 42 160 m 303 340 q 333 231 303 272 q 421 190 364 190 q 513 226 481 190 q 544 333 544 263 q 514 447 544 401 q 426 492 483 492 q 335 451 367 492 q 303 340 303 411 z "},"ō":{"ha":847,"x_min":42,"x_max":806,"o":"m 218 1050 l 621 1050 l 621 851 l 218 851 l 218 1050 m 42 340 q 153 603 42 510 q 424 697 265 697 q 698 606 590 697 q 806 333 806 514 q 693 74 806 164 q 418 -15 581 -15 q 149 72 256 -15 q 42 340 42 160 m 303 340 q 333 231 303 272 q 421 190 364 190 q 513 226 481 190 q 544 333 544 263 q 514 447 544 401 q 426 492 483 492 q 335 451 367 492 q 303 340 303 411 z "},"ő":{"ha":847,"x_min":42,"x_max":806,"o":"m 539 1093 l 775 1093 l 617 817 l 436 817 l 539 1093 m 235 1093 l 471 1093 l 313 817 l 132 817 l 235 1093 m 42 340 q 153 603 42 510 q 424 697 265 697 q 698 606 590 697 q 806 333 806 514 q 693 74 806 164 q 418 -15 581 -15 q 149 72 256 -15 q 42 340 42 160 m 303 340 q 333 231 303 272 q 421 190 364 190 q 513 226 481 190 q 544 333 544 263 q 514 447 544 401 q 426 492 483 492 q 335 451 367 492 q 303 340 303 411 z "},"ŕ":{"ha":549,"x_min":83,"x_max":535,"o":"m 225 1093 l 475 1093 l 317 817 l 122 817 l 225 1093 m 83 0 l 83 672 l 210 672 l 271 604 q 369 653 313 632 q 483 674 426 674 l 535 471 q 432 457 485 471 q 336 410 379 443 l 336 0 l 83 0 z "},"ř":{"ha":549,"x_min":-42,"x_max":590,"o":"m -42 1093 l 204 1093 l 278 1007 l 350 1093 l 590 1093 l 349 817 l 200 817 l -42 1093 m 83 0 l 83 672 l 210 672 l 271 604 q 369 653 313 632 q 483 674 426 674 l 535 471 q 432 457 485 471 q 336 410 379 443 l 336 0 l 83 0 z "},"ś":{"ha":657,"x_min":50,"x_max":618,"o":"m 296 1093 l 546 1093 l 388 817 l 193 817 l 296 1093 m 325 468 q 335 452 325 458 q 382 433 346 446 q 542 353 465 404 q 618 210 618 303 q 548 44 618 104 q 338 -15 478 -15 q 202 8 296 -15 q 50 78 108 32 l 121 251 q 219 210 161 231 q 313 190 276 190 q 346 199 335 190 q 357 214 357 207 q 346 231 357 224 q 304 249 335 239 q 142 328 221 278 q 64 472 64 379 q 143 638 64 578 q 363 697 222 697 q 481 677 404 697 q 617 611 558 657 l 546 438 q 461 475 506 458 q 381 492 417 492 q 338 483 350 492 q 325 468 325 475 z "},"š":{"ha":657,"x_min":15,"x_max":647,"o":"m 15 1093 l 261 1093 l 335 1007 l 407 1093 l 647 1093 l 406 817 l 257 817 l 15 1093 m 325 468 q 335 452 325 458 q 382 433 346 446 q 542 353 465 404 q 618 210 618 303 q 548 44 618 104 q 338 -15 478 -15 q 202 8 296 -15 q 50 78 108 32 l 121 251 q 219 210 161 231 q 313 190 276 190 q 346 199 335 190 q 357 214 357 207 q 346 231 357 224 q 304 249 335 239 q 142 328 221 278 q 64 472 64 379 q 143 638 64 578 q 363 697 222 697 q 481 677 404 697 q 617 611 558 657 l 546 438 q 461 475 506 458 q 381 492 417 492 q 338 483 350 492 q 325 468 325 475 z "},"ť":{"ha":844,"x_min":14,"x_max":831,"o":"m 703 1031 q 793 990 756 1031 q 831 882 831 949 q 767 724 831 800 q 613 613 704 647 l 563 724 q 606 756 582 735 q 635 794 629 776 q 592 839 610 810 q 575 903 575 868 q 612 990 575 950 q 703 1031 649 1031 m 633 44 q 552 3 608 22 q 447 -15 496 -15 q 218 51 318 -15 q 118 253 118 118 l 118 447 l 14 447 l 14 646 l 118 646 l 118 828 l 371 863 l 371 646 l 533 646 l 557 447 l 371 447 l 371 281 q 395 215 371 239 q 464 190 419 190 q 510 197 482 190 q 561 217 538 203 l 633 44 z "},"ù":{"ha":853,"x_min":69,"x_max":769,"o":"m 221 1093 l 471 1093 l 574 817 l 379 817 l 221 1093 m 590 57 q 480 4 547 33 q 328 -25 413 -25 q 127 55 185 -25 q 69 256 69 135 l 69 672 l 322 672 l 322 261 q 342 201 322 222 q 397 181 363 181 q 453 193 419 181 q 517 219 486 206 l 517 672 l 769 672 l 769 0 l 643 0 l 590 57 z "},"ú":{"ha":853,"x_min":69,"x_max":769,"o":"m 376 1093 l 626 1093 l 468 817 l 274 817 l 376 1093 m 590 57 q 480 4 547 33 q 328 -25 413 -25 q 127 55 185 -25 q 69 256 69 135 l 69 672 l 322 672 l 322 261 q 342 201 322 222 q 397 181 363 181 q 453 193 419 181 q 517 219 486 206 l 517 672 l 769 672 l 769 0 l 643 0 l 590 57 z "},"û":{"ha":853,"x_min":69,"x_max":769,"o":"m 347 817 l 101 817 l 343 1093 l 492 1093 l 733 817 l 493 817 l 421 903 l 347 817 m 590 57 q 480 4 547 33 q 328 -25 413 -25 q 127 55 185 -25 q 69 256 69 135 l 69 672 l 322 672 l 322 261 q 342 201 322 222 q 397 181 363 181 q 453 193 419 181 q 517 219 486 206 l 517 672 l 769 672 l 769 0 l 643 0 l 590 57 z "},"ü":{"ha":853,"x_min":69,"x_max":769,"o":"m 561 1068 q 644 1034 611 1068 q 678 953 678 1000 q 644 871 678 904 q 561 838 611 838 q 481 871 515 838 q 446 953 446 904 q 481 1034 446 1000 q 561 1068 515 1068 m 268 1068 q 351 1034 318 1068 q 385 953 385 1000 q 351 871 385 904 q 268 838 318 838 q 188 871 222 838 q 153 953 153 904 q 188 1034 153 1000 q 268 1068 222 1068 m 590 57 q 480 4 547 33 q 328 -25 413 -25 q 127 55 185 -25 q 69 256 69 135 l 69 672 l 322 672 l 322 261 q 342 201 322 222 q 397 181 363 181 q 453 193 419 181 q 517 219 486 206 l 517 672 l 769 672 l 769 0 l 643 0 l 590 57 z "},"ū":{"ha":853,"x_min":69,"x_max":769,"o":"m 196 1050 l 599 1050 l 599 851 l 196 851 l 196 1050 m 590 57 q 480 4 547 33 q 328 -25 413 -25 q 127 55 185 -25 q 69 256 69 135 l 69 672 l 322 672 l 322 261 q 342 201 322 222 q 397 181 363 181 q 453 193 419 181 q 517 219 486 206 l 517 672 l 769 672 l 769 0 l 643 0 l 590 57 z "},"ů":{"ha":853,"x_min":69,"x_max":769,"o":"m 403 1147 q 522 1100 471 1147 q 574 985 574 1053 q 522 869 574 914 q 403 825 471 825 q 283 869 333 825 q 232 985 232 914 q 283 1100 232 1053 q 403 1147 333 1147 m 406 943 q 433 956 422 943 q 444 985 444 968 q 433 1013 444 1001 q 406 1024 422 1024 q 376 1013 389 1024 q 364 985 364 1001 q 376 956 364 968 q 406 943 389 943 m 590 57 q 480 4 547 33 q 328 -25 413 -25 q 127 55 185 -25 q 69 256 69 135 l 69 672 l 322 672 l 322 261 q 342 201 322 222 q 397 181 363 181 q 453 193 419 181 q 517 219 486 206 l 517 672 l 769 672 l 769 0 l 643 0 l 590 57 z "},"ű":{"ha":853,"x_min":69,"x_max":781,"o":"m 240 1093 l 476 1093 l 318 817 l 138 817 l 240 1093 m 544 1093 l 781 1093 l 622 817 l 442 817 l 544 1093 m 590 57 q 480 4 547 33 q 328 -25 413 -25 q 127 55 185 -25 q 69 256 69 135 l 69 672 l 322 672 l 322 261 q 342 201 322 222 q 397 181 363 181 q 453 193 419 181 q 517 219 486 206 l 517 672 l 769 672 l 769 0 l 643 0 l 590 57 z "},"ų":{"ha":853,"x_min":69,"x_max":917,"o":"m 590 57 q 480 4 547 33 q 328 -25 413 -25 q 127 55 185 -25 q 69 256 69 135 l 69 672 l 322 672 l 322 261 q 342 201 322 222 q 397 181 363 181 q 453 193 419 181 q 517 219 486 206 l 517 672 l 769 672 l 769 0 q 743 -49 756 -15 q 731 -110 731 -83 q 742 -140 731 -126 q 771 -154 753 -154 q 799 -149 785 -154 q 832 -126 813 -144 l 917 -268 q 847 -315 893 -296 q 746 -333 801 -333 q 592 -270 644 -333 q 540 -129 540 -207 q 560 -29 540 -75 q 603 43 581 17 l 590 57 z "},"ý":{"ha":790,"x_min":14,"x_max":776,"o":"m 322 1093 l 572 1093 l 414 817 l 219 817 l 322 1093 m 261 -3 l 267 13 l 14 649 l 261 674 l 396 293 l 525 674 l 776 674 l 481 -79 q 361 -222 449 -161 q 174 -304 274 -282 l 89 -108 q 194 -60 139 -87 q 261 -3 250 -33 z "},"ÿ":{"ha":790,"x_min":14,"x_max":776,"o":"m 543 1068 q 626 1034 593 1068 q 660 953 660 1000 q 626 871 660 904 q 543 838 593 838 q 463 871 497 838 q 428 953 428 904 q 463 1034 428 1000 q 543 1068 497 1068 m 250 1068 q 333 1034 300 1068 q 367 953 367 1000 q 333 871 367 904 q 250 838 300 838 q 169 871 204 838 q 135 953 135 904 q 169 1034 135 1000 q 250 1068 204 1068 m 261 -3 l 267 13 l 14 649 l 261 674 l 396 293 l 525 674 l 776 674 l 481 -79 q 361 -222 449 -161 q 174 -304 274 -282 l 89 -108 q 194 -60 139 -87 q 261 -3 250 -33 z "},"ź":{"ha":669,"x_min":28,"x_max":633,"o":"m 293 1093 l 543 1093 l 385 817 l 190 817 l 293 1093 m 58 674 l 596 674 l 608 533 l 350 199 l 610 199 l 633 0 l 58 0 l 28 131 l 283 475 l 82 475 l 58 674 z "},"ż":{"ha":669,"x_min":28,"x_max":633,"o":"m 343 1081 q 433 1043 399 1081 q 468 953 468 1006 q 433 861 468 897 q 343 825 399 825 q 253 861 290 825 q 215 953 215 897 q 253 1043 215 1006 q 343 1081 290 1081 m 58 674 l 596 674 l 608 533 l 350 199 l 610 199 l 633 0 l 58 0 l 28 131 l 283 475 l 82 475 l 58 674 z "},"ž":{"ha":669,"x_min":14,"x_max":646,"o":"m 14 1093 l 260 1093 l 333 1007 l 406 1093 l 646 1093 l 404 817 l 256 817 l 14 1093 m 58 674 l 596 674 l 608 533 l 350 199 l 610 199 l 633 0 l 58 0 l 28 131 l 283 475 l 82 475 l 58 674 z "},"ş":{"ha":657,"x_min":50,"x_max":618,"o":"m 325 468 q 335 452 325 458 q 382 433 346 446 q 542 353 465 404 q 618 210 618 303 q 567 62 618 119 q 414 -10 517 4 l 397 -54 q 470 -116 449 -71 q 492 -197 492 -161 q 431 -320 492 -276 q 296 -364 371 -364 q 213 -349 256 -364 q 135 -307 169 -333 l 188 -187 q 224 -201 201 -193 q 265 -208 246 -208 q 296 -202 283 -208 q 308 -183 308 -196 q 278 -151 308 -164 q 190 -131 247 -137 l 242 -1 q 140 28 193 8 q 50 78 86 49 l 121 251 q 219 210 161 231 q 313 190 276 190 q 346 199 335 190 q 357 214 357 207 q 346 231 357 224 q 304 249 335 239 q 142 328 221 278 q 64 472 64 379 q 143 638 64 578 q 363 697 222 697 q 481 677 404 697 q 617 611 558 657 l 546 438 q 461 475 506 458 q 381 492 417 492 q 338 483 350 492 q 325 468 325 475 z "},"ķ":{"ha":788,"x_min":83,"x_max":788,"o":"m 336 217 l 336 0 l 83 0 l 83 965 l 336 981 l 336 481 l 588 693 l 739 519 l 553 379 l 788 0 l 515 0 l 378 247 l 336 217 m 407 -29 q 497 -70 460 -29 q 535 -178 535 -111 q 472 -336 535 -260 q 317 -447 408 -412 l 267 -336 q 310 -304 286 -325 q 339 -265 333 -283 q 297 -221 314 -250 q 279 -157 279 -192 q 316 -69 279 -110 q 407 -29 353 -29 z "},"ļ":{"ha":419,"x_min":79,"x_max":347,"o":"m 83 0 l 83 965 l 336 981 l 336 0 l 83 0 m 219 -29 q 310 -70 272 -29 q 347 -178 347 -111 q 284 -336 347 -260 q 129 -447 221 -412 l 79 -336 q 122 -304 99 -325 q 151 -265 146 -283 q 109 -221 126 -250 q 92 -157 92 -192 q 128 -69 92 -110 q 219 -29 165 -29 z "},"ņ":{"ha":867,"x_min":83,"x_max":797,"o":"m 263 614 q 376 668 306 639 q 532 697 447 697 q 736 617 675 697 q 797 417 797 538 l 797 0 l 544 0 l 544 411 q 521 471 544 450 q 463 492 497 492 q 403 479 439 492 q 336 453 367 467 l 336 0 l 83 0 l 83 672 l 210 672 l 263 614 m 426 -29 q 517 -70 479 -29 q 554 -178 554 -111 q 491 -336 554 -260 q 336 -447 428 -412 l 286 -336 q 329 -304 306 -325 q 358 -265 353 -283 q 316 -221 333 -250 q 299 -157 299 -192 q 335 -69 299 -110 q 426 -29 372 -29 z "},"ŗ":{"ha":549,"x_min":75,"x_max":535,"o":"m 83 0 l 83 672 l 210 672 l 271 604 q 369 653 313 632 q 483 674 426 674 l 535 471 q 432 457 485 471 q 336 410 379 443 l 336 0 l 83 0 m 215 -29 q 306 -70 268 -29 q 343 -178 343 -111 q 280 -336 343 -260 q 125 -447 217 -412 l 75 -336 q 118 -304 94 -325 q 147 -265 142 -283 q 105 -221 122 -250 q 88 -157 88 -192 q 124 -69 88 -110 q 215 -29 161 -29 z "},"ţ":{"ha":647,"x_min":14,"x_max":633,"o":"m 557 447 l 371 447 l 371 281 q 395 215 371 239 q 464 190 419 190 q 510 197 482 190 q 561 217 538 203 l 633 44 q 571 10 613 26 q 486 -11 529 -6 l 471 -54 q 544 -116 522 -71 q 565 -197 565 -161 q 505 -320 565 -276 q 369 -364 444 -364 q 286 -349 329 -364 q 208 -307 243 -333 l 261 -187 q 297 -201 275 -193 q 339 -208 319 -208 q 369 -202 357 -208 q 382 -183 382 -196 q 351 -151 382 -164 q 264 -131 321 -137 l 317 3 q 175 90 232 28 q 118 253 118 153 l 118 447 l 14 447 l 14 646 l 118 646 l 118 828 l 371 863 l 371 646 l 533 646 l 557 447 z "},"ș":{"ha":657,"x_min":50,"x_max":618,"o":"m 325 468 q 335 452 325 458 q 382 433 346 446 q 542 353 465 404 q 618 210 618 303 q 548 44 618 104 q 338 -15 478 -15 q 202 8 296 -15 q 50 78 108 32 l 121 251 q 219 210 161 231 q 313 190 276 190 q 346 199 335 190 q 357 214 357 207 q 346 231 357 224 q 304 249 335 239 q 142 328 221 278 q 64 472 64 379 q 143 638 64 578 q 363 697 222 697 q 481 677 404 697 q 617 611 558 657 l 546 438 q 461 475 506 458 q 381 492 417 492 q 338 483 350 492 q 325 468 325 475 m 344 -29 q 435 -70 397 -29 q 472 -178 472 -111 q 409 -336 472 -260 q 254 -447 346 -412 l 204 -336 q 247 -304 224 -325 q 276 -265 271 -283 q 234 -221 251 -250 q 217 -157 217 -192 q 253 -69 217 -110 q 344 -29 290 -29 z "},"ț":{"ha":647,"x_min":14,"x_max":633,"o":"m 633 44 q 552 3 608 22 q 447 -15 496 -15 q 218 51 318 -15 q 118 253 118 118 l 118 447 l 14 447 l 14 646 l 118 646 l 118 828 l 371 863 l 371 646 l 533 646 l 557 447 l 371 447 l 371 281 q 395 215 371 239 q 464 190 419 190 q 510 197 482 190 q 561 217 538 203 l 633 44 m 447 -29 q 538 -70 500 -29 q 575 -178 575 -111 q 512 -336 575 -260 q 357 -447 449 -412 l 307 -336 q 350 -304 326 -325 q 379 -265 374 -283 q 337 -221 354 -250 q 319 -157 319 -192 q 356 -69 319 -110 q 447 -29 393 -29 z "},"­":{"ha":181,"x_min":0,"x_max":0,"o":""},"µ":{"ha":826,"x_min":83,"x_max":783,"o":"m 83 -304 l 83 672 l 336 672 l 336 261 q 356 201 336 222 q 411 181 376 181 q 467 193 433 181 q 531 219 500 206 l 531 672 l 783 672 l 783 0 l 657 0 l 604 57 q 494 4 561 33 q 342 -25 426 -25 l 336 -25 l 336 -290 l 83 -304 z "},"ˉ":{"ha":431,"x_min":14,"x_max":417,"o":"m 14 1050 l 417 1050 l 417 851 l 14 851 l 14 1050 z "},"ℓ":{"ha":714,"x_min":14,"x_max":672,"o":"m 71 225 l 14 433 q 17 435 15 435 q 21 436 19 435 q 78 458 46 446 q 149 486 111 471 l 149 739 q 231 910 149 846 q 417 975 314 975 q 600 917 528 975 q 672 756 672 858 q 592 551 672 647 q 401 382 511 456 l 401 257 q 424 204 401 218 q 494 190 447 190 q 540 197 513 190 q 592 217 568 203 l 664 44 q 583 3 639 22 q 478 -15 526 -15 q 249 33 349 -15 q 149 215 149 81 l 149 251 q 108 238 128 244 q 71 225 89 231 m 393 732 l 393 611 q 433 676 417 642 q 449 749 449 711 q 447 769 449 761 q 421 778 444 778 q 400 763 407 778 q 393 732 393 749 z "},"Ω":{"ha":1036,"x_min":56,"x_max":981,"o":"m 958 0 l 603 0 l 603 199 q 694 309 667 225 q 721 469 721 393 q 667 675 721 597 q 518 753 613 753 q 369 675 424 753 q 315 469 315 597 q 342 309 315 393 q 433 199 368 225 l 433 0 l 78 0 l 56 199 l 143 199 q 78 330 101 260 q 56 468 56 400 q 181 825 56 686 q 518 964 306 964 q 856 825 731 964 q 981 468 981 686 q 958 330 981 400 q 893 199 935 260 l 981 199 l 958 0 z "},"∆":{"ha":971,"x_min":14,"x_max":957,"o":"m 563 944 l 957 25 l 749 0 l 14 0 l 410 944 l 563 944 m 482 567 l 325 199 l 642 199 l 482 567 z "},"∕":{"ha":689,"x_min":7,"x_max":682,"o":"m 682 981 l 267 0 l 7 0 l 421 981 l 682 981 z "},"∙":{"ha":428,"x_min":42,"x_max":386,"o":"m 213 289 q 92 339 142 289 q 42 460 42 389 q 92 581 42 531 q 213 632 142 632 q 335 581 283 632 q 386 460 386 531 q 335 339 386 389 q 213 289 283 289 z "},"₺":{"ha":922,"x_min":69,"x_max":908,"o":"m 647 501 l 908 500 q 785 135 908 269 q 432 0 663 0 l 179 0 l 179 388 l 82 354 l 69 521 l 179 560 l 179 606 l 82 572 l 69 740 l 179 779 l 179 961 l 432 982 l 432 868 l 578 919 l 631 764 l 432 694 l 432 649 l 578 700 l 631 544 l 432 475 l 432 207 q 583 281 519 208 q 647 501 647 353 z "},"₽":{"ha":913,"x_min":0,"x_max":871,"o":"m 131 0 l 131 88 l 14 88 l 0 258 l 131 258 l 131 303 l 0 303 l 0 501 l 131 501 l 131 944 l 482 944 q 755 867 639 944 q 871 618 871 789 q 747 376 871 449 q 471 303 624 303 l 383 303 l 383 258 l 689 258 l 703 88 l 383 88 l 383 0 l 131 0 m 474 746 l 383 746 l 383 501 l 476 501 q 572 532 535 501 q 610 618 610 563 q 574 713 610 681 q 474 746 538 746 z "},"¢":{"ha":676,"x_min":42,"x_max":640,"o":"m 569 456 q 500 484 529 476 q 435 492 471 492 q 343 450 383 492 q 303 336 303 408 q 343 228 303 265 q 435 190 383 190 q 499 198 468 190 q 569 226 529 206 l 640 53 q 572 13 608 26 q 503 -7 536 -1 l 503 -189 l 294 -174 l 294 -3 q 110 112 178 25 q 42 336 42 199 q 110 563 42 474 q 294 683 178 653 l 294 876 l 503 876 l 503 689 q 572 669 536 683 q 640 629 608 654 l 569 456 z "},"£":{"ha":711,"x_min":42,"x_max":697,"o":"m 615 372 l 407 372 l 407 261 q 405 228 407 244 q 400 199 403 213 l 674 199 l 697 0 l 54 0 l 54 199 l 69 199 q 132 225 110 200 q 154 289 154 250 l 154 372 l 42 372 l 42 571 l 154 571 l 154 682 q 254 883 154 817 q 483 950 354 950 q 588 931 532 950 q 669 890 644 913 l 597 718 q 546 738 574 732 q 500 744 518 744 q 431 720 456 744 q 407 654 407 696 l 407 571 l 592 571 l 615 372 z "},"¤":{"ha":1101,"x_min":28,"x_max":1074,"o":"m 550 475 q 456 438 492 475 q 419 347 421 400 q 458 257 421 293 q 551 221 496 221 q 646 258 610 221 q 682 349 682 296 q 644 439 682 403 q 550 475 606 475 m 728 22 q 644 -6 690 4 q 551 -17 597 -15 q 458 -6 506 -15 q 374 21 411 3 q 292 -64 340 -12 q 218 -143 244 -115 l 44 29 l 206 188 q 181 263 190 222 q 171 346 171 303 q 181 431 171 389 q 207 507 190 472 l 28 668 l 225 832 l 374 674 q 458 701 411 692 q 550 711 504 711 q 643 702 596 711 q 728 675 690 693 q 809 760 761 708 q 883 839 857 811 l 1057 667 l 896 508 q 921 433 911 474 q 931 350 931 393 q 921 265 931 307 q 894 189 911 224 l 1074 28 l 876 -136 l 728 22 z "},"¥":{"ha":929,"x_min":14,"x_max":915,"o":"m 161 278 l 147 439 l 296 439 l 14 919 l 276 944 l 460 604 l 656 944 l 915 944 l 626 439 l 769 439 l 783 278 l 588 278 l 588 231 l 769 231 l 783 69 l 588 69 l 588 0 l 335 0 l 335 69 l 161 69 l 147 231 l 335 231 l 335 278 l 161 278 z "},"€":{"ha":953,"x_min":28,"x_max":911,"o":"m 28 660 l 196 660 q 351 880 240 797 q 624 963 463 963 q 770 942 694 963 q 901 885 846 922 l 826 714 q 713 748 751 740 q 626 756 674 756 q 539 731 579 756 q 472 660 499 706 l 731 660 l 744 499 l 428 499 l 428 442 l 731 442 l 744 281 l 474 281 q 544 213 501 236 q 636 189 586 189 q 733 203 688 189 q 815 240 779 218 l 911 51 q 778 0 856 18 q 629 -18 701 -18 q 344 63 453 -18 q 193 281 235 143 l 44 281 l 28 442 l 167 442 l 167 499 l 44 499 l 28 660 z "},"$":{"ha":783,"x_min":57,"x_max":747,"o":"m 374 1104 l 374 961 q 390 963 382 963 q 408 963 399 963 q 421 963 414 963 q 435 961 428 963 l 435 1110 l 600 1110 l 600 928 q 646 908 624 919 q 686 885 668 897 l 611 714 q 497 748 536 740 q 411 756 458 756 q 343 735 368 756 q 318 689 318 715 q 360 635 318 658 q 461 582 403 613 q 654 453 561 531 q 747 260 747 375 q 704 120 747 182 q 583 22 661 58 l 583 -169 l 418 -151 l 418 -17 q 394 -18 407 -18 q 371 -18 382 -18 l 351 -18 l 351 -165 l 188 -165 l 188 8 q 118 31 151 18 q 61 58 85 44 l 144 249 q 247 208 181 226 q 364 189 313 189 q 455 213 424 189 q 486 263 486 236 q 440 317 486 288 q 340 372 394 346 q 151 495 246 419 q 57 694 57 571 q 97 826 57 767 q 210 921 138 886 l 210 1111 l 374 1104 z "},",":{"ha":296,"x_min":14,"x_max":282,"o":"m 154 204 q 244 163 207 204 q 282 56 282 122 q 219 -103 282 -26 q 64 -214 156 -179 l 14 -103 q 57 -71 33 -92 q 86 -32 81 -50 q 44 13 61 -17 q 26 76 26 42 q 63 164 26 124 q 154 204 100 204 z "},".":{"ha":282,"x_min":14,"x_max":268,"o":"m 142 254 q 231 217 194 254 q 268 126 268 181 q 231 36 268 72 q 142 0 194 0 q 51 36 88 0 q 14 126 14 72 q 51 217 14 181 q 142 254 88 254 z "},"!":{"ha":338,"x_min":42,"x_max":296,"o":"m 71 344 l 43 992 l 296 992 l 268 289 l 71 344 m 169 254 q 259 217 222 254 q 296 126 296 181 q 259 36 296 72 q 169 0 222 0 q 78 36 115 0 q 42 126 42 72 q 78 217 42 181 q 169 254 115 254 z "},"¡":{"ha":338,"x_min":42,"x_max":296,"o":"m 168 738 q 78 774 115 738 q 42 865 42 811 q 78 956 42 919 q 168 992 115 992 q 259 956 222 992 q 296 865 296 919 q 259 774 296 811 q 168 738 222 738 m 267 647 l 294 0 l 42 0 l 69 703 l 267 647 z "},":":{"ha":282,"x_min":14,"x_max":268,"o":"m 142 661 q 231 624 194 661 q 268 533 268 588 q 231 443 268 479 q 142 407 194 407 q 51 443 88 407 q 14 533 14 479 q 51 624 14 588 q 142 661 88 661 m 142 254 q 231 217 194 254 q 268 126 268 181 q 231 36 268 72 q 142 0 194 0 q 51 36 88 0 q 14 126 14 72 q 51 217 14 181 q 142 254 88 254 z "},";":{"ha":282,"x_min":-1,"x_max":268,"o":"m 142 661 q 231 624 194 661 q 268 533 268 588 q 231 443 268 479 q 142 407 194 407 q 51 443 88 407 q 14 533 14 479 q 51 624 14 588 q 142 661 88 661 m 139 254 q 229 213 192 254 q 267 106 267 172 q 203 -53 267 24 q 49 -164 140 -129 l -1 -53 q 42 -21 18 -42 q 71 18 65 0 q 28 63 46 33 q 11 126 11 92 q 48 214 11 174 q 139 254 85 254 z "},"?":{"ha":676,"x_min":42,"x_max":635,"o":"m 307 974 q 544 900 453 974 q 635 707 635 826 q 578 556 635 622 q 389 443 521 490 l 372 283 l 174 338 l 164 558 q 315 631 256 588 q 374 711 374 674 q 353 753 374 738 q 303 768 333 768 q 213 755 268 768 q 74 694 157 742 l 42 901 q 179 958 113 942 q 307 974 246 974 m 260 254 q 349 217 313 254 q 386 126 386 181 q 349 36 386 72 q 260 0 313 0 q 169 36 206 0 q 132 126 132 72 q 169 217 132 181 q 260 254 206 254 z "},"¿":{"ha":676,"x_min":42,"x_max":635,"o":"m 417 668 q 327 705 364 668 q 290 796 290 742 q 327 886 290 850 q 417 922 364 922 q 508 886 471 922 q 544 796 544 850 q 508 705 544 742 q 417 668 471 668 m 369 -51 q 133 22 224 -51 q 42 215 42 96 q 99 366 42 300 q 288 479 156 432 l 304 639 l 503 585 l 513 364 q 362 292 421 335 q 303 211 303 249 q 323 169 303 185 q 374 154 343 154 q 464 167 408 154 q 603 228 519 181 l 635 21 q 497 -35 564 -19 q 369 -51 431 -51 z "},"*":{"ha":617,"x_min":28,"x_max":589,"o":"m 396 560 l 308 689 q 263 622 286 658 q 221 560 239 586 l 58 663 l 158 789 l 28 813 l 75 992 l 210 953 l 210 1086 l 410 1086 l 410 953 l 542 992 l 589 813 l 458 789 l 558 663 l 396 560 z "},"\"":{"ha":588,"x_min":14,"x_max":574,"o":"m 446 1031 q 536 990 499 1031 q 574 882 574 949 q 510 724 574 800 q 356 613 447 647 l 306 724 q 349 756 325 735 q 378 794 372 776 q 335 839 353 810 q 318 903 318 868 q 355 990 318 950 q 446 1031 392 1031 m 154 1031 q 244 990 207 1031 q 282 882 282 949 q 219 724 282 800 q 64 613 156 647 l 14 724 q 57 756 33 735 q 86 794 81 776 q 44 839 61 810 q 26 903 26 868 q 63 990 26 950 q 154 1031 100 1031 z "},"'":{"ha":296,"x_min":14,"x_max":282,"o":"m 154 1031 q 244 990 207 1031 q 282 882 282 949 q 219 724 282 800 q 64 613 156 647 l 14 724 q 57 756 33 735 q 86 794 81 776 q 44 839 61 810 q 26 903 26 868 q 63 990 26 950 q 154 1031 100 1031 z "},"‘":{"ha":296,"x_min":14,"x_max":282,"o":"m 142 613 q 51 653 89 613 q 14 761 14 694 q 77 919 14 843 q 232 1031 140 996 l 282 919 q 239 888 263 908 q 210 849 215 867 q 252 804 235 833 q 269 740 269 775 q 233 653 269 693 q 142 613 196 613 z "},"’":{"ha":296,"x_min":14,"x_max":282,"o":"m 154 1031 q 244 990 207 1031 q 282 882 282 949 q 219 724 282 800 q 64 613 156 647 l 14 724 q 57 756 33 735 q 86 794 81 776 q 44 839 61 810 q 26 903 26 868 q 63 990 26 950 q 154 1031 100 1031 z "},"‚":{"ha":296,"x_min":14,"x_max":282,"o":"m 154 204 q 244 163 207 204 q 282 56 282 122 q 219 -103 282 -26 q 64 -214 156 -179 l 14 -103 q 57 -71 33 -92 q 86 -32 81 -50 q 44 13 61 -17 q 26 76 26 42 q 63 164 26 124 q 154 204 100 204 z "},"“":{"ha":588,"x_min":14,"x_max":574,"o":"m 142 613 q 51 653 89 613 q 14 761 14 694 q 77 919 14 843 q 232 1031 140 996 l 282 919 q 239 888 263 908 q 210 849 215 867 q 252 804 235 833 q 269 740 269 775 q 233 653 269 693 q 142 613 196 613 m 433 613 q 343 653 381 613 q 306 761 306 694 q 369 919 306 843 q 524 1031 432 996 l 574 919 q 531 888 554 908 q 501 849 507 867 q 544 804 526 833 q 561 740 561 775 q 524 653 561 693 q 433 613 488 613 z "},"”":{"ha":588,"x_min":14,"x_max":574,"o":"m 446 1031 q 536 990 499 1031 q 574 882 574 949 q 510 724 574 800 q 356 613 447 647 l 306 724 q 349 756 325 735 q 378 794 372 776 q 335 839 353 810 q 318 903 318 868 q 355 990 318 950 q 446 1031 392 1031 m 154 1031 q 244 990 207 1031 q 282 882 282 949 q 219 724 282 800 q 64 613 156 647 l 14 724 q 57 756 33 735 q 86 794 81 776 q 44 839 61 810 q 26 903 26 868 q 63 990 26 950 q 154 1031 100 1031 z "},"„":{"ha":588,"x_min":14,"x_max":574,"o":"m 446 204 q 536 163 499 204 q 574 56 574 122 q 510 -103 574 -26 q 356 -214 447 -179 l 306 -103 q 349 -71 325 -92 q 378 -32 372 -50 q 335 13 353 -17 q 318 76 318 42 q 355 164 318 124 q 446 204 392 204 m 154 204 q 244 163 207 204 q 282 56 282 122 q 219 -103 282 -26 q 64 -214 156 -179 l 14 -103 q 57 -71 33 -92 q 86 -32 81 -50 q 44 13 61 -17 q 26 76 26 42 q 63 164 26 124 q 154 204 100 204 z "},"·":{"ha":282,"x_min":14,"x_max":268,"o":"m 142 493 q 231 456 194 493 q 268 365 268 419 q 231 275 268 311 q 142 239 194 239 q 51 275 88 239 q 14 365 14 311 q 51 456 14 419 q 142 493 88 493 z "},"(":{"ha":486,"x_min":56,"x_max":458,"o":"m 232 -54 q 103 181 150 54 q 56 446 56 308 q 101 703 56 581 q 232 947 147 826 l 458 896 q 353 683 399 814 q 308 447 308 551 q 353 206 308 340 q 457 -1 397 71 l 232 -54 z "},")":{"ha":486,"x_min":28,"x_max":431,"o":"m 254 947 q 383 712 336 839 q 431 447 431 585 q 385 190 431 313 q 254 -54 339 67 l 28 -3 q 133 210 88 79 q 178 446 178 342 q 133 688 178 553 q 29 894 89 822 l 254 947 z "},"[":{"ha":622,"x_min":97,"x_max":608,"o":"m 97 -121 l 97 967 l 608 967 l 586 768 l 350 768 l 350 78 l 585 78 l 608 -121 l 97 -121 z "},"]":{"ha":622,"x_min":14,"x_max":525,"o":"m 525 967 l 525 -121 l 14 -121 l 38 78 l 272 78 l 272 768 l 36 768 l 14 967 l 525 967 z "},"{":{"ha":485,"x_min":42,"x_max":471,"o":"m 350 431 q 381 402 364 421 q 397 344 397 383 q 373 264 397 297 q 349 192 349 231 q 360 158 349 172 q 401 143 371 143 l 453 143 l 471 -54 l 314 -54 q 164 -6 211 -54 q 117 121 117 42 q 140 221 117 172 q 163 290 163 269 q 144 328 163 314 q 104 343 126 343 l 42 343 l 42 518 l 104 518 q 144 533 126 518 q 163 571 163 547 q 140 640 163 592 q 117 740 117 689 q 164 867 117 819 q 314 915 211 915 l 471 915 l 453 718 l 401 718 q 360 703 371 718 q 349 669 349 689 q 373 597 349 631 q 397 517 397 564 q 381 458 397 476 q 350 431 364 440 z "},"}":{"ha":485,"x_min":14,"x_max":443,"o":"m 135 431 q 104 459 121 440 q 88 517 88 478 q 112 597 88 564 q 136 669 136 631 q 125 703 136 689 q 83 718 114 718 l 32 718 l 14 915 l 171 915 q 321 867 274 915 q 368 740 368 819 q 345 640 368 689 q 322 571 322 592 q 340 533 322 547 q 381 518 358 518 l 443 518 l 443 343 l 381 343 q 340 328 358 343 q 322 290 322 314 q 345 221 322 269 q 368 121 368 172 q 321 -6 368 42 q 171 -54 274 -54 l 14 -54 l 32 143 l 83 143 q 125 158 114 143 q 136 192 136 172 q 112 264 136 231 q 88 344 88 297 q 104 403 88 385 q 135 431 121 421 z "},"/":{"ha":689,"x_min":7,"x_max":682,"o":"m 682 981 l 267 0 l 7 0 l 421 981 l 682 981 z "},"\\":{"ha":689,"x_min":7,"x_max":682,"o":"m 422 0 l 7 986 l 268 986 l 682 0 l 422 0 z "},"|":{"ha":531,"x_min":139,"x_max":392,"o":"m 139 0 l 139 990 l 392 968 l 392 -22 l 139 0 z "},"¦":{"ha":531,"x_min":139,"x_max":392,"o":"m 139 569 l 139 990 l 392 968 l 392 547 l 139 569 m 139 0 l 139 421 l 392 399 l 392 -22 l 139 0 z "},"«":{"ha":565,"x_min":28,"x_max":543,"o":"m 497 101 l 279 311 l 279 374 l 497 585 l 543 436 l 451 343 l 543 249 l 497 101 m 246 101 l 28 311 l 28 374 l 246 585 l 292 436 l 200 343 l 292 249 l 246 101 z "},"»":{"ha":565,"x_min":22,"x_max":538,"o":"m 68 585 l 286 375 l 286 313 l 68 101 l 22 250 l 114 343 l 22 438 l 68 585 m 319 585 l 538 375 l 538 313 l 319 101 l 274 250 l 365 343 l 274 438 l 319 585 z "},"π":{"ha":1114,"x_min":56,"x_max":1058,"o":"m 667 0 l 667 475 l 447 475 l 447 0 l 194 0 l 194 475 l 56 475 l 56 674 l 1058 674 l 1058 475 l 919 475 l 919 0 l 667 0 z "},"†":{"ha":703,"x_min":42,"x_max":661,"o":"m 479 1083 l 479 868 l 636 868 l 661 671 l 464 671 l 464 0 l 229 0 l 229 671 l 68 671 l 42 868 l 229 868 l 229 1083 l 479 1083 z "},"‡":{"ha":721,"x_min":42,"x_max":679,"o":"m 226 -8 l 233 214 l 68 214 l 42 413 l 233 413 l 233 671 l 68 671 l 42 868 l 229 868 l 229 1083 l 490 1083 l 490 868 l 654 868 l 679 671 l 490 671 l 490 413 l 654 413 l 679 214 l 486 214 l 493 1 l 226 -8 z "},"•":{"ha":428,"x_min":42,"x_max":386,"o":"m 213 289 q 92 339 142 289 q 42 460 42 389 q 92 581 42 531 q 213 632 142 632 q 335 581 283 632 q 386 460 386 531 q 335 339 386 389 q 213 289 283 289 z "},"…":{"ha":806,"x_min":14,"x_max":792,"o":"m 129 231 q 211 197 178 231 q 244 115 244 164 q 211 33 244 65 q 129 0 178 0 q 47 33 81 0 q 14 115 14 65 q 47 197 14 164 q 129 231 81 231 m 676 229 q 758 196 725 229 q 792 114 792 163 q 758 31 792 64 q 676 -1 725 -1 q 594 31 628 -1 q 561 114 561 64 q 594 196 561 163 q 676 229 628 229 m 403 229 q 485 196 451 229 q 518 114 518 163 q 485 31 518 64 q 403 -1 451 -1 q 321 31 354 -1 q 288 114 288 64 q 321 196 288 163 q 403 229 354 229 z "},"‹":{"ha":356,"x_min":28,"x_max":333,"o":"m 288 81 l 28 304 l 28 394 l 288 619 l 333 429 l 242 350 l 333 269 l 288 81 z "},"›":{"ha":356,"x_min":22,"x_max":328,"o":"m 68 619 l 328 396 l 328 306 l 68 81 l 22 271 l 114 350 l 22 431 l 68 619 z "},"-":{"ha":461,"x_min":28,"x_max":433,"o":"m 433 281 l 43 281 l 28 479 l 419 479 l 433 281 z "},"_":{"ha":606,"x_min":28,"x_max":578,"o":"m 578 0 l 43 0 l 28 199 l 564 199 l 578 0 z "},"–":{"ha":606,"x_min":28,"x_max":578,"o":"m 578 281 l 43 281 l 28 479 l 564 479 l 578 281 z "},"—":{"ha":768,"x_min":28,"x_max":740,"o":"m 740 281 l 43 281 l 28 479 l 726 479 l 740 281 z "},"#":{"ha":871,"x_min":28,"x_max":843,"o":"m 843 114 l 650 114 l 618 -21 l 414 -14 l 443 114 l 311 114 l 279 -21 l 75 -14 l 104 114 l 43 114 l 28 299 l 149 299 l 174 407 l 43 407 l 28 592 l 218 592 l 249 718 l 456 718 l 425 592 l 557 592 l 588 718 l 794 718 l 764 592 l 829 592 l 843 407 l 719 407 l 694 299 l 829 299 l 843 114 m 381 407 l 356 299 l 488 299 l 513 407 l 381 407 z "},"%":{"ha":1353,"x_min":28,"x_max":1325,"o":"m 1014 981 l 599 0 l 339 0 l 753 981 l 1014 981 m 271 468 q 92 536 156 468 q 28 721 28 604 q 95 906 28 838 q 278 975 163 975 q 465 905 399 975 q 531 718 531 835 q 460 535 531 603 q 271 468 389 468 m 339 718 q 326 780 339 757 q 281 803 314 803 q 236 783 253 803 q 219 721 219 764 q 232 658 219 679 q 275 636 244 636 q 324 656 308 636 q 339 718 339 676 m 1065 1 q 886 69 950 1 q 822 254 822 138 q 890 440 822 371 q 1072 508 957 508 q 1259 438 1193 508 q 1325 251 1325 368 q 1254 69 1325 136 q 1065 1 1183 1 m 1133 251 q 1121 313 1133 290 q 1075 336 1108 336 q 1031 317 1047 336 q 1014 254 1014 297 q 1026 191 1014 213 q 1069 169 1039 169 q 1118 190 1103 169 q 1133 251 1133 210 z "},"+":{"ha":782,"x_min":28,"x_max":754,"o":"m 754 281 l 508 281 l 508 0 l 275 11 l 275 281 l 43 281 l 28 479 l 275 479 l 275 736 l 508 736 l 508 479 l 740 479 l 754 281 z "},"÷":{"ha":683,"x_min":28,"x_max":656,"o":"m 342 765 q 431 728 394 765 q 468 638 468 692 q 431 547 468 583 q 342 511 394 511 q 251 547 288 511 q 214 638 214 583 q 251 728 214 692 q 342 765 288 765 m 656 288 l 43 288 l 28 472 l 642 472 l 656 288 m 342 254 q 431 217 394 254 q 468 126 468 181 q 431 36 468 72 q 342 0 394 0 q 251 36 288 0 q 214 126 214 72 q 251 217 214 181 q 342 254 288 254 z "},"×":{"ha":815,"x_min":28,"x_max":788,"o":"m 28 69 l 264 360 l 39 643 l 265 676 l 399 506 l 531 672 l 788 672 l 521 347 q 642 192 572 281 q 764 40 711 104 l 513 40 l 389 203 q 322 117 358 164 q 256 33 286 71 l 28 69 z "},"±":{"ha":729,"x_min":28,"x_max":701,"o":"m 701 406 l 469 406 l 469 207 l 264 218 l 264 406 l 46 406 l 31 576 l 264 576 l 264 792 l 469 792 l 469 576 l 688 576 l 701 406 m 699 0 l 43 0 l 28 171 l 685 171 l 699 0 z "},"<":{"ha":531,"x_min":42,"x_max":503,"o":"m 457 -3 l 42 294 l 42 407 l 457 701 l 503 483 l 315 351 l 503 218 l 457 -3 z "},"=":{"ha":726,"x_min":28,"x_max":699,"o":"m 699 407 l 43 407 l 28 592 l 685 592 l 699 407 m 699 114 l 43 114 l 28 299 l 685 299 l 699 114 z "},">":{"ha":531,"x_min":28,"x_max":489,"o":"m 74 701 l 489 404 l 489 292 l 74 -3 l 28 215 l 215 347 l 28 481 l 74 701 z "},"°":{"ha":410,"x_min":14,"x_max":396,"o":"m 206 1000 q 338 947 281 1000 q 396 817 396 893 q 338 687 396 739 q 206 635 281 635 q 70 687 126 635 q 14 817 14 739 q 70 947 14 893 q 206 1000 126 1000 m 243 814 q 233 841 243 829 q 207 853 222 853 q 182 842 193 853 q 171 817 171 831 q 182 790 171 803 q 207 778 193 778 q 233 789 222 778 q 243 814 243 800 z "},"¹":{"ha":533,"x_min":42,"x_max":506,"o":"m 82 468 l 65 618 l 207 618 l 207 824 l 125 786 l 42 949 l 271 1061 l 397 1061 l 397 618 l 489 618 l 506 468 l 82 468 z "},"²":{"ha":568,"x_min":42,"x_max":513,"o":"m 271 1071 q 443 1014 397 1071 q 489 893 489 957 q 458 767 489 825 q 357 646 428 710 l 325 617 l 496 617 l 513 468 l 56 468 l 56 593 l 233 750 q 300 822 281 790 q 321 875 319 853 q 305 905 321 893 q 263 917 289 917 q 188 896 226 917 q 122 856 150 875 l 42 981 q 137 1040 76 1010 q 271 1071 197 1071 z "},"³":{"ha":593,"x_min":19,"x_max":551,"o":"m 285 1071 q 469 1020 400 1071 q 539 886 539 969 q 514 808 539 850 q 461 751 489 765 q 524 685 497 729 q 551 594 551 640 q 474 445 551 503 q 272 388 397 388 q 147 408 215 388 q 19 467 79 428 l 121 593 q 201 553 165 565 q 274 540 238 540 q 332 557 308 540 q 356 600 356 574 q 335 647 356 631 q 283 663 314 663 l 176 663 l 161 813 l 246 813 q 318 828 292 813 q 344 869 344 843 q 325 903 344 889 q 265 917 306 917 q 202 903 236 917 q 132 865 168 890 l 42 994 q 160 1054 97 1038 q 285 1071 224 1071 z "},"¼":{"ha":1379,"x_min":42,"x_max":1343,"o":"m 82 468 l 65 618 l 207 618 l 207 824 l 125 786 l 42 949 l 271 1061 l 397 1061 l 397 618 l 489 618 l 506 468 l 82 468 m 932 674 l 542 0 l 310 0 l 699 674 l 932 674 m 1333 -104 l 1235 -104 l 1235 -231 l 1039 -231 l 1039 -104 l 739 -104 l 717 39 l 1089 453 l 1235 453 l 1235 50 l 1343 50 l 1333 -104 m 947 50 l 1039 50 l 1039 157 l 947 50 z "},"½":{"ha":1347,"x_min":42,"x_max":1333,"o":"m 82 468 l 65 618 l 207 618 l 207 824 l 125 786 l 42 949 l 271 1061 l 397 1061 l 397 618 l 489 618 l 506 468 l 82 468 m 960 674 l 569 0 l 338 0 l 726 674 l 960 674 m 1092 451 q 1264 394 1218 451 q 1310 274 1310 338 q 1279 148 1310 206 q 1178 26 1249 90 l 1146 -3 l 1317 -3 l 1333 -151 l 876 -151 l 876 -26 l 1054 131 q 1121 202 1101 171 q 1142 256 1140 233 q 1126 285 1142 274 q 1083 297 1110 297 q 1009 276 1047 297 q 943 236 971 256 l 863 361 q 958 421 897 390 q 1092 451 1018 451 z "},"¾":{"ha":1407,"x_min":19,"x_max":1371,"o":"m 960 674 l 569 0 l 338 0 l 726 674 l 960 674 m 285 1071 q 469 1020 400 1071 q 539 886 539 969 q 514 808 539 850 q 461 751 489 765 q 524 685 497 729 q 551 594 551 640 q 474 445 551 503 q 272 388 397 388 q 147 408 215 388 q 19 467 79 428 l 121 593 q 201 553 165 565 q 274 540 238 540 q 332 557 308 540 q 356 600 356 574 q 335 647 356 631 q 283 663 314 663 l 176 663 l 161 813 l 246 813 q 318 828 292 813 q 344 869 344 843 q 325 903 344 889 q 265 917 306 917 q 202 903 236 917 q 132 865 168 890 l 42 994 q 160 1054 97 1038 q 285 1071 224 1071 m 1361 -104 l 1263 -104 l 1263 -231 l 1067 -231 l 1067 -104 l 767 -104 l 744 39 l 1117 453 l 1263 453 l 1263 50 l 1371 50 l 1361 -104 m 975 50 l 1067 50 l 1067 157 l 975 50 z "},"℮":{"ha":768,"x_min":42,"x_max":726,"o":"m 42 336 q 147 601 42 506 q 404 697 251 697 q 646 593 565 697 q 726 347 726 489 l 726 260 l 317 260 q 367 204 333 221 q 449 188 401 188 q 540 196 493 188 q 625 224 586 204 l 696 53 q 551 -3 638 10 q 424 -15 465 -15 q 151 69 260 -15 q 42 336 42 153 m 485 413 q 464 465 483 435 q 397 494 444 494 q 341 473 363 494 q 310 413 319 451 l 485 413 z "},"∂":{"ha":857,"x_min":42,"x_max":801,"o":"m 42 296 q 138 495 42 415 q 375 575 233 575 q 419 568 393 575 q 472 547 444 561 q 305 655 404 617 q 147 707 206 693 l 267 882 q 644 695 486 838 q 801 371 801 553 q 682 79 801 176 q 388 -18 563 -18 q 136 78 231 -18 q 42 296 42 174 m 303 290 q 326 220 303 254 q 397 186 350 186 q 485 222 447 186 q 536 333 524 258 q 479 378 513 358 q 413 399 446 399 q 330 367 357 399 q 303 290 303 336 z "},"∏":{"ha":1114,"x_min":139,"x_max":975,"o":"m 722 0 l 722 746 l 390 746 l 390 0 l 139 0 l 139 944 l 975 944 l 975 0 l 722 0 z "},"∑":{"ha":738,"x_min":83,"x_max":710,"o":"m 668 746 l 371 746 l 529 519 l 529 439 l 369 199 l 686 199 l 710 0 l 83 0 l 83 181 l 292 478 q 189 622 240 550 q 86 764 138 693 l 86 944 l 644 944 l 668 746 z "},"−":{"ha":661,"x_min":28,"x_max":633,"o":"m 633 281 l 43 281 l 28 479 l 619 479 l 633 281 z "},"√":{"ha":1042,"x_min":7,"x_max":1035,"o":"m 1035 981 l 621 0 l 271 0 l 7 488 l 292 488 l 450 193 l 779 981 l 1035 981 z "},"∞":{"ha":1269,"x_min":56,"x_max":1214,"o":"m 869 0 q 728 34 790 0 q 628 111 667 68 q 534 34 600 68 q 403 0 468 0 q 153 92 251 0 q 56 336 56 185 q 153 592 56 497 q 400 686 251 686 q 541 652 479 686 q 642 575 603 618 q 735 652 669 618 q 867 686 801 686 q 1122 594 1029 686 q 1214 350 1214 501 q 1116 98 1214 196 q 869 0 1018 0 m 967 354 q 936 424 967 393 q 858 454 906 454 q 784 403 818 454 q 733 299 750 353 q 790 250 758 268 q 858 232 821 232 q 936 269 906 232 q 967 354 967 306 m 303 332 q 333 263 303 293 q 411 232 364 232 q 485 283 451 232 q 536 388 519 333 q 480 436 511 418 q 411 454 449 454 q 333 417 364 454 q 303 332 303 381 z "},"∫":{"ha":792,"x_min":7,"x_max":785,"o":"m 522 19 q 422 -182 522 -115 q 193 -249 322 -249 q 88 -230 144 -249 q 7 -189 32 -211 l 79 -17 q 131 -37 103 -31 q 176 -43 158 -43 q 245 -19 221 -43 q 269 47 269 6 l 269 819 q 369 1021 269 954 q 599 1088 469 1088 q 703 1069 647 1088 q 785 1028 760 1050 l 713 856 q 661 876 689 869 q 615 882 633 882 q 547 858 571 882 q 522 792 522 833 l 522 19 z "},"≈":{"ha":757,"x_min":28,"x_max":729,"o":"m 554 656 l 729 628 q 688 463 729 521 q 540 406 646 406 q 415 429 481 406 q 289 453 349 453 q 233 430 263 453 q 203 385 203 407 l 28 413 q 84 578 28 521 q 250 635 140 635 q 380 611 307 635 q 496 588 453 588 q 538 610 522 588 q 554 656 554 633 m 554 369 l 729 342 q 688 179 729 239 q 540 119 646 119 q 415 143 481 119 q 289 167 349 167 q 233 144 263 167 q 203 99 203 121 l 28 126 q 84 294 28 239 q 250 349 140 349 q 380 325 307 349 q 496 301 453 301 q 538 324 522 301 q 554 369 554 347 z "},"≠":{"ha":768,"x_min":28,"x_max":740,"o":"m 740 100 l 389 100 l 335 -14 l 103 -14 l 153 100 l 43 100 l 28 299 l 242 299 l 285 397 l 43 397 l 28 596 l 372 596 l 429 718 l 664 718 l 610 596 l 726 596 l 740 397 l 521 397 l 476 299 l 726 299 l 740 100 z "},"≤":{"ha":536,"x_min":28,"x_max":508,"o":"m 453 219 l 38 447 l 38 560 l 453 785 l 499 594 l 311 504 l 499 413 l 453 219 m 508 0 l 43 0 l 28 171 l 494 171 l 508 0 z "},"≥":{"ha":536,"x_min":28,"x_max":508,"o":"m 83 785 l 499 557 l 499 444 l 83 219 l 38 410 l 225 500 l 38 592 l 83 785 m 508 0 l 43 0 l 28 171 l 494 171 l 508 0 z "},"‰":{"ha":1910,"x_min":28,"x_max":1882,"o":"m 1014 981 l 599 0 l 339 0 l 753 981 l 1014 981 m 271 468 q 92 536 156 468 q 28 721 28 604 q 95 906 28 838 q 278 975 163 975 q 465 905 399 975 q 531 718 531 835 q 460 535 531 603 q 271 468 389 468 m 339 718 q 326 780 339 757 q 281 803 314 803 q 236 783 253 803 q 219 721 219 764 q 232 658 219 679 q 275 636 244 636 q 324 656 308 636 q 339 718 339 676 m 1622 1 q 1443 69 1507 1 q 1379 254 1379 138 q 1447 440 1379 371 q 1629 508 1514 508 q 1816 438 1750 508 q 1882 251 1882 368 q 1811 69 1882 136 q 1622 1 1740 1 m 1065 1 q 886 69 950 1 q 822 254 822 138 q 890 440 822 371 q 1072 508 957 508 q 1259 438 1193 508 q 1325 251 1325 368 q 1254 69 1325 136 q 1065 1 1183 1 m 1690 251 q 1678 313 1690 290 q 1632 336 1665 336 q 1588 317 1604 336 q 1571 254 1571 297 q 1583 191 1571 213 q 1626 169 1596 169 q 1675 190 1660 169 q 1690 251 1690 210 m 1133 251 q 1121 313 1133 290 q 1075 336 1108 336 q 1031 317 1047 336 q 1014 254 1014 297 q 1026 191 1014 213 q 1069 169 1039 169 q 1118 190 1103 169 q 1133 251 1133 210 z "},"⁄":{"ha":689,"x_min":7,"x_max":682,"o":"m 682 981 l 267 0 l 7 0 l 421 981 l 682 981 z "},"◊":{"ha":822,"x_min":28,"x_max":794,"o":"m 364 0 l 28 381 l 28 451 l 363 833 l 461 833 l 794 451 l 794 381 l 460 0 l 364 0 m 253 413 l 411 226 l 571 413 l 411 600 l 253 413 z "},"©":{"ha":1257,"x_min":83,"x_max":1174,"o":"m 1174 467 q 1024 95 1174 249 q 628 -58 874 -58 q 234 95 385 -58 q 83 467 83 249 q 234 842 83 689 q 628 994 385 994 q 1024 842 874 994 q 1174 467 1174 689 m 271 468 q 369 216 271 318 q 628 114 467 114 q 887 216 790 114 q 983 468 983 318 q 894 722 983 619 q 628 824 806 824 q 369 722 467 824 q 271 468 271 619 m 785 571 q 724 596 750 589 q 667 603 699 603 q 587 567 622 603 q 551 467 551 531 q 587 372 551 404 q 667 339 622 339 q 723 346 696 339 q 785 371 750 353 l 846 219 q 738 169 794 179 q 644 160 681 160 q 413 240 501 160 q 324 467 324 319 q 413 698 324 614 q 644 782 501 782 q 738 772 681 782 q 846 722 794 763 l 785 571 z "},"®":{"ha":1035,"x_min":1,"x_max":950,"o":"m 950 660 q 822 328 950 464 q 475 192 694 192 q 129 328 257 192 q 1 660 1 464 q 129 995 1 858 q 475 1132 257 1132 q 822 995 694 1132 q 950 660 950 858 m 156 661 q 240 430 156 522 q 475 336 325 338 q 710 430 624 338 q 796 661 796 522 q 710 894 796 801 q 475 986 624 986 q 240 894 325 986 q 156 661 156 801 m 460 797 l 417 797 l 417 683 l 460 683 q 510 698 490 683 q 531 742 531 713 q 512 786 531 775 q 460 797 493 797 m 271 417 l 271 911 l 478 911 q 625 871 558 911 q 692 742 692 831 q 669 660 692 694 q 611 606 646 626 l 692 417 l 526 417 l 467 572 l 417 572 l 417 417 l 271 417 z "},"™":{"ha":1144,"x_min":42,"x_max":1103,"o":"m 190 403 l 190 800 l 42 800 l 42 944 l 510 944 l 526 800 l 364 800 l 364 403 l 190 403 m 928 403 l 928 639 l 876 582 l 804 574 l 738 646 l 738 403 l 564 403 l 564 944 l 690 944 l 840 768 q 910 856 871 811 q 979 944 949 901 l 1103 944 l 1103 403 l 928 403 z "},"&":{"ha":971,"x_min":56,"x_max":943,"o":"m 317 303 q 349 210 317 244 q 443 175 382 175 q 485 184 465 175 q 525 208 506 193 l 333 375 q 321 340 325 358 q 317 303 317 321 m 468 560 l 647 407 q 676 499 665 453 q 693 585 688 546 l 915 496 q 888 368 908 432 q 838 246 868 304 l 943 157 l 794 -26 l 692 63 q 573 -7 638 19 q 438 -33 508 -33 q 168 48 281 -33 q 56 294 56 129 q 88 425 56 360 q 175 538 121 490 q 141 606 153 571 q 129 685 129 642 q 217 882 129 797 q 443 967 304 967 q 594 946 524 967 q 724 882 664 925 l 656 710 q 564 748 608 736 q 476 760 519 760 q 401 734 425 760 q 376 681 376 708 q 399 628 376 654 q 468 560 421 603 z "},"@":{"ha":1156,"x_min":42,"x_max":1114,"o":"m 833 54 l 894 -86 q 732 -143 807 -132 q 589 -154 657 -154 q 207 -31 372 -154 q 42 331 42 92 q 192 708 42 542 q 615 875 342 875 q 972 742 829 875 q 1114 429 1114 610 q 1007 167 1114 258 q 788 75 900 75 q 735 82 761 75 q 690 106 710 89 q 638 86 665 93 q 581 79 611 79 q 384 146 447 79 q 321 318 321 213 q 407 536 321 447 q 614 625 493 625 q 633 624 624 625 q 651 622 642 624 l 775 607 l 832 532 l 800 278 q 801 269 800 272 q 803 265 801 265 q 868 307 829 265 q 907 422 907 349 q 840 604 907 522 q 624 686 774 686 q 365 586 467 686 q 263 321 263 486 q 365 97 263 172 q 601 22 468 22 q 710 29 635 22 q 833 54 786 36 m 524 329 q 536 294 524 311 q 578 276 549 276 q 598 288 590 276 q 607 313 606 299 l 625 451 q 548 416 572 451 q 524 329 524 381 z "},"^":{"ha":688,"x_min":28,"x_max":660,"o":"m 274 196 l 28 196 l 244 589 l 444 589 l 660 196 l 419 196 l 347 351 l 274 196 z "},"~":{"ha":729,"x_min":14,"x_max":715,"o":"m 540 556 l 715 556 q 674 347 715 431 q 526 264 632 264 q 401 288 467 264 q 275 311 335 311 q 219 288 249 311 q 189 243 189 265 l 14 243 q 70 451 14 368 q 236 535 126 535 q 366 511 293 535 q 482 488 439 488 q 524 510 508 488 q 540 556 540 533 z "},"§":{"ha":1001,"x_min":43,"x_max":960,"o":"m 304 542 q 347 488 304 511 q 446 433 389 464 q 541 380 493 410 q 628 315 589 350 q 681 344 663 325 q 699 383 699 363 q 653 437 699 408 q 553 492 607 465 q 461 542 508 514 q 374 606 414 571 q 322 582 340 600 q 304 542 304 564 m 269 800 l 269 815 q 365 1006 271 929 q 621 1083 460 1083 q 767 1063 692 1083 q 899 1006 843 1043 l 824 835 q 710 869 749 861 q 624 876 671 876 q 556 856 581 876 q 531 810 531 836 q 573 756 531 779 q 674 703 615 733 q 867 574 774 651 q 960 381 960 496 q 900 219 960 289 q 732 121 840 150 q 733 117 732 119 q 733 113 733 114 q 633 -86 733 -7 q 357 -165 532 -165 q 194 -144 285 -165 q 47 -89 103 -122 l 131 101 q 233 60 167 79 q 350 42 299 42 q 441 65 410 42 q 472 115 472 89 q 426 169 472 140 q 326 225 381 199 q 138 348 232 272 q 43 547 43 424 q 103 706 43 638 q 269 800 164 774 z "},"ª":{"ha":538,"x_min":42,"x_max":468,"o":"m 206 640 q 213 631 206 635 q 233 626 221 626 q 263 633 249 626 q 288 653 278 640 l 288 660 l 238 660 q 215 655 224 660 q 206 640 206 650 m 57 929 q 153 961 96 947 q 269 975 210 975 q 417 921 367 975 q 468 775 468 867 l 468 478 l 388 478 l 356 515 q 298 481 333 493 q 222 468 263 468 q 86 513 131 468 q 42 633 42 558 q 94 747 42 711 q 229 783 146 783 l 276 783 q 256 799 269 793 q 225 806 243 806 q 166 797 200 806 q 106 776 132 788 l 57 929 z "},"¬":{"ha":742,"x_min":14,"x_max":728,"o":"m 728 153 l 494 163 l 494 390 l 32 390 l 14 589 l 703 589 l 728 496 l 728 153 z "},"¶":{"ha":1490,"x_min":83,"x_max":1490,"o":"m 1490 944 l 1490 746 l 1299 746 l 1299 0 l 1046 0 l 1046 746 l 797 746 l 797 0 l 546 0 l 546 265 l 511 265 q 213 349 342 265 q 83 610 83 432 q 203 867 83 790 q 493 944 324 944 l 1490 944 z "},"º":{"ha":586,"x_min":42,"x_max":544,"o":"m 285 468 q 106 536 169 468 q 42 721 42 604 q 109 906 42 838 q 292 975 176 975 q 478 905 413 975 q 544 718 544 835 q 474 535 544 603 q 285 468 403 468 m 353 718 q 340 780 353 757 q 294 803 328 803 q 250 783 267 803 q 233 721 233 764 q 246 658 233 679 q 289 636 258 636 q 338 656 322 636 q 353 718 353 676 z "},"ऀ":{"ha":0,"x_min":-11,"x_max":733,"o":"m -11 1339 q 144 1498 36 1443 q 361 1553 253 1553 q 578 1498 469 1553 q 733 1339 686 1443 l 558 1232 q 482 1319 533 1282 q 361 1357 431 1357 q 240 1319 292 1357 q 164 1232 189 1282 l -11 1339 m 361 1285 q 444 1249 410 1285 q 479 1167 479 1214 q 444 1084 479 1119 q 361 1049 410 1049 q 278 1084 314 1049 q 243 1167 243 1119 q 278 1249 243 1214 q 361 1285 314 1285 z "},"ँ":{"ha":0,"x_min":172,"x_max":917,"o":"m 544 1300 q 461 1335 496 1300 q 426 1418 426 1371 q 461 1501 426 1465 q 544 1536 496 1536 q 627 1501 592 1536 q 663 1418 663 1465 q 627 1335 663 1371 q 544 1300 592 1300 m 917 1246 q 761 1087 869 1142 q 544 1032 653 1032 q 328 1087 436 1032 q 172 1246 219 1142 l 347 1353 q 424 1265 372 1303 q 544 1228 475 1228 q 665 1265 614 1228 q 742 1353 717 1303 l 917 1246 z "},"ं":{"ha":0,"x_min":6,"x_max":257,"o":"m 131 1071 q 42 1108 79 1071 q 6 1196 6 1144 q 42 1285 6 1247 q 131 1322 79 1322 q 219 1285 182 1322 q 257 1196 257 1247 q 219 1108 257 1144 q 131 1071 182 1071 z "},"ः":{"ha":335,"x_min":42,"x_max":293,"o":"m 167 496 q 78 533 115 496 q 42 621 42 569 q 78 710 42 672 q 167 747 115 747 q 256 710 218 747 q 293 621 293 672 q 256 533 293 569 q 167 496 218 496 m 167 51 q 78 88 115 51 q 42 176 42 125 q 78 265 42 228 q 167 303 115 303 q 256 265 218 303 q 293 176 293 228 q 256 88 293 125 q 167 51 218 51 z "},"ऄ":{"ha":1369,"x_min":75,"x_max":1385,"o":"m 564 1326 l 781 1297 q 797 1244 781 1258 q 842 1231 814 1231 l 938 1231 q 1139 1165 1063 1229 q 1215 1013 1215 1100 l 1215 944 l 1361 944 l 1385 746 l 1228 746 l 1228 -22 l 975 0 l 975 392 l 729 392 q 762 327 750 365 q 774 249 774 289 q 685 57 774 136 q 390 -22 597 -22 q 225 -3 307 -22 q 75 50 143 17 l 119 254 q 242 201 176 222 q 369 181 307 181 q 481 208 442 181 q 521 283 521 236 q 481 367 521 340 q 369 394 440 394 l 213 394 l 186 581 l 369 581 q 468 609 435 581 q 501 681 501 638 q 473 744 501 719 q 382 768 444 768 q 276 753 331 768 q 144 704 222 739 l 96 903 q 246 951 163 932 q 399 971 329 971 q 669 898 585 971 q 754 703 754 825 q 740 633 754 669 q 708 581 726 597 l 975 581 l 975 746 l 836 746 l 814 944 l 990 944 l 990 951 q 966 1010 990 990 q 914 1031 942 1031 l 839 1031 q 639 1090 714 1032 q 564 1240 564 1149 l 564 1326 z "},"अ":{"ha":1369,"x_min":75,"x_max":1385,"o":"m 975 0 l 975 392 l 729 392 q 762 327 750 365 q 774 249 774 289 q 685 57 774 136 q 390 -22 597 -22 q 225 -3 307 -22 q 75 50 143 17 l 119 254 q 242 201 176 222 q 369 181 307 181 q 481 208 442 181 q 521 283 521 236 q 481 367 521 340 q 369 394 440 394 l 213 394 l 186 581 l 369 581 q 468 609 435 581 q 501 681 501 638 q 473 744 501 719 q 382 768 444 768 q 276 753 331 768 q 144 704 222 739 l 96 903 q 246 951 163 932 q 399 971 329 971 q 669 898 585 971 q 754 703 754 825 q 740 633 754 669 q 708 581 726 597 l 975 581 l 975 746 l 836 746 l 814 944 l 1361 944 l 1385 746 l 1228 746 l 1228 -22 l 975 0 z "},"आ":{"ha":1885,"x_min":75,"x_max":1900,"o":"m 975 0 l 975 392 l 729 392 q 762 327 750 365 q 774 249 774 289 q 685 57 774 136 q 390 -22 597 -22 q 225 -3 307 -22 q 75 50 143 17 l 119 254 q 242 201 176 222 q 369 181 307 181 q 481 208 442 181 q 521 283 521 236 q 481 367 521 340 q 369 394 440 394 l 213 394 l 186 581 l 369 581 q 468 609 435 581 q 501 681 501 638 q 473 744 501 719 q 382 768 444 768 q 276 753 331 768 q 144 704 222 739 l 96 903 q 246 951 163 932 q 399 971 329 971 q 669 898 585 971 q 754 703 754 825 q 740 633 754 669 q 708 581 726 597 l 975 581 l 975 746 l 836 746 l 814 944 l 1876 944 l 1900 746 l 1743 746 l 1743 -22 l 1490 0 l 1490 746 l 1228 746 l 1228 -22 l 975 0 z "},"इ":{"ha":789,"x_min":-15,"x_max":804,"o":"m 339 185 q 369 182 354 183 q 397 181 383 181 q 463 192 439 181 q 486 225 486 204 q 476 249 486 239 q 449 258 465 258 l 339 258 q 163 318 243 258 q 83 485 83 378 q 156 652 83 597 q 336 707 229 707 l 447 707 l 447 746 l 7 746 l -15 944 l 781 944 l 804 746 l 665 746 l 665 507 l 357 507 q 331 501 340 507 q 322 485 322 494 q 332 466 322 475 q 358 457 342 457 l 440 457 q 657 408 571 457 q 743 229 743 358 q 668 65 743 138 q 453 -19 593 -8 l 465 -42 l 538 -137 l 374 -256 l 197 -18 q 111 48 153 4 q 69 156 69 92 q 103 236 69 206 q 185 267 136 267 q 272 243 232 267 q 339 185 313 219 z "},"ई":{"ha":789,"x_min":-15,"x_max":804,"o":"m 339 185 q 369 182 354 183 q 397 181 383 181 q 463 192 439 181 q 486 225 486 204 q 476 249 486 239 q 449 258 465 258 l 339 258 q 163 318 243 258 q 83 485 83 378 q 156 652 83 597 q 336 707 229 707 l 447 707 l 447 746 l 7 746 l -15 944 l 390 944 q 365 1022 375 976 q 354 1094 354 1067 q 415 1258 354 1185 q 593 1331 475 1331 q 710 1309 657 1331 q 790 1256 763 1288 l 693 1090 q 653 1117 669 1111 q 621 1122 638 1122 q 587 1106 599 1122 q 575 1071 575 1090 q 590 1005 575 1042 q 619 944 604 968 l 781 944 l 804 746 l 665 746 l 665 507 l 357 507 q 331 501 340 507 q 322 485 322 494 q 332 466 322 475 q 358 457 342 457 l 440 457 q 657 408 571 457 q 743 229 743 358 q 668 65 743 138 q 453 -19 593 -8 l 465 -42 l 538 -137 l 374 -256 l 197 -18 q 111 48 153 4 q 69 156 69 92 q 103 236 69 206 q 185 267 136 267 q 272 243 232 267 q 339 185 313 219 z "},"उ":{"ha":885,"x_min":-15,"x_max":900,"o":"m 900 746 l 768 746 q 770 724 769 736 q 771 703 771 713 q 743 571 771 629 q 672 476 715 513 q 756 395 721 450 q 790 261 790 340 q 702 63 790 149 q 407 -22 614 -22 q 242 -3 324 -22 q 92 50 160 17 l 136 254 q 258 201 193 222 q 386 181 324 181 q 498 208 458 181 q 538 283 538 236 q 497 367 538 340 q 386 394 457 394 l 229 394 l 203 581 l 386 581 q 485 609 451 581 q 518 681 518 638 q 510 717 518 700 q 486 746 503 735 l 7 746 l -15 944 l 876 944 l 900 746 z "},"ऊ":{"ha":1296,"x_min":-15,"x_max":1311,"o":"m 1032 278 q 999 351 1032 325 q 913 378 965 378 q 835 360 865 378 q 783 321 806 343 q 788 292 786 307 q 790 261 790 276 q 702 63 790 149 q 407 -22 614 -22 q 242 -3 324 -22 q 92 50 160 17 l 136 254 q 258 201 193 222 q 386 181 324 181 q 498 208 458 181 q 538 283 538 236 q 497 367 538 340 q 386 394 457 394 l 229 394 l 203 581 l 386 581 q 485 609 451 581 q 518 681 518 638 q 510 717 518 700 q 486 746 503 735 l 7 746 l -15 944 l 1288 944 l 1311 746 l 768 746 q 770 724 769 736 q 771 703 771 713 q 743 571 771 629 q 672 476 715 513 l 689 467 q 781 540 719 506 q 925 575 842 575 q 1167 499 1074 575 q 1261 294 1261 424 q 1160 53 1261 124 q 935 -22 1058 -17 l 900 175 q 998 203 964 175 q 1032 278 1032 231 z "},"ऋ":{"ha":1310,"x_min":-15,"x_max":1325,"o":"m 504 0 l 504 204 l 235 38 l 103 219 l 415 408 q 350 444 381 433 q 293 456 319 456 q 235 440 282 456 q 132 399 188 425 l 40 603 q 174 650 94 629 q 281 671 254 671 q 406 658 363 671 q 504 615 449 644 l 504 746 l 7 746 l -15 944 l 1301 944 l 1325 746 l 757 746 l 757 511 q 817 524 786 515 q 867 540 849 532 q 858 573 861 556 q 854 610 854 590 q 890 697 854 669 q 975 725 926 725 q 1111 685 1057 725 q 1165 578 1165 644 q 1160 536 1165 564 q 1146 500 1156 508 q 1229 397 1201 461 q 1257 285 1257 332 q 1182 100 1257 164 q 982 36 1107 36 q 906 44 943 36 q 826 67 869 51 l 882 258 q 935 242 919 247 q 968 238 950 238 q 1003 247 990 238 q 1015 275 1015 257 q 1008 318 1015 292 q 985 374 1001 344 q 876 332 943 349 q 757 310 808 315 l 757 -22 l 504 0 z "},"ऌ":{"ha":1254,"x_min":-15,"x_max":1269,"o":"m 942 -43 q 961 -73 942 -62 q 1015 -83 981 -83 q 1058 -80 1028 -83 q 1108 -69 1089 -76 l 1149 -258 q 1085 -275 1125 -268 q 999 -282 1044 -282 q 820 -223 907 -282 q 733 -47 733 -164 q 769 80 733 26 q 860 161 806 133 l 860 399 q 832 447 851 428 q 790 465 813 465 q 740 433 760 465 q 719 351 719 401 l 719 171 l 501 193 l 501 351 q 482 432 501 401 q 417 463 463 463 q 360 441 382 463 q 338 393 338 419 q 358 271 338 335 q 465 29 378 207 l 232 -36 q 120 210 157 113 q 83 413 83 308 q 172 597 83 524 q 401 671 261 671 q 527 641 472 671 q 607 576 582 611 q 678 641 633 611 q 797 671 724 671 q 827 669 813 671 q 860 661 842 667 l 860 746 l 7 746 l -15 944 l 1246 944 l 1269 746 l 1113 746 l 1113 -11 l 988 -11 q 956 -19 969 -11 q 942 -43 942 -28 z "},"ऍ":{"ha":1092,"x_min":-15,"x_max":1107,"o":"m 911 1246 q 758 1087 864 1142 q 544 1032 653 1032 q 331 1087 436 1032 q 178 1246 225 1142 l 353 1353 q 426 1265 378 1303 q 544 1228 475 1228 q 663 1265 614 1228 q 736 1353 711 1303 l 911 1246 m 703 422 l 703 746 l 399 746 l 399 258 q 406 203 399 232 q 449 151 414 174 l 790 -62 l 672 -251 l 275 -12 q 173 84 200 32 q 146 231 146 136 l 146 746 l 7 746 l -15 944 l 1083 944 l 1107 746 l 956 746 l 956 390 q 877 217 956 283 q 653 104 799 151 l 547 293 q 666 348 629 321 q 703 422 703 375 z "},"ऎ":{"ha":1092,"x_min":-15,"x_max":1107,"o":"m 135 1326 l 351 1297 q 368 1244 351 1258 q 413 1231 385 1231 l 668 1231 q 869 1165 793 1231 q 946 1013 946 1100 l 946 944 l 1083 944 l 1107 746 l 956 746 l 956 390 q 877 217 956 283 q 653 104 799 151 l 547 293 q 666 348 629 321 q 703 422 703 375 l 703 746 l 399 746 l 399 258 q 406 203 399 232 q 449 151 414 174 l 790 -62 l 672 -251 l 275 -12 q 173 84 200 32 q 146 231 146 136 l 146 746 l 7 746 l -15 944 l 721 944 l 721 951 q 697 1010 721 990 q 644 1031 672 1031 l 410 1031 q 210 1090 285 1031 q 135 1240 135 1149 l 135 1326 z "},"ए":{"ha":1092,"x_min":-15,"x_max":1107,"o":"m 703 422 l 703 746 l 399 746 l 399 258 q 406 203 399 232 q 449 151 414 174 l 790 -62 l 672 -251 l 275 -12 q 173 84 200 32 q 146 231 146 136 l 146 746 l 7 746 l -15 944 l 1083 944 l 1107 746 l 956 746 l 956 390 q 877 217 956 283 q 653 104 799 151 l 547 293 q 666 348 629 321 q 703 422 703 375 z "},"ऐ":{"ha":1092,"x_min":-15,"x_max":1107,"o":"m 703 422 l 703 746 l 399 746 l 399 258 q 406 203 399 232 q 449 151 414 174 l 790 -62 l 672 -251 l 275 -12 q 173 84 200 32 q 146 231 146 136 l 146 746 l 7 746 l -15 944 l 631 944 l 315 1228 l 513 1340 l 907 944 l 1083 944 l 1107 746 l 956 746 l 956 390 q 877 217 956 283 q 653 104 799 151 l 547 293 q 666 348 629 321 q 703 422 703 375 z "},"ऑ":{"ha":1885,"x_min":75,"x_max":1900,"o":"m 1742 1246 q 1589 1087 1694 1142 q 1375 1032 1483 1032 q 1161 1087 1267 1032 q 1008 1246 1056 1142 l 1183 1353 q 1257 1265 1208 1303 q 1375 1228 1306 1228 q 1493 1265 1444 1228 q 1567 1353 1542 1303 l 1742 1246 m 975 0 l 975 392 l 729 392 q 762 327 750 365 q 774 249 774 289 q 685 57 774 136 q 390 -22 597 -22 q 225 -3 307 -22 q 75 50 143 17 l 119 254 q 242 201 176 222 q 369 181 307 181 q 481 208 442 181 q 521 283 521 236 q 481 367 521 340 q 369 394 440 394 l 213 394 l 186 581 l 369 581 q 468 609 435 581 q 501 681 501 638 q 473 744 501 719 q 382 768 444 768 q 276 753 331 768 q 144 704 222 739 l 96 903 q 246 951 163 932 q 399 971 329 971 q 669 898 585 971 q 754 703 754 825 q 740 633 754 669 q 708 581 726 597 l 975 581 l 975 746 l 836 746 l 814 944 l 1876 944 l 1900 746 l 1743 746 l 1743 -22 l 1490 0 l 1490 746 l 1228 746 l 1228 -22 l 975 0 z "},"ऒ":{"ha":1885,"x_min":75,"x_max":1900,"o":"m 975 0 l 975 392 l 729 392 q 762 327 750 365 q 774 249 774 289 q 685 57 774 136 q 390 -22 597 -22 q 225 -3 307 -22 q 75 50 143 17 l 119 254 q 242 201 176 222 q 369 181 307 181 q 481 208 442 181 q 521 283 521 236 q 481 367 521 340 q 369 394 440 394 l 213 394 l 186 581 l 369 581 q 468 609 435 581 q 501 681 501 638 q 473 744 501 719 q 382 768 444 768 q 276 753 331 768 q 144 704 222 739 l 96 903 q 246 951 163 932 q 399 971 329 971 q 669 898 585 971 q 754 703 754 825 q 740 633 754 669 q 708 581 726 597 l 975 581 l 975 746 l 836 746 l 814 944 l 1508 944 l 1508 951 q 1484 1010 1508 990 q 1432 1031 1460 1031 l 1197 1031 q 997 1090 1072 1031 q 922 1240 922 1149 l 922 1326 l 1139 1297 q 1156 1244 1139 1258 q 1200 1231 1172 1231 l 1456 1231 q 1657 1165 1581 1231 q 1733 1013 1733 1100 l 1733 944 l 1876 944 l 1900 746 l 1743 746 l 1743 -22 l 1490 0 l 1490 746 l 1228 746 l 1228 -22 l 975 0 z "},"ओ":{"ha":1885,"x_min":75,"x_max":1900,"o":"m 975 0 l 975 392 l 729 392 q 762 327 750 365 q 774 249 774 289 q 685 57 774 136 q 390 -22 597 -22 q 225 -3 307 -22 q 75 50 143 17 l 119 254 q 242 201 176 222 q 369 181 307 181 q 481 208 442 181 q 521 283 521 236 q 481 367 521 340 q 369 394 440 394 l 213 394 l 186 581 l 369 581 q 468 609 435 581 q 501 681 501 638 q 473 744 501 719 q 382 768 444 768 q 276 753 331 768 q 144 704 222 739 l 96 903 q 246 951 163 932 q 399 971 329 971 q 669 898 585 971 q 754 703 754 825 q 740 633 754 669 q 708 581 726 597 l 975 581 l 975 746 l 836 746 l 814 944 l 1418 944 l 1103 1228 l 1300 1340 l 1694 944 l 1876 944 l 1900 746 l 1743 746 l 1743 -22 l 1490 0 l 1490 746 l 1228 746 l 1228 -22 l 975 0 z "},"औ":{"ha":1885,"x_min":75,"x_max":1900,"o":"m 975 0 l 975 392 l 729 392 q 762 327 750 365 q 774 249 774 289 q 685 57 774 136 q 390 -22 597 -22 q 225 -3 307 -22 q 75 50 143 17 l 119 254 q 242 201 176 222 q 369 181 307 181 q 481 208 442 181 q 521 283 521 236 q 481 367 521 340 q 369 394 440 394 l 213 394 l 186 581 l 369 581 q 468 609 435 581 q 501 681 501 638 q 473 744 501 719 q 382 768 444 768 q 276 753 331 768 q 144 704 222 739 l 96 903 q 246 951 163 932 q 399 971 329 971 q 669 898 585 971 q 754 703 754 825 q 740 633 754 669 q 708 581 726 597 l 975 581 l 975 746 l 836 746 l 814 944 l 1467 944 q 1408 980 1449 960 q 1300 1000 1368 1000 l 1147 1000 l 1100 1210 l 1292 1210 q 1344 1209 1318 1210 q 1394 1203 1371 1208 q 1366 1283 1383 1238 q 1339 1357 1349 1328 l 1561 1419 l 1672 944 l 1876 944 l 1900 746 l 1743 746 l 1743 -22 l 1490 0 l 1490 746 l 1228 746 l 1228 -22 l 975 0 z "},"क":{"ha":1306,"x_min":-15,"x_max":1321,"o":"m 531 331 l 531 419 q 496 459 521 435 q 426 483 471 483 q 338 451 368 483 q 308 375 308 419 q 338 299 308 331 q 426 267 368 267 q 496 291 471 267 q 531 331 521 315 m 874 267 q 972 297 938 267 q 1006 375 1006 328 q 979 451 1006 419 q 894 483 953 483 q 822 459 850 483 q 783 419 793 435 l 783 -22 l 531 0 l 531 101 q 473 81 521 92 q 379 69 425 69 q 142 156 232 69 q 51 375 51 243 q 142 594 51 507 q 379 681 232 681 q 473 669 425 681 q 531 649 521 658 l 531 746 l 7 746 l -15 944 l 1297 944 l 1321 746 l 783 746 l 783 642 q 841 666 793 651 q 935 681 889 681 q 1172 594 1082 681 q 1263 375 1263 507 q 1161 131 1263 204 q 936 53 1060 58 l 874 267 z "},"ख":{"ha":1511,"x_min":-15,"x_max":1526,"o":"m 789 185 q 701 284 733 224 q 668 415 668 344 q 756 619 668 536 q 978 703 843 703 q 1063 692 1019 703 q 1117 674 1107 682 l 1117 746 l 585 746 q 599 685 594 717 q 603 631 603 654 q 561 454 603 521 q 454 353 519 388 q 569 235 493 289 q 736 181 644 181 q 763 182 750 181 q 789 185 776 183 m 913 415 q 940 346 913 375 q 1021 317 968 317 q 1085 339 1063 317 q 1117 375 1108 361 l 1117 457 q 1085 493 1108 471 q 1021 515 1063 515 q 940 486 968 515 q 913 415 913 457 m 1117 0 l 1117 88 q 947 -2 1046 32 q 724 -36 849 -36 q 379 69 510 -36 q 196 300 249 174 l 183 300 q 86 320 118 300 q 47 375 54 340 q 107 525 47 458 q 242 592 167 592 q 283 574 264 592 q 315 532 303 556 q 347 581 336 547 q 357 639 357 615 q 347 701 357 669 q 314 746 336 732 l 7 746 l -15 944 l 1503 944 l 1526 746 l 1369 746 l 1369 -22 l 1117 0 z "},"ग":{"ha":1100,"x_min":-15,"x_max":1115,"o":"m 454 746 l 453 275 q 422 172 453 208 q 321 135 392 135 q 153 203 235 135 q 71 375 71 272 q 109 470 71 443 q 201 497 147 497 l 201 746 l 7 746 l -15 944 l 1092 944 l 1115 746 l 958 746 l 958 -22 l 706 0 l 706 746 l 454 746 z "},"घ":{"ha":1079,"x_min":-15,"x_max":1094,"o":"m 685 0 l 685 132 q 583 82 651 101 q 454 63 514 63 q 204 128 310 63 q 99 351 99 194 q 126 458 99 400 q 192 542 153 515 q 133 617 154 574 q 113 706 113 661 q 113 724 113 711 q 115 746 114 736 l 7 746 l -15 944 l 1071 944 l 1094 746 l 938 746 l 938 -22 l 685 0 m 685 489 l 685 746 l 368 746 q 360 725 363 740 q 358 700 358 710 q 380 653 358 672 q 450 633 401 633 l 536 633 l 571 438 l 444 438 q 376 413 399 438 q 354 356 354 388 q 383 299 354 322 q 457 276 413 276 q 609 331 533 276 q 685 489 685 385 z "},"ङ":{"ha":981,"x_min":-15,"x_max":996,"o":"m 860 351 q 772 388 808 351 q 735 476 735 425 q 772 565 735 528 q 860 603 808 603 q 949 565 911 603 q 986 476 986 528 q 949 388 986 425 q 860 351 911 351 m 121 254 q 256 201 178 222 q 397 181 335 181 q 463 192 439 181 q 486 225 486 204 q 476 249 486 239 q 449 258 465 258 l 339 258 q 163 318 243 258 q 83 485 83 378 q 156 652 83 597 q 336 707 229 707 l 447 707 l 447 746 l 7 746 l -15 944 l 972 944 l 996 746 l 665 746 l 665 507 l 357 507 q 331 501 340 507 q 322 485 322 494 q 332 466 322 475 q 358 457 342 457 l 440 457 q 657 408 571 457 q 743 229 743 358 q 657 53 743 129 q 408 -22 571 -22 q 235 -3 325 -22 q 76 50 144 17 l 121 254 z "},"च":{"ha":1050,"x_min":-15,"x_max":1065,"o":"m 656 0 l 656 92 q 574 74 617 81 q 500 67 531 67 q 251 142 357 67 q 144 361 144 217 q 148 406 144 383 q 158 449 151 428 l 40 449 l 18 647 l 563 647 l 590 449 l 507 449 q 419 425 449 449 q 390 361 390 401 q 423 296 390 319 q 500 272 456 272 q 592 296 539 272 q 656 356 644 319 l 656 746 l 7 746 l -15 944 l 1042 944 l 1065 746 l 908 746 l 908 -22 l 656 0 z "},"छ":{"ha":1168,"x_min":-15,"x_max":1183,"o":"m 207 488 q 145 581 168 526 q 122 682 122 635 q 124 712 122 696 q 131 746 126 728 l 7 746 l -15 944 l 1160 944 l 1183 746 l 981 746 l 981 689 q 1058 600 1032 658 q 1083 472 1083 542 q 919 135 1083 290 q 508 -21 756 -21 q 213 63 322 -21 q 104 288 104 147 q 131 401 104 347 q 207 488 158 456 m 779 326 q 669 384 713 332 q 625 511 625 436 q 660 625 625 575 q 756 699 696 675 l 756 746 l 419 746 q 390 714 397 735 q 383 681 383 693 q 409 615 383 644 q 499 586 435 586 l 540 586 l 564 388 l 506 388 q 396 363 426 388 q 365 294 365 338 q 410 229 365 253 q 518 206 454 206 q 670 238 596 206 q 779 326 744 271 z "},"ज":{"ha":1175,"x_min":-15,"x_max":1190,"o":"m 781 0 l 781 442 l 663 442 q 671 402 668 424 q 674 360 674 381 q 574 124 674 207 q 326 40 475 40 q 158 65 240 40 q 15 128 75 89 l 53 354 q 179 273 114 300 q 315 246 244 246 q 405 277 369 246 q 440 351 440 308 q 414 415 440 389 q 340 442 388 442 l 235 442 l 207 639 l 781 639 l 781 746 l 7 746 l -15 944 l 1167 944 l 1190 746 l 1033 746 l 1033 -22 l 781 0 z "},"झ":{"ha":1274,"x_min":-15,"x_max":1289,"o":"m 879 746 l 665 746 l 665 507 l 357 507 q 331 501 340 507 q 322 485 322 494 q 332 466 322 475 q 358 457 342 457 l 440 457 q 582 440 518 457 q 686 385 646 424 l 879 385 l 879 746 m 339 185 q 369 182 354 183 q 397 181 383 181 q 463 192 439 181 q 486 225 486 204 q 476 249 486 239 q 449 258 465 258 l 339 258 q 163 318 243 258 q 83 485 83 378 q 156 652 83 597 q 336 707 229 707 l 447 707 l 447 746 l 7 746 l -15 944 l 1265 944 l 1289 746 l 1132 746 l 1132 -22 l 879 0 l 879 206 l 742 206 q 659 56 732 121 q 453 -19 586 -10 l 465 -42 l 538 -137 l 374 -256 l 197 -18 q 111 48 153 4 q 69 156 69 92 q 103 236 69 206 q 185 267 136 267 q 272 243 232 267 q 339 185 313 219 z "},"ञ":{"ha":1197,"x_min":-15,"x_max":1213,"o":"m 803 0 l 803 269 l 676 269 q 553 108 649 161 q 339 56 457 56 q 176 81 260 56 q 31 147 92 106 l 78 375 q 210 288 140 314 q 332 263 281 263 q 415 294 383 263 q 447 376 447 325 q 418 456 447 424 q 333 488 389 488 q 269 483 307 488 q 174 463 231 479 l 119 656 q 244 688 193 682 q 339 693 294 693 q 553 637 457 693 q 679 471 649 581 l 803 471 l 803 746 l 7 746 l -15 944 l 1189 944 l 1213 746 l 1056 746 l 1056 -22 l 803 0 z "},"ट":{"ha":968,"x_min":-15,"x_max":983,"o":"m 881 50 q 737 -1 831 21 q 539 -22 643 -22 q 216 59 347 -22 q 85 319 85 140 q 219 566 85 482 q 546 650 353 650 l 546 746 l 7 746 l -15 944 l 960 944 l 983 746 l 799 746 l 799 456 l 554 456 q 403 420 458 456 q 347 317 347 385 q 414 205 347 233 q 558 176 481 176 q 708 197 636 176 q 836 249 779 217 l 881 50 z "},"ठ":{"ha":1022,"x_min":-15,"x_max":1038,"o":"m 511 -24 q 216 56 347 -24 q 85 319 85 135 q 170 538 85 460 q 389 639 256 617 l 389 746 l 7 746 l -15 944 l 1014 944 l 1038 746 l 642 746 l 642 639 q 853 545 765 618 q 942 321 942 472 q 815 64 942 151 q 511 -24 689 -24 m 511 171 q 631 209 586 171 q 676 314 676 247 q 632 417 676 378 q 513 456 588 456 q 394 416 442 456 q 347 313 347 376 q 392 208 347 244 q 511 171 436 171 z "},"ड":{"ha":789,"x_min":-15,"x_max":804,"o":"m 121 254 q 256 201 178 222 q 397 181 335 181 q 463 192 439 181 q 486 225 486 204 q 476 249 486 239 q 449 258 465 258 l 339 258 q 163 318 243 258 q 83 485 83 378 q 156 652 83 597 q 336 707 229 707 l 447 707 l 447 746 l 7 746 l -15 944 l 781 944 l 804 746 l 665 746 l 665 507 l 357 507 q 331 501 340 507 q 322 485 322 494 q 332 466 322 475 q 358 457 342 457 l 440 457 q 657 408 571 457 q 743 229 743 358 q 657 53 743 129 q 408 -22 571 -22 q 235 -3 325 -22 q 76 50 144 17 l 121 254 z "},"ढ":{"ha":964,"x_min":-15,"x_max":979,"o":"m 521 -26 q 217 51 360 -26 q 75 347 75 129 q 212 608 75 525 q 539 692 349 692 l 539 746 l 7 746 l -15 944 l 956 944 l 979 746 l 792 746 l 792 497 l 539 497 q 385 454 439 497 q 332 332 332 411 q 368 226 332 276 q 492 172 404 176 q 483 206 486 186 q 481 236 481 226 q 537 371 481 319 q 679 422 593 422 q 817 365 763 422 q 871 221 871 307 q 779 47 871 119 q 521 -26 688 -26 z "},"ण":{"ha":1460,"x_min":-15,"x_max":1475,"o":"m 833 435 q 717 188 833 268 q 468 107 601 107 q 219 188 335 107 q 103 435 103 268 l 103 746 l 7 746 l -15 944 l 1451 944 l 1475 746 l 1318 746 l 1318 -22 l 1065 0 l 1065 746 l 833 746 l 833 435 m 596 475 l 596 746 l 340 746 l 340 475 q 374 352 340 392 q 468 313 407 313 q 563 352 529 313 q 596 475 596 392 z "},"त":{"ha":1025,"x_min":-15,"x_max":1040,"o":"m 631 0 l 631 424 l 399 424 q 347 408 369 424 q 325 363 325 393 q 372 226 325 315 q 490 24 419 138 l 267 -31 q 143 176 208 60 q 78 389 78 293 q 151 570 78 518 q 340 622 225 622 l 631 622 l 631 746 l 7 746 l -15 944 l 1017 944 l 1040 746 l 883 746 l 883 -22 l 631 0 z "},"थ":{"ha":1106,"x_min":67,"x_max":1121,"o":"m 711 0 l 711 221 q 620 194 676 200 q 519 189 564 189 q 284 276 388 189 q 181 485 181 363 l 226 535 q 264 565 246 542 q 288 619 282 588 q 266 615 278 617 q 243 614 254 614 q 121 657 175 614 q 67 778 67 700 q 127 915 67 861 q 281 969 188 969 q 472 881 404 969 q 539 674 539 793 q 519 556 539 622 q 449 450 499 489 q 494 413 467 431 q 567 396 522 396 q 661 420 619 396 q 711 479 703 444 l 711 746 l 615 746 l 593 944 l 1097 944 l 1121 746 l 964 746 l 964 -22 l 711 0 z "},"द":{"ha":904,"x_min":-15,"x_max":919,"o":"m 861 -1 l 644 -82 l 560 74 q 515 69 538 71 q 475 68 492 68 q 192 153 301 68 q 83 403 83 238 q 193 627 83 543 q 454 711 303 711 l 454 746 l 7 746 l -15 944 l 896 944 l 919 746 l 719 746 l 719 519 l 490 519 q 356 490 408 519 q 304 399 304 460 q 353 301 304 339 q 475 264 401 264 q 517 353 481 319 q 606 386 554 386 q 741 347 679 386 q 803 243 803 307 q 792 201 803 221 q 765 160 782 182 q 799 103 779 136 q 861 -1 818 71 z "},"ध":{"ha":1083,"x_min":61,"x_max":1099,"o":"m 499 633 l 533 438 l 407 438 q 339 413 361 438 q 317 356 317 388 q 349 295 317 322 q 440 268 381 268 q 603 333 517 268 q 689 503 689 399 l 689 746 l 597 746 l 575 944 l 1075 944 l 1099 746 l 942 746 l 942 -22 l 689 0 l 689 132 q 576 78 656 101 q 438 54 497 54 q 173 122 285 54 q 61 351 61 189 q 88 458 61 400 q 154 542 115 515 q 96 619 117 574 q 75 710 75 665 q 145 888 75 813 q 335 963 215 963 q 456 940 403 963 q 538 889 510 917 l 419 729 q 393 738 404 735 q 367 740 382 740 q 334 728 347 740 q 321 700 321 715 q 342 653 321 672 q 413 633 364 633 l 499 633 z "},"न":{"ha":958,"x_min":-15,"x_max":1001,"o":"m 592 0 l 592 364 l 382 364 q 358 265 382 310 q 267 219 335 219 q 92 297 164 219 q 19 460 19 374 q 51 532 19 501 q 139 563 83 563 l 592 563 l 592 746 l 7 746 l -15 944 l 978 944 l 1001 746 l 844 746 l 844 -22 l 592 0 z "},"ऩ":{"ha":986,"x_min":-15,"x_max":1001,"o":"m 592 0 l 592 364 l 382 364 q 358 265 382 310 q 267 219 335 219 q 92 297 164 219 q 19 460 19 374 q 51 532 19 501 q 139 563 83 563 l 592 563 l 592 746 l 7 746 l -15 944 l 978 944 l 1001 746 l 844 746 l 844 -22 l 592 0 m 235 -124 q 147 -87 183 -124 q 110 1 110 -50 q 147 90 110 53 q 235 128 183 128 q 324 90 286 128 q 361 1 361 53 q 324 -87 361 -50 q 235 -124 286 -124 z "},"प":{"ha":1031,"x_min":-15,"x_max":1046,"o":"m 636 0 l 636 200 q 567 174 614 185 q 478 163 521 163 q 231 243 344 163 q 117 490 117 324 l 117 746 l 7 746 l -15 944 l 1022 944 l 1046 746 l 889 746 l 889 -22 l 636 0 m 636 453 l 636 746 l 354 746 l 354 531 q 391 406 354 443 q 496 368 428 368 q 588 396 554 368 q 636 453 622 424 z "},"फ":{"ha":1411,"x_min":-15,"x_max":1426,"o":"m 636 453 l 636 746 l 354 746 l 354 531 q 391 406 354 443 q 496 368 428 368 q 591 395 554 368 q 636 453 628 422 m 636 0 l 636 200 q 567 174 614 185 q 478 163 521 163 q 231 243 344 163 q 117 490 117 324 l 117 746 l 7 746 l -15 944 l 1403 944 l 1426 746 l 889 746 l 889 633 q 947 658 899 643 q 1040 672 994 672 q 1278 585 1188 672 q 1368 367 1368 499 q 1267 123 1368 196 q 1042 44 1165 50 l 979 258 q 1077 289 1043 258 q 1111 367 1111 319 q 1085 443 1111 411 q 1000 475 1058 475 q 927 451 956 475 q 889 411 899 426 l 889 -22 l 636 0 z "},"ब":{"ha":932,"x_min":-15,"x_max":947,"o":"m 379 69 q 142 156 232 69 q 51 375 51 243 q 142 594 51 507 q 379 681 232 681 q 472 670 422 681 q 538 650 522 660 l 538 746 l 7 746 l -15 944 l 924 944 l 947 746 l 790 746 l 790 -22 l 538 0 l 538 99 q 472 79 522 89 q 379 69 422 69 m 532 318 l 538 325 l 538 424 q 500 462 526 440 q 432 483 474 483 q 410 481 421 483 q 390 478 400 479 l 532 318 m 308 375 q 341 299 308 331 q 432 267 374 267 q 444 267 438 267 q 456 269 450 268 l 319 424 q 311 401 314 414 q 308 375 308 388 z "},"भ":{"ha":1186,"x_min":67,"x_max":1201,"o":"m 792 0 l 792 246 l 522 246 q 499 147 522 192 q 407 101 475 101 q 232 178 304 101 q 160 342 160 256 q 192 414 160 383 q 283 444 224 444 l 283 564 l 274 564 q 124 619 182 564 q 67 771 67 675 q 128 914 67 858 q 282 969 190 969 q 458 903 393 969 q 522 710 522 836 l 522 444 l 792 444 l 792 746 l 653 746 l 631 944 l 1178 944 l 1201 746 l 1044 746 l 1044 -22 l 792 0 z "},"म":{"ha":1074,"x_min":-15,"x_max":1089,"o":"m 679 0 l 679 246 l 410 246 q 386 147 410 192 q 294 101 363 101 q 119 178 192 101 q 47 342 47 256 q 79 414 47 383 q 167 444 111 444 l 172 444 l 172 746 l 7 746 l -15 944 l 1065 944 l 1089 746 l 932 746 l 932 -22 l 679 0 m 679 444 l 679 746 l 410 746 l 410 444 l 679 444 z "},"य":{"ha":985,"x_min":-15,"x_max":1000,"o":"m 590 0 l 590 219 q 500 194 554 200 q 401 189 446 189 q 166 276 269 189 q 63 485 63 363 l 108 535 q 152 575 132 544 q 172 649 172 606 q 158 703 172 671 q 126 746 144 735 l 7 746 l -15 944 l 976 944 l 1000 746 l 843 746 l 843 -22 l 590 0 m 331 450 q 376 413 349 431 q 449 396 404 396 q 539 417 499 396 q 590 471 579 439 l 590 746 l 403 746 q 415 691 410 724 q 421 640 421 658 q 401 535 421 581 q 331 450 381 489 z "},"र":{"ha":704,"x_min":-15,"x_max":719,"o":"m 719 746 l 585 746 q 599 685 594 717 q 603 631 603 654 q 553 458 603 540 q 401 329 503 375 l 596 11 l 379 -46 l 182 299 q 167 299 174 299 q 151 300 160 300 q 83 320 111 300 q 47 375 54 340 q 107 525 47 458 q 242 592 167 592 q 283 574 264 592 q 315 532 303 556 q 347 581 336 547 q 357 639 357 615 q 347 701 357 669 q 314 746 336 732 l 7 746 l -15 944 l 696 944 l 719 746 z "},"ऱ":{"ha":704,"x_min":-15,"x_max":719,"o":"m 719 746 l 585 746 q 599 685 594 717 q 603 631 603 654 q 553 458 603 540 q 401 329 503 375 l 596 11 l 379 -46 l 182 299 q 167 299 174 299 q 151 300 160 300 q 83 320 111 300 q 47 375 54 340 q 107 525 47 458 q 242 592 167 592 q 283 574 264 592 q 315 532 303 556 q 347 581 336 547 q 357 639 357 615 q 347 701 357 669 q 314 746 336 732 l 7 746 l -15 944 l 696 944 l 719 746 m 125 -124 q 37 -87 74 -124 q 0 1 0 -50 q 37 90 0 53 q 125 128 74 128 q 214 90 176 128 q 251 1 251 53 q 214 -87 251 -50 q 125 -124 176 -124 z "},"ल":{"ha":1254,"x_min":-15,"x_max":1269,"o":"m 860 0 l 860 399 q 832 447 851 428 q 790 465 813 465 q 740 433 760 465 q 719 351 719 401 l 719 171 l 501 193 l 501 351 q 482 432 501 401 q 417 463 463 463 q 360 441 382 463 q 338 393 338 419 q 358 271 338 335 q 465 29 378 207 l 232 -36 q 120 210 157 113 q 83 413 83 308 q 172 597 83 524 q 401 671 261 671 q 527 641 472 671 q 607 576 582 611 q 678 641 633 611 q 797 671 724 671 q 827 669 813 671 q 860 661 842 667 l 860 746 l 7 746 l -15 944 l 1246 944 l 1269 746 l 1113 746 l 1113 -22 l 860 0 z "},"ळ":{"ha":1282,"x_min":-15,"x_max":1297,"o":"m 888 0 q 747 34 808 0 q 646 111 685 68 q 552 34 618 68 q 421 0 486 0 q 172 92 269 0 q 74 336 74 185 q 172 592 74 497 q 418 686 269 686 q 559 652 497 686 q 660 575 621 618 q 703 619 675 597 q 767 657 732 642 l 767 746 l 7 746 l -15 944 l 1274 944 l 1297 746 l 1003 746 l 1003 671 q 1172 556 1111 640 q 1232 350 1232 471 q 1134 98 1232 196 q 888 0 1036 0 m 321 332 q 351 263 321 293 q 429 232 382 232 q 503 283 469 232 q 554 388 538 333 q 498 436 529 418 q 429 454 467 454 q 351 417 382 454 q 321 332 321 381 m 985 354 q 954 424 985 393 q 876 454 924 454 q 802 403 836 454 q 751 299 768 353 q 808 250 776 268 q 876 232 839 232 q 954 269 924 232 q 985 354 985 306 z "},"ऴ":{"ha":1282,"x_min":-15,"x_max":1297,"o":"m 888 0 q 747 34 808 0 q 646 111 685 68 q 552 34 618 68 q 421 0 486 0 q 172 92 269 0 q 74 336 74 185 q 172 592 74 497 q 418 686 269 686 q 559 652 497 686 q 660 575 621 618 q 703 619 675 597 q 767 657 732 642 l 767 746 l 7 746 l -15 944 l 1274 944 l 1297 746 l 1003 746 l 1003 671 q 1172 556 1111 640 q 1232 350 1232 471 q 1134 98 1232 196 q 888 0 1036 0 m 321 332 q 351 263 321 293 q 429 232 382 232 q 503 283 469 232 q 554 388 538 333 q 498 436 529 418 q 429 454 467 454 q 351 417 382 454 q 321 332 321 381 m 985 354 q 954 424 985 393 q 876 454 924 454 q 802 403 836 454 q 751 299 768 353 q 808 250 776 268 q 876 232 839 232 q 954 269 924 232 q 985 354 985 306 m 654 -278 q 566 -241 603 -278 q 529 -153 529 -204 q 566 -64 529 -101 q 654 -26 603 -26 q 743 -64 706 -26 q 781 -153 781 -101 q 743 -241 781 -204 q 654 -278 706 -278 z "},"व":{"ha":925,"x_min":-15,"x_max":940,"o":"m 379 69 q 142 156 232 69 q 51 375 51 243 q 142 594 51 507 q 379 681 232 681 q 473 669 425 681 q 531 649 521 658 l 531 746 l 7 746 l -15 944 l 917 944 l 940 746 l 783 746 l 783 -22 l 531 0 l 531 101 q 473 81 521 92 q 379 69 425 69 m 308 375 q 338 299 308 331 q 426 267 368 267 q 496 291 471 267 q 531 331 521 315 l 531 419 q 496 459 521 435 q 426 483 471 483 q 338 451 368 483 q 308 375 308 419 z "},"श":{"ha":1214,"x_min":67,"x_max":1229,"o":"m 819 0 l 819 746 l 681 746 l 658 944 l 1206 944 l 1229 746 l 1072 746 l 1072 -22 l 819 0 m 353 492 q 384 541 374 507 q 394 599 394 575 q 392 624 394 614 q 388 639 389 635 q 330 615 364 624 q 261 607 296 607 q 126 654 186 607 q 67 783 67 701 q 131 919 67 869 q 292 969 196 969 q 544 858 447 969 q 640 611 640 747 q 590 428 640 521 q 439 289 540 335 l 610 11 l 393 -46 l 219 258 q 204 259 211 258 q 189 260 197 260 q 120 280 149 260 q 85 335 92 300 q 144 485 85 418 q 279 551 204 551 q 321 533 301 551 q 353 492 340 515 z "},"ष":{"ha":1031,"x_min":-15,"x_max":1046,"o":"m 636 0 l 636 200 q 567 174 614 185 q 478 163 521 163 q 231 243 344 163 q 117 490 117 324 l 117 746 l 7 746 l -15 944 l 1022 944 l 1046 746 l 889 746 l 889 -22 l 636 0 m 636 746 l 439 746 l 636 465 l 636 746 m 354 531 q 391 406 354 443 q 496 368 428 368 q 542 374 521 368 q 579 390 563 381 l 354 708 l 354 531 z "},"स":{"ha":1218,"x_min":-15,"x_max":1233,"o":"m 824 746 l 585 746 q 599 685 594 717 q 603 631 603 654 q 599 576 603 603 q 585 522 594 549 l 824 522 l 824 746 m 824 0 l 824 343 l 429 343 l 401 329 l 596 11 l 379 -46 l 182 299 q 167 299 174 299 q 151 300 160 300 q 83 320 111 300 q 47 375 54 340 q 107 525 47 458 q 242 592 167 592 q 283 574 264 592 q 315 532 303 556 q 347 581 336 547 q 357 639 357 615 q 347 701 357 669 q 314 746 336 732 l 7 746 l -15 944 l 1210 944 l 1233 746 l 1076 746 l 1076 -22 l 824 0 z "},"ह":{"ha":807,"x_min":-15,"x_max":822,"o":"m 417 522 q 638 461 539 522 q 736 304 736 400 q 710 209 736 249 q 647 150 685 169 q 507 235 526 221 l 488 247 q 500 258 493 251 q 507 276 507 264 q 487 306 507 288 q 419 325 467 325 q 359 307 385 325 q 333 263 333 289 q 405 192 333 207 q 540 172 476 178 q 546 172 543 172 q 551 171 549 171 l 504 -26 q 208 45 324 -21 q 93 263 93 111 q 106 337 93 301 q 144 403 119 372 q 115 457 125 426 q 104 524 104 488 q 180 677 104 624 q 354 731 256 731 l 432 731 l 432 746 l 7 746 l -15 944 l 799 944 l 822 746 l 685 746 l 685 544 l 393 544 q 365 539 372 544 q 357 524 357 533 l 357 517 q 386 520 371 518 q 417 522 401 522 z "},"ॸ":{"ha":957,"x_min":-15,"x_max":972,"o":"m 513 289 l 410 289 q 386 190 410 235 q 294 144 363 144 q 119 222 192 144 q 47 385 47 299 q 79 457 47 426 q 167 488 111 488 l 172 488 l 172 746 l 7 746 l -15 944 l 949 944 l 972 746 l 410 746 l 410 488 l 506 488 q 759 407 653 488 q 865 178 865 326 l 865 -21 q 722 -10 831 -21 l 613 3 l 613 178 q 587 259 613 229 q 513 289 561 289 z "},"ऺ":{"ha":0,"x_min":-236,"x_max":17,"o":"m 17 1233 l 17 944 l -236 944 l -236 1256 l 17 1233 z "},"ऻ":{"ha":540,"x_min":-15,"x_max":556,"o":"m 399 1233 l 399 944 l 532 944 l 556 746 l 399 746 l 399 -22 l 146 0 l 146 746 l 7 746 l -15 944 l 146 944 l 146 1256 l 399 1233 z "},"़":{"ha":0,"x_min":6,"x_max":257,"o":"m 131 -324 q 42 -287 79 -324 q 6 -199 6 -250 q 42 -110 6 -147 q 131 -72 79 -72 q 219 -110 182 -72 q 257 -199 257 -147 q 219 -287 257 -250 q 131 -324 182 -324 z "},"ऽ":{"ha":799,"x_min":42,"x_max":732,"o":"m 157 289 q 285 215 225 242 q 392 188 346 188 q 456 206 431 188 q 481 256 481 224 q 438 368 481 306 q 296 543 396 431 l 94 771 l 94 944 l 685 944 l 708 746 l 435 746 l 496 664 q 642 466 551 589 q 732 247 732 343 q 652 59 732 143 q 386 -25 572 -25 q 228 3 326 -25 q 42 94 129 31 l 157 289 z "},"ा":{"ha":540,"x_min":-15,"x_max":556,"o":"m 146 0 l 146 746 l 7 746 l -15 944 l 532 944 l 556 746 l 399 746 l 399 -22 l 146 0 z "},"ि":{"ha":540,"x_min":-15,"x_max":1135,"o":"m 1019 971 q 693 1084 850 1044 q 428 1124 536 1124 q 355 1094 379 1124 q 331 1046 331 1065 q 338 998 331 1025 q 365 944 344 971 l 532 944 l 556 746 l 399 746 l 399 -22 l 146 0 l 146 746 l 7 746 l -15 944 l 99 944 q 75 1005 86 968 q 64 1083 64 1042 q 153 1288 64 1208 q 404 1368 243 1368 q 777 1303 567 1368 q 1135 1163 988 1238 l 1019 971 z "},"ी":{"ha":540,"x_min":-387,"x_max":556,"o":"m 146 0 l 146 746 l 7 746 l -15 944 l 119 944 q 24 1045 97 989 q -114 1101 -49 1101 q -126 1097 -119 1101 q -133 1086 -133 1092 q -117 1050 -133 1075 q -76 1006 -100 1025 l -329 956 q -372 1027 -357 989 q -387 1111 -387 1065 q -314 1263 -387 1200 q -131 1326 -240 1326 q 172 1213 28 1326 q 385 944 317 1099 l 532 944 l 556 746 l 399 746 l 399 -22 l 146 0 z "},"ु":{"ha":0,"x_min":-629,"x_max":36,"o":"m -475 -111 q -337 -250 -407 -203 q -215 -297 -267 -297 q -182 -283 -193 -297 q -171 -254 -171 -269 q -183 -225 -171 -239 q -215 -211 -194 -211 l -314 -211 l -314 -25 l -212 -25 q -34 -87 -104 -25 q 36 -261 36 -150 q -39 -433 36 -369 q -218 -496 -114 -496 q -435 -426 -328 -496 q -629 -214 -542 -356 l -475 -111 z "},"ू":{"ha":0,"x_min":-500,"x_max":165,"o":"m 11 -410 q -127 -271 -57 -318 q -249 -224 -197 -224 q -282 -237 -271 -224 q -293 -267 -293 -251 q -281 -296 -293 -282 q -249 -310 -269 -310 l -150 -310 l -150 -496 l -251 -496 q -430 -433 -360 -496 q -500 -260 -500 -371 q -425 -88 -500 -151 q -246 -25 -350 -25 q -29 -95 -136 -25 q 165 -307 78 -165 l 11 -410 z "},"ृ":{"ha":0,"x_min":-493,"x_max":-78,"o":"m -285 -257 q -265 -287 -285 -276 q -211 -297 -246 -297 q -168 -294 -199 -297 q -118 -283 -137 -290 l -78 -472 q -142 -489 -101 -482 q -228 -496 -182 -496 q -406 -437 -319 -496 q -493 -261 -493 -378 q -417 -87 -493 -150 q -253 -25 -340 -25 l -114 -25 l -114 -225 l -239 -225 q -271 -233 -257 -225 q -285 -257 -285 -242 z "},"ॄ":{"ha":0,"x_min":-404,"x_max":-118,"o":"m -381 -264 q -398 -227 -392 -247 q -404 -189 -404 -207 q -347 -63 -404 -101 q -225 -25 -289 -25 l -122 -25 l -122 -175 l -189 -175 q -208 -181 -199 -175 q -217 -196 -217 -186 q -206 -214 -217 -210 q -189 -218 -194 -218 l -118 -218 l -146 -311 q -206 -317 -189 -311 q -222 -331 -222 -322 q -212 -347 -222 -342 q -189 -353 -201 -353 l -132 -353 l -162 -503 l -225 -503 q -347 -463 -289 -503 q -404 -340 -404 -424 q -397 -301 -404 -322 q -381 -264 -390 -281 z "},"ॅ":{"ha":0,"x_min":-14,"x_max":719,"o":"m 719 1246 q 567 1087 672 1142 q 353 1032 461 1032 q 139 1087 244 1032 q -14 1246 33 1142 l 161 1353 q 235 1265 186 1303 q 353 1228 283 1228 q 471 1265 422 1228 q 544 1353 519 1303 l 719 1246 z "},"ॆ":{"ha":0,"x_min":-886,"x_max":-117,"o":"m -886 1326 l -669 1297 q -653 1244 -669 1258 q -608 1231 -636 1231 l -394 1231 q -193 1165 -269 1231 q -117 1013 -117 1100 l -117 903 l -342 903 l -342 951 q -366 1010 -342 990 q -418 1031 -390 1031 l -611 1031 q -811 1090 -736 1031 q -886 1240 -886 1149 l -886 1326 z "},"े":{"ha":0,"x_min":-714,"x_max":-86,"o":"m -86 907 l -329 882 l -714 1228 l -517 1340 l -86 907 z "},"ै":{"ha":0,"x_min":-724,"x_max":-151,"o":"m -151 944 l -353 940 q -411 978 -369 956 q -524 1000 -453 1000 l -676 1000 l -724 1210 l -532 1210 q -479 1209 -506 1210 q -429 1203 -453 1208 q -458 1283 -440 1238 q -485 1357 -475 1328 l -262 1419 l -151 944 z "},"ॉ":{"ha":540,"x_min":-96,"x_max":638,"o":"m 638 1246 q 485 1087 590 1142 q 271 1032 379 1032 q 57 1087 163 1032 q -96 1246 -49 1142 l 79 1353 q 153 1265 104 1303 q 271 1228 201 1228 q 389 1265 340 1228 q 463 1353 438 1303 l 638 1246 m 146 0 l 146 746 l 7 746 l -15 944 l 532 944 l 556 746 l 399 746 l 399 -22 l 146 0 z "},"ॊ":{"ha":540,"x_min":-422,"x_max":556,"o":"m -422 1326 l -206 1297 q -189 1244 -206 1258 q -144 1231 -172 1231 l 111 1231 q 313 1165 236 1231 q 389 1013 389 1100 l 389 944 l 532 944 l 556 746 l 399 746 l 399 -22 l 146 0 l 146 746 l 7 746 l -15 944 l 164 944 l 164 951 q 140 1010 164 990 q 88 1031 115 1031 l -147 1031 q -347 1090 -272 1031 q -422 1240 -422 1149 l -422 1326 z "},"ो":{"ha":540,"x_min":-242,"x_max":556,"o":"m 350 944 l 532 944 l 556 746 l 399 746 l 399 -22 l 146 0 l 146 746 l 7 746 l -15 944 l 74 944 l -242 1228 l -44 1340 l 350 944 z "},"ौ":{"ha":540,"x_min":-217,"x_max":556,"o":"m 356 944 l 532 944 l 556 746 l 399 746 l 399 -22 l 146 0 l 146 746 l 7 746 l -15 944 l 150 944 q 92 980 132 960 q -17 1000 51 1000 l -169 1000 l -217 1210 l -25 1210 q 28 1209 1 1210 q 78 1203 54 1208 q 49 1283 67 1238 q 22 1357 32 1328 l 244 1419 l 356 944 z "},"ॏ":{"ha":540,"x_min":-265,"x_max":556,"o":"m 146 0 l 146 746 l 7 746 l -15 944 l 161 944 q 153 960 160 951 q 133 968 147 968 l -3 968 q -193 1028 -121 968 q -265 1189 -265 1089 l -265 1253 l -89 1222 q -69 1154 -89 1179 q -10 1129 -49 1129 l 63 1129 q -7 1202 19 1157 q -33 1307 -33 1247 l -33 1371 l 143 1342 q 163 1260 143 1294 q 215 1214 183 1226 q 333 1131 288 1186 q 379 996 379 1076 l 379 944 l 532 944 l 556 746 l 399 746 l 399 -22 l 146 0 z "},"्":{"ha":0,"x_min":-482,"x_max":-4,"o":"m -151 -532 l -482 -247 l -315 -96 l -4 -401 l -151 -532 z "},"ॖ":{"ha":0,"x_min":-21,"x_max":704,"o":"m -21 -194 l 167 -81 q 253 -158 199 -137 q 342 -179 307 -179 q 432 -160 376 -179 q 517 -81 488 -140 l 704 -194 q 548 -333 650 -290 q 342 -375 446 -375 q 135 -333 238 -375 q -21 -194 33 -290 z "},"ॗ":{"ha":0,"x_min":11,"x_max":894,"o":"m 626 -76 l 782 -165 q 615 -321 711 -286 q 456 -356 519 -356 q 295 -320 390 -356 q 132 -165 200 -285 l 290 -75 q 361 -167 314 -140 q 456 -194 408 -194 q 545 -172 497 -194 q 626 -76 593 -150 m 743 -244 l 894 -336 q 696 -498 818 -453 q 456 -543 574 -543 q 215 -498 343 -543 q 11 -340 86 -453 l 163 -246 q 289 -337 210 -303 q 456 -372 368 -372 q 617 -341 543 -372 q 743 -244 690 -310 z "},"ॎ":{"ha":540,"x_min":146,"x_max":556,"o":"m 146 0 l 146 944 l 532 944 l 556 746 l 399 746 l 399 -22 l 146 0 z "},"ॵ":{"ha":1885,"x_min":75,"x_max":1900,"o":"m 975 0 l 975 392 l 729 392 q 762 327 750 365 q 774 249 774 289 q 685 57 774 136 q 390 -22 597 -22 q 225 -3 307 -22 q 75 50 143 17 l 119 254 q 242 201 176 222 q 369 181 307 181 q 481 208 442 181 q 521 283 521 236 q 481 367 521 340 q 369 394 440 394 l 213 394 l 186 581 l 369 581 q 468 609 435 581 q 501 681 501 638 q 473 744 501 719 q 382 768 444 768 q 276 753 331 768 q 144 704 222 739 l 96 903 q 246 951 163 932 q 399 971 329 971 q 669 898 585 971 q 754 703 754 825 q 740 633 754 669 q 708 581 726 597 l 975 581 l 975 746 l 836 746 l 814 944 l 1492 944 q 1484 960 1490 951 q 1464 968 1478 968 l 1328 968 q 1138 1028 1210 968 q 1065 1189 1065 1089 l 1065 1253 l 1242 1222 q 1262 1154 1242 1179 q 1321 1129 1282 1129 l 1393 1129 q 1324 1202 1350 1157 q 1297 1307 1297 1247 l 1297 1371 l 1474 1342 q 1494 1260 1474 1294 q 1546 1214 1514 1226 q 1664 1131 1618 1186 q 1710 996 1710 1076 l 1710 944 l 1876 944 l 1900 746 l 1743 746 l 1743 -22 l 1490 0 l 1490 746 l 1228 746 l 1228 -22 l 975 0 z "},"ॐ":{"ha":1279,"x_min":75,"x_max":1258,"o":"m 886 1167 q 803 1202 838 1167 q 768 1285 768 1238 q 803 1367 768 1332 q 886 1403 838 1403 q 969 1367 933 1403 q 1004 1285 1004 1332 q 969 1202 1004 1238 q 886 1167 933 1167 m 1258 1113 q 1103 953 1211 1008 q 886 899 994 899 q 669 953 778 899 q 514 1113 561 1008 l 689 1219 q 765 1132 714 1169 q 886 1094 817 1094 q 1007 1132 956 1094 q 1083 1219 1058 1169 l 1258 1113 m 767 321 q 772 292 769 307 q 774 261 774 276 q 685 63 774 149 q 390 -22 597 -22 q 225 -3 307 -22 q 75 50 143 17 l 119 254 q 242 201 176 222 q 369 181 307 181 q 481 208 442 181 q 521 283 521 236 q 481 367 521 340 q 369 394 440 394 l 213 394 l 186 581 l 369 581 q 468 609 435 581 q 501 681 501 638 q 473 744 501 719 q 382 768 444 768 q 276 753 331 768 q 144 704 222 739 l 96 903 q 246 951 163 932 q 399 971 329 971 q 669 898 585 971 q 754 703 754 825 q 726 571 754 629 q 656 476 699 513 l 672 467 q 764 540 703 506 q 908 575 825 575 q 1151 499 1057 575 q 1244 294 1244 424 q 1143 53 1244 124 q 918 -22 1042 -17 l 883 175 q 981 203 947 175 q 1015 278 1015 231 q 982 351 1015 325 q 896 378 949 378 q 819 360 849 378 q 767 321 789 343 z "},"॑":{"ha":0,"x_min":28,"x_max":256,"o":"m 232 1032 l 49 1032 l 28 1358 l 256 1358 l 232 1032 z "},"॒":{"ha":0,"x_min":26,"x_max":789,"o":"m 789 -297 l 49 -297 l 26 -99 l 765 -99 l 789 -297 z "},"॓":{"ha":0,"x_min":-26,"x_max":356,"o":"m 356 1033 l 185 1033 l -26 1360 l 210 1360 l 356 1033 z "},"॔":{"ha":0,"x_min":8,"x_max":390,"o":"m 179 1033 l 8 1033 l 156 1360 l 390 1360 l 179 1033 z "},"ॕ":{"ha":0,"x_min":-12,"x_max":706,"o":"m 522 1556 l 694 1460 q 533 1287 626 1329 q 342 1244 439 1244 q 147 1288 242 1244 q -12 1460 53 1331 l 163 1557 q 249 1460 196 1488 q 342 1432 303 1432 q 431 1456 381 1432 q 522 1556 481 1481 m 706 1038 l 35 1038 l 15 1219 l 686 1219 l 706 1038 z "},"ॶ":{"ha":1369,"x_min":75,"x_max":1385,"o":"m 975 0 l 975 392 l 729 392 q 762 327 750 365 q 774 249 774 289 q 685 57 774 136 q 390 -22 597 -22 q 225 -3 307 -22 q 75 50 143 17 l 119 254 q 242 201 176 222 q 369 181 307 181 q 481 208 442 181 q 521 283 521 236 q 481 367 521 340 q 369 394 440 394 l 213 394 l 186 581 l 369 581 q 468 609 435 581 q 501 681 501 638 q 473 744 501 719 q 382 768 444 768 q 276 753 331 768 q 144 704 222 739 l 96 903 q 246 951 163 932 q 399 971 329 971 q 669 898 585 971 q 754 703 754 825 q 740 633 754 669 q 708 581 726 597 l 975 581 l 975 746 l 836 746 l 814 944 l 1361 944 l 1385 746 l 1228 746 l 1228 -22 l 975 0 m 408 -194 l 596 -81 q 682 -158 628 -137 q 771 -179 736 -179 q 861 -160 806 -179 q 946 -81 917 -140 l 1133 -194 q 977 -333 1079 -290 q 771 -375 875 -375 q 565 -333 667 -375 q 408 -194 463 -290 z "},"ॷ":{"ha":1369,"x_min":75,"x_max":1385,"o":"m 975 0 l 975 392 l 729 392 q 762 327 750 365 q 774 249 774 289 q 685 57 774 136 q 390 -22 597 -22 q 225 -3 307 -22 q 75 50 143 17 l 119 254 q 242 201 176 222 q 369 181 307 181 q 481 208 442 181 q 521 283 521 236 q 481 367 521 340 q 369 394 440 394 l 213 394 l 186 581 l 369 581 q 468 609 435 581 q 501 681 501 638 q 473 744 501 719 q 382 768 444 768 q 276 753 331 768 q 144 704 222 739 l 96 903 q 246 951 163 932 q 399 971 329 971 q 669 898 585 971 q 754 703 754 825 q 740 633 754 669 q 708 581 726 597 l 975 581 l 975 746 l 836 746 l 814 944 l 1361 944 l 1385 746 l 1228 746 l 1228 -22 l 975 0 m 914 -76 l 1069 -165 q 903 -321 999 -286 q 743 -356 807 -356 q 583 -320 678 -356 q 419 -165 488 -285 l 578 -75 q 649 -167 601 -140 q 743 -194 696 -194 q 833 -172 785 -194 q 914 -76 881 -150 m 1031 -244 l 1182 -336 q 983 -498 1106 -453 q 743 -543 861 -543 q 502 -498 631 -543 q 299 -340 374 -453 l 450 -246 q 576 -337 497 -303 q 743 -372 656 -372 q 904 -341 831 -372 q 1031 -244 978 -310 z "},"क़":{"ha":1306,"x_min":-15,"x_max":1321,"o":"m 531 331 l 531 419 q 496 459 521 435 q 426 483 471 483 q 338 451 368 483 q 308 375 308 419 q 338 299 308 331 q 426 267 368 267 q 496 291 471 267 q 531 331 521 315 m 874 267 q 972 297 938 267 q 1006 375 1006 328 q 979 451 1006 419 q 894 483 953 483 q 822 459 850 483 q 783 419 793 435 l 783 -22 l 531 0 l 531 101 q 473 81 521 92 q 379 69 425 69 q 142 156 232 69 q 51 375 51 243 q 142 594 51 507 q 379 681 232 681 q 473 669 425 681 q 531 649 521 658 l 531 746 l 7 746 l -15 944 l 1297 944 l 1321 746 l 783 746 l 783 642 q 841 666 793 651 q 935 681 889 681 q 1172 594 1082 681 q 1263 375 1263 507 q 1161 131 1263 204 q 936 53 1060 58 l 874 267 m 235 -251 q 147 -215 183 -251 q 110 -126 110 -178 q 147 -37 110 -75 q 235 0 183 0 q 324 -37 286 0 q 361 -126 361 -75 q 324 -215 361 -178 q 235 -251 286 -251 z "},"ख़":{"ha":1511,"x_min":-15,"x_max":1526,"o":"m 789 185 q 701 284 733 224 q 668 415 668 344 q 756 619 668 536 q 978 703 843 703 q 1063 692 1019 703 q 1117 674 1107 682 l 1117 746 l 585 746 q 599 685 594 717 q 603 631 603 654 q 561 454 603 521 q 454 353 519 388 q 569 235 493 289 q 736 181 644 181 q 763 182 750 181 q 789 185 776 183 m 1117 375 l 1117 457 q 1085 493 1108 471 q 1021 515 1063 515 q 940 486 968 515 q 913 415 913 457 q 940 346 913 375 q 1021 317 968 317 q 1085 339 1063 317 q 1117 375 1108 361 m 158 -147 q 70 -110 107 -147 q 33 -22 33 -74 q 70 67 33 29 q 158 104 107 104 q 247 67 210 104 q 285 -22 285 29 q 247 -110 285 -74 q 158 -147 210 -147 m 1117 0 l 1117 88 q 947 -2 1046 32 q 724 -36 849 -36 q 379 69 510 -36 q 196 300 249 174 l 183 300 q 86 320 118 300 q 47 375 54 340 q 107 525 47 458 q 242 592 167 592 q 283 574 264 592 q 315 532 303 556 q 347 581 336 547 q 357 639 357 615 q 347 701 357 669 q 314 746 336 732 l 7 746 l -15 944 l 1503 944 l 1526 746 l 1369 746 l 1369 -22 l 1117 0 z "},"ग़":{"ha":1100,"x_min":-15,"x_max":1115,"o":"m 454 746 l 453 275 q 422 172 453 208 q 321 135 392 135 q 153 203 235 135 q 71 375 71 272 q 109 470 71 443 q 201 497 147 497 l 201 746 l 7 746 l -15 944 l 1092 944 l 1115 746 l 958 746 l 958 -22 l 706 0 l 706 746 l 454 746 m 268 -179 q 180 -142 217 -179 q 143 -54 143 -106 q 180 35 143 -3 q 268 72 217 72 q 357 35 319 72 q 394 -54 394 -3 q 357 -142 394 -106 q 268 -179 319 -179 z "},"ज़":{"ha":1175,"x_min":-15,"x_max":1190,"o":"m 781 0 l 781 442 l 663 442 q 671 402 668 424 q 674 360 674 381 q 574 124 674 207 q 326 40 475 40 q 158 65 240 40 q 15 128 75 89 l 53 354 q 179 273 114 300 q 315 246 244 246 q 405 277 369 246 q 440 351 440 308 q 414 415 440 389 q 340 442 388 442 l 235 442 l 207 639 l 781 639 l 781 746 l 7 746 l -15 944 l 1167 944 l 1190 746 l 1033 746 l 1033 -22 l 781 0 m 328 -278 q 240 -241 276 -278 q 203 -153 203 -204 q 240 -64 203 -101 q 328 -26 276 -26 q 417 -64 379 -26 q 454 -153 454 -101 q 417 -241 454 -204 q 328 -278 379 -278 z "},"ड़":{"ha":789,"x_min":-15,"x_max":804,"o":"m 121 254 q 256 201 178 222 q 397 181 335 181 q 463 192 439 181 q 486 225 486 204 q 476 249 486 239 q 449 258 465 258 l 339 258 q 163 318 243 258 q 83 485 83 378 q 156 652 83 597 q 336 707 229 707 l 447 707 l 447 746 l 7 746 l -15 944 l 781 944 l 804 746 l 665 746 l 665 507 l 357 507 q 331 501 340 507 q 322 485 322 494 q 332 466 322 475 q 358 457 342 457 l 440 457 q 657 408 571 457 q 743 229 743 358 q 657 53 743 129 q 408 -22 571 -22 q 235 -3 325 -22 q 76 50 144 17 l 121 254 m 410 -319 q 322 -283 358 -319 q 285 -194 285 -246 q 322 -106 285 -143 q 410 -68 358 -68 q 499 -106 461 -68 q 536 -194 536 -143 q 499 -283 536 -246 q 410 -319 461 -319 z "},"ढ़":{"ha":964,"x_min":-15,"x_max":979,"o":"m 521 -26 q 217 51 360 -26 q 75 347 75 129 q 212 608 75 525 q 539 692 349 692 l 539 746 l 7 746 l -15 944 l 956 944 l 979 746 l 792 746 l 792 497 l 539 497 q 385 454 439 497 q 332 332 332 411 q 368 226 332 276 q 492 172 404 176 q 483 206 486 186 q 481 236 481 226 q 537 371 481 319 q 679 422 593 422 q 817 365 763 422 q 871 221 871 307 q 779 47 871 119 q 521 -26 688 -26 m 522 -301 q 434 -265 471 -301 q 397 -176 397 -228 q 434 -87 397 -125 q 522 -50 471 -50 q 611 -87 574 -50 q 649 -176 649 -125 q 611 -265 649 -228 q 522 -301 574 -301 z "},"फ़":{"ha":1411,"x_min":-15,"x_max":1426,"o":"m 636 453 l 636 746 l 354 746 l 354 531 q 391 406 354 443 q 496 368 428 368 q 591 395 554 368 q 636 453 628 422 m 636 0 l 636 200 q 567 174 614 185 q 478 163 521 163 q 231 243 344 163 q 117 490 117 324 l 117 746 l 7 746 l -15 944 l 1403 944 l 1426 746 l 889 746 l 889 633 q 947 658 899 643 q 1040 672 994 672 q 1278 585 1188 672 q 1368 367 1368 499 q 1267 123 1368 196 q 1042 44 1165 50 l 979 258 q 1077 289 1043 258 q 1111 367 1111 319 q 1085 443 1111 411 q 1000 475 1058 475 q 927 451 956 475 q 889 411 899 426 l 889 -22 l 636 0 m 235 -125 q 147 -88 183 -125 q 110 0 110 -51 q 147 89 110 51 q 235 126 183 126 q 324 89 286 126 q 361 0 361 51 q 324 -88 361 -51 q 235 -125 286 -125 z "},"य़":{"ha":985,"x_min":-15,"x_max":1000,"o":"m 590 0 l 590 219 q 500 194 554 200 q 401 189 446 189 q 166 276 269 189 q 63 485 63 363 l 108 535 q 152 575 132 544 q 172 649 172 606 q 158 703 172 671 q 126 746 144 735 l 7 746 l -15 944 l 976 944 l 1000 746 l 843 746 l 843 -22 l 590 0 m 331 450 q 376 413 349 431 q 449 396 404 396 q 539 417 499 396 q 590 471 579 439 l 590 746 l 403 746 q 415 691 410 724 q 421 640 421 658 q 401 535 421 581 q 331 450 381 489 m 215 -125 q 127 -88 164 -125 q 90 0 90 -51 q 127 89 90 51 q 215 126 164 126 q 304 89 267 126 q 342 0 342 51 q 304 -88 342 -51 q 215 -125 267 -125 z "},"ॠ":{"ha":1310,"x_min":-15,"x_max":1325,"o":"m 932 -19 q 915 16 922 -3 q 908 58 908 35 q 962 165 908 118 q 1015 256 1015 211 q 1008 308 1015 272 q 985 374 1001 344 q 876 332 943 349 q 757 310 808 315 l 757 -22 l 504 0 l 504 204 l 235 38 l 103 219 l 415 408 q 350 444 381 433 q 293 456 319 456 q 235 440 282 456 q 132 399 188 425 l 40 603 q 174 650 94 629 q 281 671 254 671 q 406 658 363 671 q 504 615 449 644 l 504 746 l 7 746 l -15 944 l 1301 944 l 1325 746 l 757 746 l 757 511 q 817 524 786 515 q 867 540 849 532 q 858 573 861 556 q 854 610 854 590 q 890 697 854 669 q 975 725 926 725 q 1111 685 1057 725 q 1165 578 1165 644 q 1160 536 1165 564 q 1146 500 1156 508 q 1229 387 1201 461 q 1257 265 1257 313 q 1207 153 1257 188 q 1147 74 1157 118 q 1156 52 1147 60 q 1175 44 1165 44 l 1194 44 l 1167 -92 q 1107 -97 1124 -92 q 1090 -111 1090 -103 q 1101 -128 1090 -122 q 1124 -133 1111 -133 l 1181 -133 l 1150 -283 l 1088 -283 q 966 -244 1024 -283 q 908 -121 908 -204 q 915 -69 908 -103 q 932 -19 922 -36 z "},"ॡ":{"ha":1254,"x_min":-15,"x_max":1269,"o":"m 854 -60 q 837 -23 843 -43 q 831 15 831 -3 q 838 69 831 46 q 860 111 846 93 l 860 399 q 832 447 851 428 q 790 465 813 465 q 740 433 760 465 q 719 351 719 401 l 719 171 l 501 193 l 501 351 q 482 432 501 401 q 417 463 463 463 q 360 441 382 463 q 338 393 338 419 q 358 271 338 335 q 465 29 378 207 l 232 -36 q 120 210 157 113 q 83 413 83 308 q 172 597 83 524 q 401 671 261 671 q 527 641 472 671 q 607 576 582 611 q 678 641 633 611 q 797 671 724 671 q 827 669 813 671 q 860 661 842 667 l 860 746 l 7 746 l -15 944 l 1246 944 l 1269 746 l 1113 746 l 1113 29 l 1046 29 q 1027 24 1036 29 q 1018 8 1018 18 q 1029 -10 1018 -6 q 1046 -14 1040 -14 l 1117 -14 l 1089 -107 q 1029 -112 1046 -107 q 1013 -126 1013 -118 q 1023 -143 1013 -137 q 1046 -149 1033 -149 l 1103 -149 l 1072 -299 l 1010 -299 q 888 -259 946 -299 q 831 -136 831 -219 q 838 -97 831 -118 q 854 -60 844 -76 z "},"ॢ":{"ha":0,"x_min":21,"x_max":679,"o":"m 426 -233 l 426 -386 l 271 -346 l 271 -233 q 258 -202 271 -212 q 228 -192 244 -192 q 202 -203 213 -192 q 192 -229 192 -215 q 216 -313 192 -268 q 303 -474 240 -358 l 132 -512 q 49 -337 76 -404 q 21 -204 21 -271 q 76 -76 21 -125 q 219 -26 132 -26 q 294 -42 261 -26 q 347 -86 328 -58 q 406 -43 369 -60 q 482 -26 443 -26 q 622 -78 568 -26 q 676 -204 676 -131 q 654 -286 676 -246 q 632 -339 632 -326 q 637 -349 632 -346 q 651 -351 642 -351 l 679 -351 l 638 -506 l 583 -506 q 496 -481 544 -506 q 447 -393 447 -457 q 475 -307 447 -344 q 503 -228 503 -269 q 493 -203 503 -215 q 468 -192 483 -192 q 440 -203 453 -192 q 426 -233 426 -214 z "},"ॣ":{"ha":0,"x_min":7,"x_max":665,"o":"m 413 -233 l 413 -386 l 257 -346 l 257 -233 q 244 -202 257 -212 q 214 -192 231 -192 q 188 -203 199 -192 q 178 -229 178 -215 q 202 -313 178 -268 q 289 -474 226 -358 l 118 -512 q 35 -337 63 -404 q 7 -204 7 -271 q 63 -76 7 -125 q 206 -26 118 -26 q 281 -42 247 -26 q 333 -86 314 -58 q 392 -43 356 -60 q 468 -26 429 -26 q 608 -78 554 -26 q 663 -204 663 -131 q 640 -286 663 -246 q 618 -339 618 -326 q 623 -349 618 -346 q 638 -351 628 -351 l 665 -351 l 633 -478 l 574 -478 q 553 -484 561 -478 q 544 -500 544 -490 q 553 -517 544 -512 q 568 -522 561 -522 l 635 -522 l 596 -644 l 558 -644 q 458 -612 499 -644 q 418 -512 418 -581 q 426 -475 418 -494 q 447 -446 433 -456 q 438 -422 442 -436 q 433 -393 433 -408 q 461 -307 433 -344 q 489 -228 489 -269 q 479 -203 489 -215 q 454 -192 469 -192 q 426 -203 439 -192 q 413 -233 413 -214 z "},"।":{"ha":697,"x_min":222,"x_max":475,"o":"m 222 0 l 222 1071 l 475 1049 l 475 -22 l 222 0 z "},"॥":{"ha":1279,"x_min":222,"x_max":1057,"o":"m 818 0 l 818 1071 l 1057 1049 l 1057 -22 l 818 0 m 222 0 l 222 1071 l 461 1049 l 461 -22 l 222 0 z "},"०":{"ha":965,"x_min":75,"x_max":896,"o":"m 486 75 q 189 191 303 75 q 75 471 75 307 q 189 751 75 635 q 485 868 303 868 q 781 752 667 868 q 896 471 896 636 q 782 191 896 307 q 486 75 668 75 m 329 471 q 376 333 329 389 q 492 276 424 276 q 602 333 563 276 q 642 471 642 389 q 598 610 642 554 q 485 667 554 667 q 372 610 414 667 q 329 471 329 554 z "},"१":{"ha":600,"x_min":67,"x_max":561,"o":"m 71 478 l 215 592 q 130 660 168 614 q 92 760 92 706 q 155 916 92 861 q 314 971 218 971 q 480 904 421 971 q 539 740 539 838 q 501 597 539 672 q 375 457 464 521 l 307 408 q 435 220 368 321 q 561 35 501 119 l 333 -22 l 67 393 l 71 478 z "},"२":{"ha":763,"x_min":67,"x_max":696,"o":"m 381 532 q 431 581 413 546 q 450 639 450 615 q 421 713 450 679 q 344 747 392 747 q 251 728 303 747 q 160 678 199 708 l 67 875 q 194 940 110 910 q 347 971 278 971 q 610 866 525 971 q 696 643 696 761 q 634 458 696 553 q 467 329 572 364 l 661 11 l 444 -46 l 247 299 q 232 299 239 299 q 217 300 225 300 q 148 320 176 300 q 113 375 119 340 q 172 525 113 458 q 307 592 232 592 q 349 574 329 592 q 381 532 368 556 z "},"३":{"ha":767,"x_min":56,"x_max":706,"o":"m 397 971 q 618 891 546 971 q 690 710 690 811 q 671 618 690 667 q 617 535 651 569 q 681 455 656 504 q 706 356 706 406 q 638 182 706 260 q 451 86 569 104 l 525 -8 l 360 -125 l 183 113 q 97 176 138 135 q 56 283 56 218 q 91 367 56 338 q 171 396 126 396 q 269 365 221 396 q 340 289 317 335 q 412 310 376 290 q 447 356 447 331 q 419 413 447 386 q 332 439 392 439 l 206 439 l 178 631 l 339 631 q 407 646 382 631 q 432 699 432 661 q 415 733 432 717 q 357 750 397 750 q 244 728 310 750 q 124 676 179 707 l 88 901 q 235 953 151 935 q 397 971 318 971 z "},"४":{"ha":1019,"x_min":42,"x_max":978,"o":"m 204 239 q 244 380 204 306 q 356 515 285 454 q 204 660 299 579 q 42 794 110 740 l 200 992 q 394 827 325 892 q 510 711 463 763 q 626 827 557 763 q 819 992 694 892 l 978 794 q 815 660 910 740 q 664 515 721 579 q 775 378 735 451 q 815 239 815 306 q 725 42 815 110 q 510 -26 635 -26 q 294 42 385 -26 q 204 239 204 110 m 510 203 q 547 217 533 203 q 560 247 560 231 q 546 288 560 265 q 510 328 532 310 q 473 288 486 310 q 460 247 460 265 q 473 217 460 231 q 510 203 486 203 z "},"५":{"ha":808,"x_min":78,"x_max":794,"o":"m 403 204 q 478 183 454 188 q 521 179 501 179 q 556 191 543 179 q 568 219 568 203 q 558 274 568 243 q 538 325 549 306 q 501 321 515 322 q 471 319 488 319 q 201 398 324 319 q 78 650 78 476 l 78 944 l 331 944 l 331 650 q 362 560 331 590 q 442 525 393 531 q 440 535 440 531 q 440 546 440 540 q 476 637 442 589 q 574 685 511 685 q 699 633 650 685 q 747 510 747 581 q 735 449 747 481 q 708 407 724 417 q 765 315 735 381 q 794 189 794 249 q 738 30 794 86 q 550 -26 681 -26 q 469 -20 528 -26 q 347 11 411 -14 l 403 204 z "},"६":{"ha":815,"x_min":67,"x_max":815,"o":"m 156 535 q 101 618 121 569 q 82 710 82 667 q 154 891 82 811 q 375 971 226 971 q 538 953 454 971 q 685 901 621 935 l 649 676 q 528 728 593 707 q 415 750 463 750 q 358 733 375 750 q 340 699 340 717 q 365 646 340 661 q 433 631 390 631 l 594 631 l 567 439 l 440 439 q 353 412 381 439 q 325 347 325 385 q 360 290 325 308 q 438 271 396 271 q 476 361 440 326 q 571 396 511 396 q 690 354 631 396 q 750 244 750 313 q 742 197 750 222 q 719 149 733 171 q 747 100 731 126 q 815 -14 763 74 l 601 -94 l 517 64 q 465 52 494 56 q 411 49 436 49 q 163 131 260 49 q 67 347 67 214 q 92 451 67 397 q 156 535 117 504 z "},"७":{"ha":1028,"x_min":28,"x_max":972,"o":"m 696 576 q 672 628 690 607 q 626 650 653 650 q 594 638 608 650 q 579 603 579 625 q 596 568 579 581 q 635 556 613 556 q 667 561 653 556 q 696 576 682 567 m 696 343 q 657 335 676 338 q 621 332 638 332 q 416 406 499 332 q 333 592 333 479 q 413 794 333 713 q 615 876 492 876 q 876 751 781 876 q 972 421 972 625 q 850 106 972 239 q 506 -26 728 -26 q 149 120 271 -26 q 28 529 28 267 l 285 529 q 344 294 285 378 q 506 210 404 210 q 626 248 576 210 q 696 343 675 286 z "},"८":{"ha":814,"x_min":56,"x_max":757,"o":"m 313 319 q 339 244 313 275 q 415 213 365 213 q 495 251 458 213 q 532 406 532 289 l 757 340 l 757 321 q 678 90 757 207 q 413 -26 599 -26 q 151 72 247 -26 q 56 315 56 169 q 205 699 56 513 q 482 992 354 885 l 632 808 q 398 552 483 668 q 313 319 313 436 z "},"९":{"ha":647,"x_min":56,"x_max":581,"o":"m 321 963 q 511 889 442 963 q 581 710 581 815 q 532 563 581 622 q 404 481 483 503 l 415 465 q 519 297 486 357 q 551 175 551 236 q 481 40 551 96 q 290 -39 411 -17 l 249 160 l 260 163 q 299 176 286 169 q 311 197 311 182 q 273 256 311 206 q 167 413 235 306 q 92 544 128 467 q 56 694 56 621 q 128 882 56 801 q 321 963 201 963 z "},"॰":{"ha":835,"x_min":56,"x_max":779,"o":"m 421 747 q 678 645 578 747 q 779 399 779 543 q 680 155 779 256 q 419 54 581 54 q 155 156 254 54 q 56 404 56 257 q 156 647 56 547 q 421 747 256 747 m 419 257 q 495 297 464 257 q 526 401 526 336 q 496 503 526 465 q 419 540 465 540 q 342 501 375 540 q 310 401 310 463 q 340 296 310 335 q 419 257 371 257 z "},"ॱ":{"ha":363,"x_min":56,"x_max":307,"o":"m 181 285 q 92 322 129 285 q 56 410 56 358 q 92 499 56 461 q 181 536 129 536 q 269 499 232 536 q 307 410 307 461 q 269 322 307 358 q 181 285 232 285 z "},"ॲ":{"ha":1451,"x_min":75,"x_max":1467,"o":"m 1467 1246 q 1314 1087 1419 1142 q 1100 1032 1208 1032 q 886 1087 992 1032 q 733 1246 781 1142 l 908 1353 q 982 1265 933 1303 q 1100 1228 1031 1228 q 1218 1265 1169 1228 q 1292 1353 1267 1303 l 1467 1246 m 975 0 l 975 392 l 729 392 q 762 327 750 365 q 774 249 774 289 q 685 57 774 136 q 390 -22 597 -22 q 225 -3 307 -22 q 75 50 143 17 l 119 254 q 242 201 176 222 q 369 181 307 181 q 481 208 442 181 q 521 283 521 236 q 481 367 521 340 q 369 394 440 394 l 213 394 l 186 581 l 369 581 q 468 609 435 581 q 501 681 501 638 q 473 744 501 719 q 382 768 444 768 q 276 753 331 768 q 144 704 222 739 l 96 903 q 246 951 163 932 q 399 971 329 971 q 669 898 585 971 q 754 703 754 825 q 740 633 754 669 q 708 581 726 597 l 975 581 l 975 746 l 836 746 l 814 944 l 1361 944 l 1385 746 l 1228 746 l 1228 -22 l 975 0 z "},"ॳ":{"ha":1369,"x_min":75,"x_max":1385,"o":"m 1228 1233 l 1228 944 l 1361 944 l 1385 746 l 1228 746 l 1228 -22 l 975 0 l 975 392 l 729 392 q 762 327 750 365 q 774 249 774 289 q 685 57 774 136 q 390 -22 597 -22 q 225 -3 307 -22 q 75 50 143 17 l 119 254 q 242 201 176 222 q 369 181 307 181 q 481 208 442 181 q 521 283 521 236 q 481 367 521 340 q 369 394 440 394 l 213 394 l 186 581 l 369 581 q 468 609 435 581 q 501 681 501 638 q 473 744 501 719 q 382 768 444 768 q 276 753 331 768 q 144 704 222 739 l 96 903 q 246 951 163 932 q 399 971 329 971 q 669 898 585 971 q 754 703 754 825 q 740 633 754 669 q 708 581 726 597 l 975 581 l 975 746 l 836 746 l 814 944 l 975 944 l 975 1256 l 1228 1233 z "},"ॴ":{"ha":1885,"x_min":75,"x_max":1900,"o":"m 975 0 l 975 392 l 729 392 q 762 327 750 365 q 774 249 774 289 q 685 57 774 136 q 390 -22 597 -22 q 225 -3 307 -22 q 75 50 143 17 l 119 254 q 242 201 176 222 q 369 181 307 181 q 481 208 442 181 q 521 283 521 236 q 481 367 521 340 q 369 394 440 394 l 213 394 l 186 581 l 369 581 q 468 609 435 581 q 501 681 501 638 q 473 744 501 719 q 382 768 444 768 q 276 753 331 768 q 144 704 222 739 l 96 903 q 246 951 163 932 q 399 971 329 971 q 669 898 585 971 q 754 703 754 825 q 740 633 754 669 q 708 581 726 597 l 975 581 l 975 746 l 836 746 l 814 944 l 1490 944 l 1490 1256 l 1743 1233 l 1743 944 l 1876 944 l 1900 746 l 1743 746 l 1743 -22 l 1490 0 l 1490 746 l 1228 746 l 1228 -22 l 975 0 z "},"ॹ":{"ha":1175,"x_min":-15,"x_max":1190,"o":"m 781 0 l 781 442 l 663 442 q 671 402 668 424 q 674 360 674 381 q 574 124 674 207 q 326 40 475 40 q 158 65 240 40 q 15 128 75 89 l 53 354 q 179 273 114 300 q 315 246 244 246 q 405 277 369 246 q 440 351 440 308 q 414 415 440 389 q 340 442 388 442 l 235 442 l 207 639 l 781 639 l 781 746 l 7 746 l -15 944 l 1167 944 l 1190 746 l 1033 746 l 1033 -22 l 781 0 m 168 -217 q 85 -181 119 -217 q 50 -99 50 -146 q 85 -15 50 -50 q 168 21 119 21 q 252 -15 217 21 q 288 -99 288 -50 q 252 -181 288 -146 q 168 -217 217 -217 m 492 -217 q 408 -181 443 -217 q 374 -99 374 -146 q 408 -15 374 -50 q 492 21 443 21 q 576 -15 540 21 q 611 -99 611 -50 q 576 -181 611 -146 q 492 -217 540 -217 m 328 -431 q 244 -395 279 -431 q 210 -312 210 -360 q 244 -228 210 -264 q 328 -193 279 -193 q 412 -228 376 -193 q 447 -312 447 -264 q 412 -395 447 -360 q 328 -431 376 -431 z "},"ॺ":{"ha":985,"x_min":-15,"x_max":1000,"o":"m 590 0 l 590 219 q 500 194 554 200 q 401 189 446 189 q 166 276 269 189 q 63 485 63 363 l 108 535 q 152 575 132 544 q 172 649 172 606 q 158 703 172 671 q 126 746 144 735 l 7 746 l -15 944 l 976 944 l 1000 746 l 843 746 l 843 -22 l 590 0 m 590 746 l 454 746 l 589 467 q 589 469 589 468 q 590 471 589 469 l 590 746 m 331 450 q 376 413 349 431 q 449 396 404 396 q 487 399 468 396 q 521 410 506 403 l 407 646 l 407 640 q 394 535 407 581 q 331 450 381 489 z "},"ॻ":{"ha":1100,"x_min":-15,"x_max":1115,"o":"m 454 746 l 453 275 q 422 172 453 208 q 321 135 392 135 q 153 203 235 135 q 71 375 71 272 q 109 470 71 443 q 201 497 147 497 l 201 746 l 7 746 l -15 944 l 1092 944 l 1115 746 l 958 746 l 958 -22 l 706 0 l 706 746 l 454 746 m 976 -297 l 119 -297 l 97 -99 l 953 -99 l 976 -297 z "},"ॼ":{"ha":1175,"x_min":-15,"x_max":1190,"o":"m 781 0 l 781 442 l 663 442 q 671 402 668 424 q 674 360 674 381 q 574 124 674 207 q 326 40 475 40 q 158 65 240 40 q 15 128 75 89 l 53 354 q 179 273 114 300 q 315 246 244 246 q 405 277 369 246 q 440 351 440 308 q 414 415 440 389 q 340 442 388 442 l 235 442 l 207 639 l 781 639 l 781 746 l 7 746 l -15 944 l 1167 944 l 1190 746 l 1033 746 l 1033 -22 l 781 0 m 1000 -297 l 86 -297 l 64 -99 l 976 -99 l 1000 -297 z "},"ॽ":{"ha":796,"x_min":75,"x_max":740,"o":"m 403 971 q 652 880 564 971 q 740 668 740 789 q 671 487 740 578 q 493 343 601 396 q 494 174 493 264 q 494 4 494 83 l 242 78 l 242 474 q 415 558 346 507 q 485 665 485 610 q 458 733 485 704 q 392 761 431 761 q 262 733 332 761 q 108 649 192 706 l 75 876 q 231 947 150 924 q 403 971 313 971 z "},"ॾ":{"ha":789,"x_min":-15,"x_max":804,"o":"m 121 254 q 256 201 178 222 q 397 181 335 181 q 463 192 439 181 q 486 225 486 204 q 476 249 486 239 q 449 258 465 258 l 339 258 q 163 318 243 258 q 83 485 83 378 q 156 652 83 597 q 336 707 229 707 l 447 707 l 447 746 l 7 746 l -15 944 l 781 944 l 804 746 l 665 746 l 665 507 l 357 507 q 331 501 340 507 q 322 485 322 494 q 332 466 322 475 q 358 457 342 457 l 440 457 q 657 408 571 457 q 743 229 743 358 q 657 53 743 129 q 408 -22 571 -22 q 235 -3 325 -22 q 76 50 144 17 l 121 254 m 729 -297 l 103 -297 l 81 -99 l 706 -99 l 729 -297 z "},"ॿ":{"ha":932,"x_min":-15,"x_max":947,"o":"m 379 69 q 142 156 232 69 q 51 375 51 243 q 142 594 51 507 q 379 681 232 681 q 472 670 422 681 q 538 650 522 660 l 538 746 l 7 746 l -15 944 l 924 944 l 947 746 l 790 746 l 790 -22 l 538 0 l 538 99 q 472 79 522 89 q 379 69 422 69 m 532 318 l 538 325 l 538 424 q 500 462 526 440 q 432 483 474 483 q 410 481 421 483 q 390 478 400 479 l 532 318 m 308 375 q 341 299 308 331 q 432 267 374 267 q 444 267 438 267 q 456 269 450 268 l 319 424 q 311 401 314 414 q 308 375 308 388 m 815 -297 l 119 -297 l 97 -99 l 792 -99 l 815 -297 z "}}}
